<mxfile host="app.diagrams.net" agent="Mozilla/5.0 (X11; Linux x86_64; rv:131.0) Gecko/20100101 Firefox/131.0" version="24.8.3">
  <diagram id="Ht1M8jgEwFfnCIfOTk4-" name="Page-1">
    <mxGraphModel dx="1598" dy="878" grid="1" gridSize="10" guides="1" tooltips="1" connect="1" arrows="1" fold="1" page="1" pageScale="1" pageWidth="1169" pageHeight="827" math="0" shadow="0">
      <root>
        <mxCell id="0" />
        <mxCell id="1" parent="0" />
        <mxCell id="5KLxB0Z64s1aJPtgXKn9-2" value="" style="rounded=1;whiteSpace=wrap;html=1;fillColor=#FFCCE6;fillStyle=solid;strokeWidth=2;strokeColor=#9673a6;dashed=1;" vertex="1" parent="1">
          <mxGeometry x="550" y="710" width="173" height="110" as="geometry" />
        </mxCell>
        <mxCell id="WauHK1ZiTlTc2SndrFiC-42" value="" style="rounded=1;whiteSpace=wrap;html=1;fillStyle=solid;strokeWidth=2;dashed=1;fillColor=#f5f5f5;fontColor=#333333;strokeColor=#666666;" parent="1" vertex="1">
          <mxGeometry x="240" y="40" width="790" height="445" as="geometry" />
        </mxCell>
        <mxCell id="WauHK1ZiTlTc2SndrFiC-53" style="edgeStyle=orthogonalEdgeStyle;rounded=1;orthogonalLoop=1;jettySize=auto;html=1;entryX=0.5;entryY=0;entryDx=0;entryDy=0;strokeWidth=3;endSize=1;dashed=1;dashPattern=1 2;curved=0;shadow=1;strokeColor=#FF9933;" parent="1" source="WauHK1ZiTlTc2SndrFiC-33" target="WauHK1ZiTlTc2SndrFiC-37" edge="1">
          <mxGeometry relative="1" as="geometry">
            <Array as="points">
              <mxPoint x="870" y="510" />
              <mxPoint x="635" y="510" />
            </Array>
          </mxGeometry>
        </mxCell>
        <mxCell id="WauHK1ZiTlTc2SndrFiC-52" style="edgeStyle=orthogonalEdgeStyle;rounded=1;orthogonalLoop=1;jettySize=auto;html=1;entryX=0.5;entryY=0;entryDx=0;entryDy=0;strokeWidth=3;endSize=1;dashed=1;dashPattern=1 2;curved=0;shadow=1;strokeColor=#FF9933;" parent="1" source="WauHK1ZiTlTc2SndrFiC-29" target="WauHK1ZiTlTc2SndrFiC-37" edge="1">
          <mxGeometry relative="1" as="geometry">
            <Array as="points">
              <mxPoint x="1100" y="173" />
              <mxPoint x="1100" y="510" />
              <mxPoint x="635" y="510" />
            </Array>
          </mxGeometry>
        </mxCell>
        <mxCell id="WauHK1ZiTlTc2SndrFiC-29" value="" style="rounded=1;whiteSpace=wrap;html=1;fillColor=#d5e8d4;fillStyle=solid;strokeWidth=2;strokeColor=#82b366;dashed=1;" parent="1" vertex="1">
          <mxGeometry x="740" y="81" width="260" height="145" as="geometry" />
        </mxCell>
        <mxCell id="WauHK1ZiTlTc2SndrFiC-46" style="edgeStyle=orthogonalEdgeStyle;rounded=1;orthogonalLoop=1;jettySize=auto;html=1;entryX=0;entryY=0.5;entryDx=0;entryDy=0;strokeWidth=3;endSize=1;dashed=1;dashPattern=1 2;strokeColor=default;curved=0;" parent="1" source="WauHK1ZiTlTc2SndrFiC-18" target="WauHK1ZiTlTc2SndrFiC-29" edge="1">
          <mxGeometry relative="1" as="geometry" />
        </mxCell>
        <mxCell id="WauHK1ZiTlTc2SndrFiC-47" style="edgeStyle=orthogonalEdgeStyle;rounded=1;orthogonalLoop=1;jettySize=auto;html=1;exitX=1;exitY=0.5;exitDx=0;exitDy=0;entryX=0;entryY=0.5;entryDx=0;entryDy=0;endSize=1;strokeWidth=3;dashed=1;dashPattern=1 2;curved=0;" parent="1" source="WauHK1ZiTlTc2SndrFiC-18" target="WauHK1ZiTlTc2SndrFiC-33" edge="1">
          <mxGeometry relative="1" as="geometry" />
        </mxCell>
        <mxCell id="WauHK1ZiTlTc2SndrFiC-51" style="edgeStyle=orthogonalEdgeStyle;rounded=1;orthogonalLoop=1;jettySize=auto;html=1;exitX=0.5;exitY=1;exitDx=0;exitDy=0;entryX=0.5;entryY=0;entryDx=0;entryDy=0;strokeWidth=3;curved=0;dashed=1;dashPattern=1 2;endSize=1;shadow=1;strokeColor=#FF9933;" parent="1" source="WauHK1ZiTlTc2SndrFiC-18" target="WauHK1ZiTlTc2SndrFiC-37" edge="1">
          <mxGeometry relative="1" as="geometry" />
        </mxCell>
        <mxCell id="WauHK1ZiTlTc2SndrFiC-1" value="" style="shape=image;verticalLabelPosition=bottom;labelBackgroundColor=default;verticalAlign=top;aspect=fixed;imageAspect=0;image=data:image/png,iVBORw0KGgoAAAANSUhEUgAAApwAAAECCAYAAABTzwcLAAAACXBIWXMAAAsTAAALEwEAmpwYAAAAB3RJTUUH3gkMDzIv7tskIwAAIABJREFUeNrt3U9sU1f+9/HvJTdxnOQm2IX0cZBAmghTiUhFbtGURYlUsUsWPKtmkx0s0tWwyW9FFmT1Y5NZlUVYPdmkq6eLZDMPQjIsmBGpf6kEUjHKSEEiHgzYYCexHTucZ2GcpjSB/PE999/7JY06nU5xcn3uOZ/zXwQAAACwkbH9b1K5imr2B3SZRyTe3WrwqAEA0C9dqKrV2jvadrgjcI4+eKXSxZotHzLUF5aJgR4KJgAAGo09zKlUfsOWPzsRaZNb56O07diTIyIis8trtoVNEZH5lZIks2XF4wYAQI+55+u2hU0RkVR+Q+aer9O2Y++Bs1izv7zYGWgBAMAfZcrvfPEZ8FHgBAAAAAicAAAAIHACAAAABE4AAAAQOAEAAEDgBAAAAAicAAAAIHACAACAwAkAAAAQOAEAAEDgBAAAAIETAAAAIHACAACAwAkAAAAQOAEAAEDgBAAAAIETAAAAIHACAACAwAkAAAACJwAAAEDgBAAAAIETAAAABE4AAACAwAkAAAACJwAAAAicAAAAAIETAAAABE4AAACAwAkAAAACJwAAAAicAAAAAIETAAAABE4AAAAQOAEAAAACJwAAAAicAAAAIHACAAAABE4AAAAQOAEAAAACJwAAAAicAAAAIHACAAAABE4AAAAQOAEAAEDgBAAAAAicAAAAIHACAACAwAkAAAAQOAEAAEDgBAAAAAicAAAAIHACAACAwAkAAAAQOAEAAEDgBAAAAIETAAAAIHACAACAwAkAAAACJwAAAHBYJo8AdkoXqmq19k5+yVdFRORpsSrFqvr9v9fUnv6cWLhFYu0tIiKSiLaJiMhXkdb6/x42DZ608zKlmsqUNre+61Ruo/6/lzclU9rc058Rt0zpMo/wPftQKldR6WJNijVF2YBvy/hKaVMy5XeSKf1etvfT1jXKudVqyGmrVSzTkLhlSiIa8nwZN0REppdW1e2lVVs/6Ep/l1zt76JS8Hm4TOU3JF2sydNiVdLFmrbPTkTa3r+UbTLY20450/h9p/Ibkspt7LlC5XsOVtlIF2t7DpXNKBunLVO+irYRQmnbbQ+Xv+Srkspt7CtQHkYs3FKv/yJt9fLe3eqp507gPERB02m4r911FWimVFPJbEVr4NiruGXKxd52GTwe8txL6WbJbFklsxW5ly274vtuVL5DfeFDf8+zy2vKjt/Jje+unWUjld/QEjD30jgPHg/JYG/o0KNDc8/XVab8znNlg7a9uZ2o5Mt63adzMOVjLNOQRLRNLh4PyfCJDtd/BwTOfbrx6K2aXyk5UrBmLnzmeMPVCJnzKyXXvHR7aXiG+sKBafjtqGhnn627JmR+KmAcJHyOPnil7CrPlmnIj19HfdnxSReqan6lJPMrJVeXDcs05GJvu4yc7Nj39zD2MKdS+Q3bfrZbX0dsmy6lbT98eze7vC7JlxVXdKI+ZbA35OrwSeD0QNhsuHbGkpFTnY48w7nn6+qnZ+ueCZm7SUTaZORUB9OxPv/O45Yp35/s2FPFm8pV1NhC3tafZ6gvLBMDPb4pc8lsWc0ur4udQcwNZSNdqKrRf762PSTcPBchcFL3NbWDNdQXlpFTHa4aZGGXukfCpohoH0HIlGpqemlVXbr7Qk0+Lng+bIqIpPIbMr74Ri7ff6nmnq8rSvbOle3l+y89/Z2nizWZfFyQy/dfqtnlNce/Zy+MjuynbIwvvvFk2NxeNi7dfaGml1Y/WjZWa+9s/3kamyjhPL+0d8Waktln63L5/iu58eitypTcMf1A4PRI2LRMQwaPh7QFzRuP3qrL91/J7aVVV0+VHSYANAJJKlehxpf6SF8jaPolIGVKmzL1pCiX7r6gg3HIsjH2MOerslGsKbm9tLqn4IlgBE0/tnfzKyW5fP+VjC/mHQ+eBE6PhE0da8C2B02nf2edgWRsIS9jD3Ou6QXqfwY1Nb6YV2MLed+EiZ3CxeTjgow+eEUH4wB14NhC3rMjmnsNnpfvv1TJbJmyESCNEXu/Dqxsl8xWtkY8CZyETUfD5vTSaqCC5odS+Q0ZffBa3DD9qtPs8poaffBaktlKIH7fdLEmYwt5mfqtQLD4ZANVVpfuvlBB6nyOL76R8cU8ZcPv9UCh6rsR+72aXynJpbsvHFlqROAMeNice76+NZUQdMWakqknRRl7mAtEgzO+mFdTT4q+79nvGLSfrbOc4hP13/jim0CWjWS2IpfuvmC006eml1bV6D9f+3bEfr9tnc6ZPQJnQMPm9h5esUa9ul0qvyGX7r5Q6YI/V/OnC1VVnz6sBPp7biynmFspU+i3lY3RB69UUGc6tjfI44tvZHppjULhm/e9psYe5hhc+aCt0zmzR+AMYNikh7e3BueHhZz4baPJ3PN19cNCLnDTSB8T9HC11fjkKuqHhZwvTqNoZoMM70tmy2r0AW3ebm3d1JOilqUkBM4Ahc3G6AU9vL2/iJOPC74JnbPLa4xoY9eOyNhCnrIB35ldXgvs8pD9hfJK/QIMG2f2CJwBCZuNUU1GL/bPD6HzxqO3aupJkS8TO4bNyccFHgR82a5T7+1duliTHxZyYtfadgKnS8Jm3DLlznefG80Om4xqEjrdUL5B2AR0Gl/MU+8dQLGm6mvbbWjvAh843RI2Zy4cs2W9Jmuymhs6vbarmbAJwiaCZvTBq8BvimxGe9fs0BnowOn3sDm7vKZYt9LsXvMb8coB8XPP1wmbIGwicGGTQRZ3hs7ABk6/h00RYZG0Tc90fPENgQKelcpVKBsgbEJ76Axk4AxC2BQRibWzRNcO6WJN3Hz3crpQVX9noTx2UL/G9A0PAoRNaA+dgUskQQmbIiLDJzqMRKSNt8UGt5dWxa0Hw4//yhEg2KVscDwMfNquEzbtD52H3cNwJGiFMihhs+HW+ahhmQZviy0v4FsXBoq84lB37GTqtwKNMmjXcagO62EGWo5QKPUZ7A1pDZsN1wd6eFNskC7WXHVU0uzyGjszsaNktqxmn63zIOArXtsYGbdMSUTadvxPLNzi+p+/WFMy/uvBl+SYhE09hvrCMjHQ48hQ42Bvu+HGXmBjut9qNeS01brj/yeVq19F9rRYdeVU4O1/u+Ou5UyppkYfvKYFwo4mH73lIcBfHf5CVY3+0711XiLSJolom3wVaZVENGSIiPxrj3V5uliTdLEmqdyG667jzJQ2ZexhTt06H913nvF94Ax62GyYGOgxLt9/6ch0ayzcIolIm8Qts97D28fL9+GL+EtuQ1L5qtzLll0RQDOlTZleWlVX+7sMZ8s5V1ZiZ+OLeUa+4b9y/av7Nr8N9obk4vGQDJ/oMP51wD8jFv7zGri55+vq3suKuOU9TuU3DtTu+TpwEjb/6OaXR0VXjzBumTLUF5bB3pDEwqbxc1OC6x9fxGS2rGaX1x3vATpdxrxyBJJl/j6SnYjuvpntabEqxaqS1do7Li04bMOQq6ixhTxlA3SibCy735/qlOG+domFTeOmDZ8xfKJjq+2bXlpVPy2vOT7A0Ng4u5/bEX0bOAmbO4TA7lZjemnVtmsuY+EWGTnZsRUyZ2zvTbYbIvWplaknRceCZ6a0KXPP19X2SkEntx6BFLdMudjb/ocppTsH+HPSharKlDe3ppcIGvuoB13aEdlayxZt23qP7xzo3XP39COab3Z5zRX3ozeC5tX+LuOOxs9tjCq6IXjud5TZl4HTDSM+bgub2wtrs88rS0TaZORUhwz2tjdlJPMgQVqkPuI5+eitIy/g/ErZke9z6reCqzaDxC1Tvj/ZsTWlNNPE7/fDdzyVrwq7U3dnZ+fSLR3SnaYfk9mySmYrrll2g2Z27t2xVr3Rvt9x8GdoBE8nR3v3u6TMd4GTsPlpN88dldEHrw9dGScibXK1v1MS0ZBxywW/V2OkxIkDgFP5DcmUamqnBtDOyvfy/VeuKFPby8KMhs/bPpo893xd/fRsnZHPD/y0vOa6svGzxnqgUTbmV8qMfPqE02vVY+EWmTjbvTVj4472PGI4Odiyn6l1Xx2LRNjc+6jA385YB/7345Ypt76OyK3zUcNNL17DzIVjxlBfWPvnzi7rHWmcXnI+UCQibY6XheETHcbMhWPGra8jwkUHjbKxqpwe3XNDPTF8osO4dT5K2fCBZLasnOw4DPaG5Odvj7uyzRvsbTfufPe5Yxe97HWJg28CpxvC5vWz3a4Pm9sr4sHe0L7+Hcs05PrZbpm5cMyVL912EwM92kNn8qW+aY1MqeboGmXLNOTaGctVnY5ENLQVLrxwpp2dnB7dvNLf5ap6YnvZIHh6k5PrNq/0d8nNcxHXt+23zkcdGWxJ5TckmS1/sofri8DplrDp1KaRg7p5LrLnW4iG+sJy57vPDS/9jhMDPUbc0rdqJFPalExJz7CSk6ObccuUH7+OysipTleWhUQ0ZPz87XHjSn9XIBtmJ0c3Y+EWmfnmM3H6mLBPBc9rZyzhBjZvlWmnblC7frbbteV5t3bv+tluV3YIPB84CZuHDZ1HP9mA3Po64pmR251+P50Ni47F206ObiYibTJz4Zixn6MwnHK1v8uY+eYz0dnpcAOnRjfjlik/f3vcE2Vj5FSnMXMheGWDMh2Mtn34RIf20Nk4rcW3gZOw2Zwe/8jJjh3/2ZX+LteuWdmrWNg0dF7tqWONke61og1DfWE5yO0STop3txozF47te/mIV80urzkyuhm3TEeu7T1s3eDUem/snVMj9l5v24dPdBjXDrFX4yA+dfOeZwMnYbN5rn3R/YfFxnHLdPW02H4N9rZrW0zduIrTTk6MbnphM9zH3DwXCUSwcOKILC+Gze0mBnoCu/zCC5wY3fRL2z5yqlNrvfepUU5PBk7CZvPdOh81fv72mMx885lnpkz342p/p5bPKdaUres4556va+/txy3T02Fze7Dwc+hMZsva17l5PWz+Xj90ObLuDR/nxOjmyPtzhP3yDHXvZfjYmdSeC5yETfvEwqbvgmZDIhrSNspp53mQP2kewbJMwxeBIgihU/fId/3Uih7fPL/hEx1Mr7uM7tHNRKRNrn3R7bs2UOdehlR+Q9KFqvJ84HQ6bDaOBfJj2AyCob52TwfOxjV+uisqv9Hd49dF920jfztjid86qBMDPYFZ7+uF9l7n6KZlGp5bo75Xuvcy7La054iXCp/TYfPHr6OETQ/T9d3ZtY5T92ahkZMd4uUNY27p8Wup4JfXtM47DvaGfFsX3jwXMYJ+jqsb6J7N0RnInKBzL8O9bNm7gdMtYdOv081BomP0YrX2zpY/V+fB8pZp+HJqaXuP/2+ad3DaSed0euPQfz+bYD2no9KFqtbZnMHe0B+uRPVtuR7QU66LNbXjQfCuD5yETTTTaavV/srShooyXahq3RDyN58HCpH6iLcfbp3RvdTi+1OdEgv7+9T0RDTE1HpAOlAi4vsO1PaOtq51yjt9h64OnIRNNNtXkVZP/tw6Rzdj4ZbALB3RdXqBnX7J6btf2jIN3xyXRgghcIrUlw75vQPlRJ2309Iy1wZOwibsoGtNYipXaeqaut3WxNjhyl86A1UevD7KeU9jZ+T7U8EpGzpHg7Ctc50ta9ss5PelQ06W652m1V0ZOAmbwB/pmjIN0uhmw8ipDo830HoCZ5BGNxuGNZ1sge2ddX0j9hd7g/n96irXH36XrguchE3gz++Ers8K4oiOl3erN3skncYZjnegNI7Y+2FJzUEkoiEtJzF8+F26KnA6HTbrt2Z8Rtj0+8vmsSnUVL7qu54vmuMXjWVj5GQHDxy20rk5crA3FKi1m3/6/Y/bvykuU9r8w817rgmc7gibx4wgF8CgsOvYIruCwNOinlAR9ArYi3RNP8bCLXTEoaFzrXE6/XiwTyHQdQrD9k2NrgicbgmbvO4B6UVrvq3HKz9v0CtgGujdsXkGfgucQb/ERdcG2qfb2i/H73cjbMKWiuv92rZ0sSbFmno/tL8pq7V3ngqcqVxFjS3ktXzWV9E2Co6XOiKFqhr952stnzVIZwRa6js9gXOwNyT/4nFL3DJtbw/TbgmcOitMwqb/AmWxpiRdrMlqtR4it4dJXSHNbrrW6MUtk+l0rwVOTUstLNNgOh22y5Rq6vL9V1o+6+LxkNzkkctpq9X2wLl91NqxwJkuVNUPCznCJj4aKldKm5Ipv5OnxaoUq2qr8PolUH6KrvWbiUibzFDkPFY29IzUJ6JtcofHDds7UPpmnpjNqdOxU72R9+LdrYYjgbMRNnUd7krY9E6wTOU2JFOuT38HJVS6oRJOUAFTNj7SGQH8Up4t02A2R7NMuX7ygPbA6XTYTETa5Nb5KIXNwXCZLtYkXazJ02JV0sUawfJjL6qmI0LilsnD9hhdo9+UDehpG/Ss3+xqPSLTS6uKJ66vfWl0JrTWJE6HzaG+sEwM9BA2NUpmyyqV25B0sSap/Abhcp/vi441zvT4vUlXPaprNysCHn7KesJPprQpt5dWeeAOBFttgfNpsSo/La8RNn3fS62oZLYiqXw9ZI4vvuGhHJCO80JF6gvHWaPnvfdMR+ctbpns5oXWUAIC56Hpuu+XsKnf3PN1de9lRVI5RjCbSecOdXiLro57l3mEhw0NgUTfDnU48P06tYaTsOkPyWxZJbMVmV8piZPnqKIJoaKVUOE1bCaDvwIno5tB+H59HTgHe0OEzSabXV5Ts8/WmSrXQNci+q8irTxsAI5xaqkd9PJ14PTaFYbu7Z3U1OzyusyvlGTqSZEHAtAZAWirsffvuFBVvg6cmdKmjD3MKY5BOnjQnF5aE9bW+Juuw38BAMG0Wnsnvl+8lcpvyNRvBcbr92l6aVWNPngt8yslHoaDZVdP4ORIJOyMTUMAmiUQtcnss3WZe75O6NyDZLasLt9/qW4vrbKuBnApXWcWcoc6tJRnNg0ROP1k8nFB0oUqCeojxhfzanzxDS8/QAMNUJ7RNMWakkDNl/ywkONb30EyW1aX7r5QTp6VCgAA/CldrAUrcBZrSkYfvGKUc5up3wpqfPEN0+cBlYhwziIAwH6BWxGeLtbkxqO3pCsRGXuYU7PP1nkQAACAwNls8yulwG8iGn3wSunaBQ0AAAicgRTUTUTpQlVduvtCcdAuAMANLA5D8L24ZUqgD1kL2iaidKGqfljIsV4TW54WqzwEAI46bXGjle87FaYR7MAZtE1Ek4/fEjbxp3cAAAC7Bf4aiaBsIhp98Crw0+ixcAu7suGb0QIA8BKTR/D7JqLhEx2+rMVvPHqrgnBFZdwypcs8Uv9ra/2vlmnIaavV6NrWQH/z/14wrAdPO221Cpv+QAcKBE4PmnxckFSuohLRkK9KfjJbVuOLb3wVKmPhFjlttUqs/Yj01f/7HwKlX8TCLdzAAUf5sU6EO+t1+FuXeYTAuV39WseaioX9k14mH731bNiKW6actlrrIbO9RU4HrBsca9cTOAkVAAC7WKYh8e5Wg8C5TbGmxE+jgeOLeU9cV/l+2lsS0Tb5KtLq2xFLoJkdMsnb/zkrjLBDg0Q0ZPz1H/9hqZNPw+bNc0clIS6cUrdMQ670d8n8Skmc2OTS2EQ0MdDj6cSTylXU2ELetT/fYG9IEpE2SUTaAjdy6bZQwZmsHi0bGmTK73jY8JW4Zcq1MxYPQoMu84jEu1uNxPu/d1XgtExDfvw6KvHuViNTqqnRB68dObZlfqUks8trauRUp2eD0PTSmus6Ehd722WwNyQXjzN966ZQwdFI3hw10BI4GeGEJolIm5aNcMWaEpYQOcM1gXN72Kw3tqbh5Cjd1JOiZ9e2uWl0c7A3JEN9YULmQQJn+xFN5YXdzl6ja5MFgRNaO9h5yrSfueIczg/D5laPJxoyrvR3OfZzNTYRee1LnX227vjPMNQXlp+/PSb//eVRg7B5MH2aRjhXa0ybek2XqakzwtFL0Bk4NUnlKkzrBDFw7hY2G672dxmDvSFHfjYvbiLKlGqObhQa7A3Jz98ek+tnu43/1d5C0PRABcwaTu/Zrb60q07hicNuX0X0XW/5S54rfQMXOGPhlo+GzYab5yKGU+d0ee0mIqfCZmMn2n9/eZSg2bT3Q99mKnr8dEjokMBJOpevsYwoYIEzbpny87fHjb321K+f7XHsNoLGJiIvfKFO3CgUt0z5v98eZ+rcjkpY01Wc9Pg9GDjb9QROGmfobEu0lGmWigQncMYtU2YuHNtXOIl3txrXB3oce1BTT4qSzJZdHTozpZr2+9KH+sLyf775jHMz7QoVmkaxnhYJnJ7rjET1dEZonOG3DraIyNzzdWZ1/B44DxI2GwZ7242Rkx2OPazJR28lXai6tpD+onkkYqgvLNfPdpM0fdDj98IFAXCmbDClDr91okRE7r2kzvN14DxM2Gy49kW3obMXtF2xpmTysXuvikxpnBZ9f3guYdMnoaIeOsv0+CkbO2I0CDoM9rZra1OS2Qob4vwaOBORtkOHzYZb56OGziMUPuztjy/mXVlIdZ0v1tggxDS6jh5/SGsFDO+IhU1t9SCjQfBlR2qlzAP3ZeBs8lD5zS+POvbQktmKTC+tui506lprdaW/S9iJrjF0ahrRv5el8qVxpjMCZw31hbV91k/LazxwPwbOple03a3G9bPdjn3+7aXVQE5BxsIt8v3JDsKmzsCpaV1TsaaYVqczsium1aGDznO3izXlysEjAqcLDZ/oMHT2hj7kpk1Eus5RdHLTVlDpPBDZiWO14I3A+ZMLbjCD/8XCptZztxnlJHDu2cRAj2OHwrt9E5HXe594HyqiIUPXGbRBXEjv5TNI492ths4D4IN2QQA79J2hcyCpWFMy9VuBUU4C597cPHfUsUPh3byJqOmNm2WydtOx0KlvJGt6KVg9fq+PcOgc5Qxa2ZhlVNcRugc2Zp+tc9sagXNvYmHTuHmOTUT2P+cW3hiHXDyurwKeXykFZpRzemlVFT3+q+psnFP5jcA0zHPP15Wukz/w5zZdd+i88bjAgydw7rGXHw0Z185Yjn3+7aVV3y+qP2218sY4ZPiE3o1aU0+Kvn+mmVJN+WH91mBvu6Fzhicoo5x/D8A74Ga692dkSpty49FbRjkJnHszcqrTcHKN4d+fFF19ExG8Hiz0le1ktuL7kawbjwpS9MlA7sXedm2flcpv+L5zPb6YV0XOBHe8I6V7Vm1+pcRpDATOvbt5LuLoJqLxX9/4trAwveRwqDjOFFOzTC+tKj/dEa67o+3n0b+55+uKc0fd4cpfOrV/5uTjAgNHBM69u362x7FNRJnSpow9zPmysD4tVnljHKR7Wt2vU0zJbFndXlr11e+ke1q9WFO+rOfShaqaZC2fq+o8J9ryHxZyhE4C597Eu1uN6wM9jn1+Kr+h/ZgFHVMP6WJNVplmcpTudU1+m2JKF6pq8tFbykaT6jk/bZZMF6rqh4UclYzLfH9K/yhnsaYInQTO/fX4nTykfPbZutaGOhbW0w3kJhqHe/x97do/c/JxwRfrORuBwq9r80ZO6a/v/LJZ0u9lw8uu9nc5MspJ6CRw7su1L7oNnWfUfUj3JiIda1dv/9vbO1SferxFSURDhhPHU40vvvF0xTv3fF2N/vO1rwNFLGw6Ut9NPi54OnQms2XCpstd6e9y5HMbodPPG4kypZoaX8yrv/7jP+rS3RfKzlmLI34vqLfORw2nzo/UvYlIx++ZKW3K/ErJky/f02LNF1NmTiykb1S8XhzpnPqtEJh1eVf7Ox35XK+GzumlVTW++Iaw6XIjpzodbccnHxd8eRvR7PKaGn3wWhqb5Io1JbeXVm1bu38kCIX15pfOHQqvcxORrnMy//6k6Lm1nPMrJd+McA2f6HCk8i3WlIwt5D0TLNKFqhp98EoF6bYYp0bAG6FzdnnNE2UjU6qpsYc5320e87OJs93OhrNn6zL64JXyw6UYqVxFjT54paaeFHdsE+dXSra8y4EInPHuVuO6g4VV1yairyJ6Auf70S5PvHSrNSX/9esb341w6d4g8mGwcPvu9emlVTX6z9eBvAvbiRHwhqknRddf9Tu9tKpGH7wWPx2LFZTOlJPnbIvUN85evv/Ks5vlGtPnYwv5T9aNU0+KTR9cOBKUwjp8osNwspHWsYkoEQ0ZOl+8ycfunmK497Ki/vf9l748U8+phfTbe8CX779Ubptin11eU5fuvgj0yJVTI+ANyWxFLt19ody2wXDu+bq6fP+lur20yhS6R107Y4mT9V7D7aVVuXz/pfLKbE+mVFM3Hr1Vl++/kv20h81eKnMkSIV1YqDHsUPhG1+e3RsvdPYA51dK8l+/vlFum17/n/yG+mEh7/u1WU4tpP+9EtuUsYW8jD3MOTrNlCnV1PTSqrp098WuU0RB4+Qop8j79euLb2TsYc7xTsns8pq6fP+lmnxc4PIKj4uFTcPpem97/Tf5uODq4JnKVdT4Yl5dvv9K5ldKB84tzfr9jgStwN48d9TRHpLdm1Z071JNZivyw0JOuWH39//kN9Tk44IaW8gHYrrMyYX0f6jU8hty+f4rGV/Maw0Xc8/XtypTRq3+aPhEh6MndGwvG41Oic4Rz2S2rG48eqv++o//qKknRYKmz+o9N5TtnYLn9NKq42s8M6WaanSyxhby0owZvmaFTkOkvqbF7imoK/1dcrW/y3BDAUnlKmpsIe/Y58ctU2YuHLPtWfz1H/9xpMBf6e+SkZMdRpfmQD+/UlLzK2VXhUxd5T2ZLavxRXddpxoLt8jg8ZAM9oaauswjlauodLEmqfyGeG2ZRCLSJrfOR7W+GE7XczuxTEOG+sKSiLbJYG97055HulBVqfwGZeMDfm7bL9194dr77uOWKUN9YRnsDWk5I7tR/udXSrauW79+tvtQN94FMnCK1KdZphy8D3ioLywTAz22PI/xxbxj6xYt05DvT3XaHjzvvayoZLYi97JlV45s6SzvYw9zrr4XPBFpk0S0TWLtR6Qv3CJB5DxeAAAQIklEQVRd5hGJd7cau4UkkfqUbLpYk0xpUzKlTc+PWDsROEVEbjx6qw46labrucQtU2LhFolb5kfLRrpQVau1d5QNAqdrO1S7dcAb5TxumU3phG/vfKdyG1rbwMOEzsAGTqeDWTN6C25/EYf6wpKItMpgb/uhw+f/5DfUL/mqpHIbnmhgdJb3TKmmRh+8ZkqZwLkjN48EgcDp9t/ProGZxjGGieinlwekcvU272mx6op6/qDZxQzyi37zXMQYffBKOXV0SmMT0W49+gNXYNGQcfn+S+X0uqX5lZLMr5Rk8nFBxS1TTlutEgu3bI107WSltCmZ8rutlyxT3mT91Sd70Kbh1YoXGhqHgR5x27ILoBmu9ncZTg8cHUSxprYGTrw4Qt9Y07nf0GkGvcBeP9sjTl5rZtcmoit/6RQ3nT2ZLtYCeSaizorX7VPrcMZgb7snG2VgL5weOAqqg4TOI0F/aPHuVuP6QI+jPZ3RB6+annaHT3Q4egQU9JsY6HbFGXVwZ6NM2YBfzVw45ooTO4IaOgmc+xwBGDnZ4djnp4s1W25uuXbG4ssNkFjYdLTzBLeHzqM8BPi3fH95lA63y0MngbMRzr7odvRsr/mVUtNvIkpEQ47eroTgdZ7gXoloyKATCr+Kd7caP34dJXQ6FDr3cqkNgXObW+ejjg7LTz4uSLMPzp4Y6GEqjc4TICL1Q7PphILQiWa7/e9Pb1olcH7g5pfOTjuNL76RZt9UwFRaMDtPrOHFbp1QygYInWimvWxKJHDuUFivn+127PMbdxA3UyIacs39s9CHhfT4WNkgdMLP7fid7z6njGs02BsicB7E8IkOR6ed7NhEdLW/y9hLgYC/sJAehE4EuYyzvEhDwLdMufKXTw9qETh34fS00/xKSWaX15o8tR6hgQlgT5/pJRA6EVS3zkfZSGmjob5wvR7ZwwU2BM6PBjRnR4emnhSbvomIBiaYoZPpJVAnIKiufdFtON2e+41lGnLz3FGZGOjh4PdmiIVNw+kNN3ZsIqKBIVgAH5YNltzAzwZ7242ZC58JdWAznmVI7nz3uTHY276vBE/g/ASnz66zYxMR4SPYwYJjcf7cU0d9yQ2bC+FnsbBpzFw4Rjk/RF1589xRuXkucqBKk8C5ByOnOh3t/dt1ExHhI5gmBnqM62e5BlNEJBFpE25n+t3V/i6mHt+LW6Y4eWIJ7C3nM998Jmwo2kcOOtlxoFFNAucBe/9+20S0PXwEp4fLMUEi9ZMYfvw6GujppSv9XXLrfJSLET7QmHoMcmM8crJDZi4cM/qoL/zboehuNW6dj9L53kOnfOabz+TaF92HfkgEzn24frbH8U1EyWy56aFz+ESHMfON/9e2jJzskJ+/PU7Nsq3CbUwvBanCjYVb5NbXEbna30VZ2PUZmcat81Hj2hkrkGWjGY0rvNP5vvPd54GrB/f6Ltw6H93TDvS9YBHfPhvoZLas7FhTuVeTj95KulBVzSoA2383EZHppVV1e2nVV99bItIm185Y0uxn5hdX+7uMTKmm6h2aiq9/1yv9XXK1v8v4ma99b520U52GiMiNR2/V/ErJ9x3Sa190UzYCXA822sCfltekWFOBfA5xy5TvT3bI8ImOpr8LBM59GuxtN5wMZcWaksnHbwkfewyaV/s7JRENGbcoup/ozda79qlcRU0vrUkqv+Gr32+oLyxX+zu3fk/sz8RAj+HXspGItMnEQDdlA4EOntvbyxmbPoPAecACOfYwp5yqeNPFmi2jnH4JH0N9YRnua3c0aHp1aiYRDfkqeG4PmhNUXZQNOqTYZ/Cce76ufnq2LulizXe/o2UaMtQXlpFTHfVlNDZ/nikiEmu3fynn4HF/nfF263zUGH3wSjlVCC0Ns8PbG5i5lbK4eUotbpnvX5xO418iMvGJEGL37+L1Mw0b3326UFWzz9blXrbsmZ7+h5UoQdOespEp1dT00prnysbF3vatTojfg+ZXkVa5reEz/Gz4RMdWXTi/UpLky4pkSpueDpkXe9tlsDckg73txh0Ruabps7dSi13Dx5ZpyN/OWFtfmt/cePRW6axwnXyemVJNJbMVmX227ooXLm6Z9RfneGjf6zPtWpMWC7fIlb90+rK8zz1fV/deVly51OLDSnQ//24qV1FjC3l7Q1qkTW6dj/p2ytbNZaPRAbx4PLTv99IPZcPOtv37U52B3HzXCJ+p/IYnRj5j4RYZPB6SRLRNDnOsUdMCJ7DfFy75siL3smVtL1ws3CKJSJskIq3yVbSNNVcOB4xUviqp/IZjnY+4ZdbLwyErUQJncyWzZZXMVigblI1AyJRq6pfchjhdH35Y/k9bra5rK1nDiYMV6A9GFJPZskoXa5LKbUimvHnoly5umRILt8hpq1Xilvn+7012kLrE9pGiTKmm0sWaNPP7/3AkpVEOYuGWepiIhox/icgMX4XrfBjwGnXD02JVMqXNpnZQG2WjUS4oG9BtpzCXylXUL/l6ec+UNuVpsWrLLGjjrNxEtE1i7UekL9yyVf7diMAJWxoZkfoo6GrtnayUNiVTfvfRRqNxBmgs3CKxsOnaFwZ7q3AbQbQRPNPF2p4q3Ealub0siIjc4TH7qm6gbMDPGuucd2sT91PuReoDMI2NqF3mka0BH6+1kwRO2IZzLwmiPAVQNgDaRBFuGgIAAACBEwAAAAROAPCoX/JV2z/DYnUJAAInAMBOp61WHgIAAicAANAv9n7nPUDgBAAggHRcakHgBIETANAUFqcAeZJX7ogHCJwA4HI6rqJrXGwA0BkBgRMACJzAlqdF+08woDMCAicABCFwlu0PnLtddQd3K1aZUgcInADQjMDJCCd2oWOEk84ICJwA4HPpgv1DWEyZehebhgACJwAcPnBqGMHqMqlmvSiVq9ieNhORNh40CJwA4HdPNZyzmIgSKryIK08BAicANEUqv2H7Z8TaqWY9WTZy9pcNrjwFgRMAfC5TqikdN8n0cZMMnZFdfBUhcILACQC+9ouGESwRdiF7UTJb1rJbiGstQeAEAJ+797Ji+2ewQ92rgdP+shELt0gszDVDIHACgG9lSjWlI1SwC9mjnZFsmc4IQOAEgMOZWylr+ZzThArvlY3n60rH+Zt0RkDgBOB7qVxFTS+tKh0Hn7vRT8trWj5n+ESH56ZM04Wqml5aVTrOoXSj2//WUzYInAga1o8AATP2MKe278Ad6gvLxEBPYOqC6aVVdXtp1fbPiVumzFw45qnneuPRWzW/UvL073AYc8/X1eTjgu2fY5mG3Pnuc9pfBAojnECAjD54pT487mV+pSQ3Hr0NzGiWrtFNr41gfRg2RUTSxZqMPngVmLKha3TzYm87lREInAD8GzZ3O3cyKKFz6reC0nU/9lBf2NNhc3voDELZmF5aVZnSppbPGuwNUSGBwAkgWGEzKKEzXaiq2WfrWj4rFm6ReLc37i38WNgMStnIlGpK18h3PXC2M50OAieA4IXNIASL8V/f6AsUx70xgrWXsBmIsrH4Rhj5BgicADSETT8Hi/HFvLbpUq+Eiv2Eze1lw29rOm88eqvlitOtzgjT6SBwAgh62PRjsLjx6K2WQ94bvDCdfpCw2eCnjURzz9cP/BwOwjINptNB4ARA2PwwWFy+/9LTZ3UeJlgd1MjJDt8/k3SxJpfuvvB02dB1BNJ2TKeDwAmAsLmDTGlTfljIydzzdc8FCyfCpmUaMnKq0wjCMynWlIz+87XMLq95rmxML61qD5siIiOnOgQgcAIgbO4SLCYfF2R8Me+ZYDG+mNceNkXcfb6iXQF86klRxh7mPFM2bjx6q+Xg/w8N9YUlFjaZTgeBEwBh82OS2YpcuvtCJbNl14aLVK6iLt9/qXXN5nZX+zsDFTa3nnt+Qy7dfaHcPNqZLlTV6INXjnRERESG+zjsHcFGbwsgbO5bItIm185YrtkckynV1PTSmjgVJkTce0Wo7qUFiUibXO3vlEQ05JpnMfVbQdsZrLs9k1vno7S3IHACIGweNGSNnOxwLHhmSjU1t1KWn5bXtJ2juJufvz3muilTJ9axuil4Ti+tKjeUjVtfR1wVwAECJwDPhM0Pw8VQX7sMn+jQUqcks2WVzFYcHdHcbuRkh1z7opuw6YKy0bhR6l627HjQbHTK3DjyDRA4AeyJE8e6fIplGnKxt10Ge0NNP2+wETJT+Q3ReYj7Xn7nO9997qq6NJktq/HFN4EqG6nchiRfVlxXNmYufMZmIYDACXjX9NKqI7tt9yMRaZO4Zcppy5S+cMsnpxUzpZrKlDalWFOSLtbkabEqmdKmuGEUdzfXz3ZrG73zU9mIW6YkIm31g/ItU2Lhlk8Gs1SuohplI1PalKfFqqvLxpX+Lrna30U7CxA4AQInDheo3bgZZHZ5TU09KfIFORyoZy4co40F3uNYJMCjhvvaxWKmzjGWacjEQLcrf7aRU50GZcNZ18/28BAAAifgfbGwafz4dVRi4RYehgP+dsZy9dq8O999bsQtky/KAW46MgwgcAI4tHh3q/Hzt8cJFpoN9YVdt25zJzMXjlE2NBvsDbn6elPAKbwUgE+45Ygk34d8D67Nc8sRSZQNILgY4QR8YubCMWOoL8yDsFH9mBvvBYqJgR7KhoaywbpNYHf0xACfcfoaPz8Hih+/jnp6bd7c83U1v1L2xM+6WnsnXhmx90PZAAicAA4ULNx2KDxh0x2S2bKafPTWFbfw+MXNc0ebfpg9QOAE4AnpQlX9sJAjWBA2dywb47++cdWtPF7lxoP/AQInAO3YTETY3M34Yl4lsxW+aMoGQOAEcHis69y/uGXK9bM9vg8U3EpE2AQInACaJpWrqPHFN0yx78Fgb0hunosEpn5kin1/HRGOPgIInAA+gWnUj7vS3yVX+7sCWTcyEv5xIyc75NoX3bSbAIETwF4ks2U19aTIiNY2sXCL3PzyaOCnSVO5irrxuEDZ+KBsTJztlkQ0RJsJEDgB7BcjWnVBHtXczfTSqvppeS3wSzAY1QQInACaIFOqqRuPCpLKbwTud09E2mRioFtiYZO6cJeyMb20JkG8FjMRaZOr/Z2MagIETgDNlMpV1PTSWiCCJ2Fif9KFqpp6UgxE2YiFW+TKXzo5WxMgcAIgeBI0nSobcytlX454xi1Tvj/ZQdAECJwAdGpMp97Llj29js8yDbnY2y4jJzs4N7GJZWN2eV3mV0qeX+M51BeW4b52OiEAgROA0+aer6v5lbKnRj0He0Ny8XiIESsNZePey4p46agtRjMBAicAF8uUaiqZrUgqv+G6gNEYyUxEWgkShM8/lY1EtI0OCEDgBOBFqVxF/ZKvSiq3oX30M26ZctpqlbhlSiLSxnS5i8vG02JV69R7LNxSLxOUDYDACcB/0oWqypQ3JV2s1UNGVUmmvHngQ8QTkbatABELt0jcMt+PVrHezmsypZpKF2uSLtYkU6qXicOUjbhlSpd5ZKtsxNqPSF+4hbIBEDgBoD7ytds/q4cHzsSkbFA2AAAAAAD78P8B2hu62gUtTm0AAAAASUVORK5CYII=;" parent="1" vertex="1">
          <mxGeometry x="20" y="227" width="129.46" height="50" as="geometry" />
        </mxCell>
        <mxCell id="WauHK1ZiTlTc2SndrFiC-8" value="" style="shape=image;verticalLabelPosition=bottom;labelBackgroundColor=default;verticalAlign=top;aspect=fixed;imageAspect=0;image=data:image/png,iVBORw0KGgoAAAANSUhEUgAABLAAAAKICAYAAABg2AM1AAAABGdBTUEAALGPC/xhBQAAACBjSFJNAAB6JgAAgIQAAPoAAACA6AAAdTAAAOpgAAA6mAAAF3CculE8AAAABmJLR0QA/wD/AP+gvaeTAAAAB3RJTUUH6AcHAjsVS98IWwAAgABJREFUeNrs3XeYVNX9x/HPuTPbgF2W3hVBVEBB2KUsoCIae4vdWBILYIumm5hG8ks1RhOjwoIVSyLYEgvW2KjCIiCI0nuHXWDbtHt+f2ASG1un3Dvzfj1PniQ6c+fcz71z59zvnnOuEQAAAIC0Yh8eXRgK1XRwFWjvOG6hcVVgjdNasq2tsQXGNfnGKN8aFciqUJKsVGhkjKR8yQYl5UnK/cxmcyS1qONjKw5sRpIUkVT56f+ulUyNZCtkbEjWVMlon1wbkqP9RmavtdpjjC13XbM7YGx5zNWeXCdSbsaX7eVoAgAkyRABAAAA4H324dGF4VBNVyt1s3K6OMZ2t8bpLNkusuogqZ2k9p/+d1aa7HZU0g5J22XsVuM6O1yjLUbabqy73Q0Etsg163O3BreYCW9HOUsAIH1RwAIAAABSzE67KFCzc11Xk53dU9b2dGQPk7U9rdRTcrpJtrvqHv2U6aKStkhmg5G7zpWz3kgbZNw11nFW5m6avdFMkEtMAOBfFLAAAACAJLDTLgqEdm09VMFYH1lzpKx7pBynj6ztJekQpc+oKS+qlbRS0koZu9K6ZqUCzopc4y4z183ZQzwA4H0UsAAAAIA4stP6Z0cqWveLye0va442VkfK6EhJvXVgHSl4y2ZZLZXREmu1NGDs0qzs3I/M1W/XEg0AeAcFLAAAAKAJrJUJPVjS27hmoGT7W6ujJR0tqY+kIAn5WkzSJ0Yqs0ZlbswuyGtZvchctaSKaAAgNShgAQAAAPWw0y4KhPdsONJVYLAxdrCkwZIGSSognYwRk7TcSGVWWuBYZ27WtqxFLB4PAMlBAQsAAAD4gtrSEb2tcYcbOcMkO1hWx0pqSTL4gipZzbNGs4zRrJxad465Zd4+YgGA+KOABQAAgIxmHxyZX+vaIY7rlliZYZKGSepIMmiCmKRlkt41Rv/OjgbeNjfOLCcWAGg+ClgAAADIKFWlx3UJ2sjxVjpexhwnqZ+kAMkgAWJW+sAY+6as8+8chWaa8WXVxAIAjUcBCwAAAGmtZsrQwxQLHOcYnWCl43RgkXUgFcIymm1c84qMfTln/JwPiQQAGoYCFgAAANJK5X1DOgcCWSc7xp5sZcZItgepwKM2SJohY1/Oya1+k6ccAsDBUcACAACAr9n7RrcKBcMnSPZkSSdLOppU4EMhSe/ImH/GAub5ltfO2kIkAPA/FLAAAADgK9bKRCYPH2Sl0601p8pouKQskkEacY00zxo9q2jg2dwbZ64hEgCZjgIWAAAAPM/eM6wgnBv4mqw9w0qnS+pCKsggi4zRc7KaljN+zsfEASATUcACAACAJ4VKS46y0tmSPV0yo8QoK0CSFkrmSde1/2hxw5zNxAEgU1DAAgAAgGeEJo/s71p7kZG9SFI/EgEOypXRHEnTI8Hgk/nXvLeTSACkMwpYAAAASBk7rX92aE/BGBmdJ+kcMTUQaIqQZF+UDTyU07brq+bi6TEiAZBuKGABAAAgqezDo3PD4dBprtHFxupMSQWkAsTNZivziJEezh0/ezVxAEgXFLAAAACQcPae03NCueWnGquLrMw5omgFJPxrJ6N3rMxDuZX2afO9OTVEAsDPKGABAAAgMXfP0y4K1JZvKDFyrpR0iaTWpAKkxF5JTxnH/iVn7NzlxAHAjyhgAQAAIK7CU4YVua65SjKXSepAIoBnuJL+baTJ2W26P8taWQD8hAIWAAAAmi1UWnKUa+zlxprLJR1GIoDnrZK1E3Nych8yV79dQRwAvI4CFgAAAJqkcsqwTkHrXGqtrjBSMYkAvrRf0gM2YP6ad93s9cQBwKsoYAEAAKDB7AQ5oa7Dx8iacZLOk5RFKkBacGX1smvsb1qMnzuPOAB4DQUsAAAA1Kt28tAjJOcaWXOVpC4kAqQxq3/LsXfmjJ37ijGyBALACyhgAQAA4KvvYR8enRsOh8620jhJJ9F3BDLOh9bqzty23Z9gwXcAqUYnBAAAAJ9Te//IIxWMXW2tGWuktiQCZLxl1uoOClkAUokCFgAAAGSn9c8Olxecy2grAHX4yFr9MXdbzpNmwttR4gCQTHRMAAAAMlht6YjeksZJ9mpJHUgEQAN8Yoz9RfbYudNZIwtAslDAAgAAyDB2gpxQ55GnSe4tMvqaJIdUADTBQhndnjtuzqtEASDRKGABAABkCHvf6FahYPgbkr1VUj8SARCnm8rZrjU/ybt+9rukASCB1xoAAACks5opQw8zNnizrL1WUmsSAZAgzxvr/jTn+nkfEQWAeKOABQAAkKZqJg4fbYy5RUbnSAqQCIAkiMrayWET+WXB+LJdxAEgXihgAQAApJED61sNP9NIt1tjhpMIgBSpMNb8ITvc+i/mlhkh4gDQXBSwAAAA0oC95/Sc2uyKS4zR7ZKOJBEAHrHSSD/NGT9nOlEAaA4KWAAAAD62/6HjOgTD0ZuNMTdKtj2JAPDmnad53Rj31pyxc5cTBoAmXUaIAAAAwH9qJg7vaRznR5L9lqQ8EgHgA2Fr9edcE/6NGV9WTRwAGoMCFgAAgI/UTBl6mHGd70hmvKQcEgHgQ5ut1e1518+ZShQAGooCFgAAgA+EJo/sL+veZqXLJAVJBIDvWb1orf123g1z1xEGgPpQwAIAAPCwcOnwwa7MTyWdJ8khEQBpptrI/ip7a+5dZsLbUeIAcDAUsAAAADwoPGlksWvcCZLOoM8GIN1ZaYEjXZMzfs6HpAHgq9AZAgAA8JDQxBFHW8f+QtKF9NUAZJiIjL0rp7bNL80tM0LEAeCz6BQBAAB4wGfWuLpcTBUEkNmWOsZckz1u9nyiAPAfFLAAAABSKDRpWD9Xzi+N0YWicAUA/xG10p25bfb90ly8LEwcAChgAQAApEDt/aN6mUD0V1bmG6JwBQAHs8gY54qccbOWEQWQ2ShgAQAAJNG+0qL22SbrB7LmO5JySAQA6lVrrJmQvW32n8wEucQBZCYKWAAAAElgpw5oGa5udbM19nZJBSQCAI32puu432oxdt4mogAyDwUsAACABLLT+meH9uSPlzE/k9SRRACgGddUaY9j7A054+ZOIw0gs1DAAgAASMRNlpUJTy65zEq/kXQYiQBAXC+yU3Kqza3me3NqCAPIDBSwAAAA4iw8sWSoG9BdshpJGgCQMMuNay7OuWH2UqIA0h8FLAAAgDipvm9Ij0Aw+FsrXUE/CwCSotIae33euLlPEAWQ3uhYAQAANJO9b3Sr2mD4B0b2Nkm5JAIASb+xfSxb4evN+LJq0gDS9nsOAACAprATRgdDXULjJTNBsu1JBABS6kNZ94Lc6+etJAog/VDAAgAAaIKaicNHG8fcI+kY0gAAz9hnpG/mjJ/zPFEA6YUCFgAAQCNUTyzpFnD0eytdSRoA4ElWxt6Rs2Xu7WaCXOIA0gMFLAAAgIbcDU3rnx2qKLhBVr+R1IpEAMDrF269mGPCV5jxZXsJA/A/ClgAAAD1qJ00/GwZ8xdJvUgDAHx1y7vCOO55OWPnLicLwOffZiIAAAD4arUPlByumO6RdDppAIBvVcjYi3LHzX2DKAD/ooAFAADwBba0KCtsc75njZ0gKZdEAMD3opK+kzt+zn1EAfgTBSwAAIDPqJlccoKxmiipL2kAQLqx9+RsnftdFncH/IcCFgAAgKTKKcM6ZbnOn6x0BX0kAEhjVs99urh7NWEA/kHnDAAAZPZ9jJWpLS250jG6y0rtSAQAMuLqv9iNxs5ucdP8jWQB+AMFLAAAkLFCU4YNcK0zxVgNJQ0AyDgbjGNP4wmFgD9QwAIAABnnM4u0/1pSNokAQMYqd117dosb5s4iCsDbKGABAICMUj1pRIlj7AOS+pEGAEBStaxzUe71s14mCsC7KGABAICMYEuLWoRM1i9kzQ8kBUgEAPAZUWt1fd71cx4kCsCbKGABAIC0Vzup5DQZTZJ0KGkAAA7CGtkf54yfewdRAN5DAQsAAKTvncj9o9qEg7G/WKurSAMA0KDfDqvf510/53aSALyFAhYAAEhLtZNLTpXVA5K6kwYAoJG3yhNzxs2+yRhZsgA88q0kAgAAkE7sPcMKQjnOnySNpa8DAGiGyTlb59xgJsglCiD16NQBAIC0UTt5+Mmy5kFJh5AGAKC5rDVP5G7L/paZ8HaUNIDUooAFAAD8f4PxvycM/lCSQyIAgLj9xsg8lbs1+wqKWEBqUcACAAC+VjNl5HHGdR+R1Is0AAAJunN+OmdLzmUUsYBUfg0BAAB8yE4YHaztEv6Zkf2ZpACJAAAS/MvzTM7W3EspYgGpQQELAAD4Ts2UoYc5buBxK40gDQBA0m6gjaZmb5lzNQu7A8nHGhEAAMBXaiaVXGXcwBKKVwCAZLNWV4W7DH/ATuBeGki2IBEAAAA/2P/QcR2yotEpsjqXNAAAqWJlrg51KamS5nybNIDkYQohAADwvNrJw0+XNQ9J6kwaAABPsLoz9/o5PyQIIDkoYAEAAO/eG0zrnx2qaP17Wftd+i0AAM/dUBv9MmfcnF+TBJCE7xsRAAAAL6qZOLyn45gnrVRCGgAAz7L2ltzr5/6NIIDEooAFAAA8JzR5xAXW2gckFZIGAMDjXGPNJTnXz36aKIDEoYAFAAA8w95Vkhdqaf8gmVtIAwDgI2FZ96zc6+e9ThRAYlDAAgAAnhCaNKyfNc4/JB1DGgAAH9rnuBqdfcOcD4gCiD+HCAAAQKrVlpaMt8YpE8UrAIB/FbiOXqqZMvQwogDijxFYAAAgZezDo3NDkdC9srqWNAAAaeLjnFhghLlxZjlRAPFDAQsAAKRE7eShR8gGpksaQBoAgDTzTk6bfaeYi5eFiQKID6YQAgCApAtNGnGubGCeKF4BANLTCeHy/EnEAMQPI7AAAEDS2Amjg6Gutb+RNT+iHwIASP8bbntbzvi5d5AEEI/vEwAAQBJUTxnWPeA6T1lpBGkAADKENcZ8I2fc7H8QBdA8FLAAAEDC1UwcPto4ZpqkDqQBAMgw1Y51Tsi+ftYCogCajjWwAABAQtWWjhhnHPOaKF4BADJTC9e4/6p6cGRXogCajhFYAAAgIezDo3PD4dr7rczVpAEA4OZbs7Pb7DuRJxMCTcMILAAAEHfVU4Z1r42E3qF4BQDAAVYaEapofSdJAE3DCCwAABBXNVNGHmdcd7qkTqQBAMDnWavr8q6f8yBJAI1DAQsAAMRN7eSSW2V1p6QgaQAA8NU/l451jmNRd6BxKGABAIBms9P6Z4fLCyZa6RrSAACg3lvxjZGsQFH+Ne/tJAugYVgDCwAANMu+e4e2C1UUvErxCgCAhrI9siLRqXYC9+RAQ/FlAQAATVY7eegR2VnB2bIaTRoAADTKaeEuJT8iBqBhmEIIAACapHZyyamyekpSa9IAAKBJotZxxuSNnfUeUQB1YwQWAABotNrSEeNk9aIoXgEA0BxB47pP7istak8UQN0YgQUAABrMThgdDHUJ/UXSTaQBAEDczMjZOucsM0EuUQBfjRFYAACgQezDowtDXWpfE8UrAADi7fRwl+E/IAbg4BiBBQAA6lUzcXhP45iXJPUjDQAAEiLiGDMye9zs+UQBfBkjsAAAQJ3Ck0cMMY6ZK4pXAAAkUpZr7aP2rpI8ogC+jAIWAAA4qNpJJae51r4pqRNpAACQcH1DrcwfiQH4MqYQAgCAr1RbOmKcZO+TFCQNAACSxso6Z+VeP+tlogD+hwIWAAD4fK/ZytROHvFLI/tL0gAAICV2RFxzTP4Ns3cQBXAAf1EFAAD/ZR8enRuaHHrCyJ5PGgAApEzHLMe9X9KFRAEcwAgsAAAgSbIPjy4MhUP/lHQ8aQAA4IEbdmMuyxk3+x8kAVDAAgAAkqpKj+sSUPRlSceSBgAAnrll3xVx1Z+phABPIQQAIOPVlo7oHVD0PVG8AgDAY2z7oOP+lRwAClgAAGS08OQRQyQ7R1Jv0gAAwHuMzKWhySVfJwnwXQAAABmpdvLwk2XNs5LySQMAAE/bmhML9Dc3ziwnCmQqRmABAJCBaiaPuFLWvCyKVwAA+EGXcCD6Z2JAJmMEFgAAGaa2tOQmSX+jHwAAgK9Y65iT88bO/jdRIBMxAgsAgAwSmjTiNkn3iuIVAAB+Y4yrifae03OIApmIAhYAABmipnTEBGvsH0gCAAC/skeEc8q/Tw7IRPz1FQCAdO/qWplQacndMrqVNAAA8L0axQJH5944cw1RIJMwAgsAgDRmp10UCJeOeIjiFQAAaSNPgdh9xIBMwwgsAADSlJ3WPztUXvB3SeeTBgAAaXcz//Wc8XOeJwlk0DkPAADSjS0tahFS9j8lnUwaAACkpQ05Cvc148uqiQKZgCmEAACkGVta1CJks18QxSsAANLZIbXK+RExIFMwAgsAgDRipw5oGapp8YJkTiQNAADSXo1V4Ki88TM3EAXSHSOwAABIE7a0qHW4puXrFK8AAMgYeY5ivyEGZAJGYAEAkAZsaVHrsM16xRoznDQAAMisboDr2uNa3DB3FlEgnTECCwAAv/daHx5dWGuyX6N4BQBARjIBozutZYAK0hsFLAAAfMzeP6pNbTj0urEaShoAAGRof8CY4eHSkktJAumMCi0AAH7trD5Q0jYUs/+WzEDSAAAg463LCRUeZW6ZESIKpCNGYAEA4EP2nmEFtTG9QvEKAAB8qmcoZ+94YkC6YgQWAAA+Y0uLWoSUPUPS8aQBAAA+Y2dO0Oltrp21nyiQbhiBBQCAj9i7SvJCynpRFK8AAMCXdQjH3O8SA9IRI7AAAPAJO61/dqgi/zlZcwZpAACAg6iMuKZ3/g2zdxAF0gkjsAAA8AFbWpQVKi94muIVAACoR6ssx/0RMSDdMAILAACPsxNGB0Ndav8hmQtIAwAANECt67h9Woydt4kokC4YgQUAgIdZKxPuEiqleAUAABoh13Gd24gB6YQRWAAAeFjt5OF/kDV0QAEAQGOFXFe9W9wwZzNRIB0wAgsAAI+qnTziRopXAACgiXIcRz8gBqQLRmABAOBBoUnDL7HGPCn+2AQAAJquNhZ0ere8dtYWooDf0SkGAMBjakpHnmiNeZTfaQAA0Ey5gYj7XWJAOmAEFgAAHhKaMmyAdZ13JBWSBgAAiIOqiGt65d8wewdRwM/4yy4AAB5RWzqit3Wd10TxCgAAxE/LoLHfIQb4HSOwAADwAPtASdtQTHMl9SENAAAQZxU5QecQc+2s/UQBv2IEFgAAKWZLi7JCUU0XxSsAAJAYhaFo7DpigJ9RwAIAIMVCyv6bjMaQBAAASBzzPVtalEUO8CsKWAAApFCodPiPJI0nCQAAkGDdw8q+iBjgVxSwAABIkdrSEWdamd+RBAAASAYr3WYta2HDnyhgAQCQAuGJJYMk+5SkAGkAAIAkGRCaMvwkYoAfUcACACDJqh4c2dV19IKklqQBAACSyprvEQL8iKGDAAAks894V0leqKV5T7JFpAEAAFLAVUBH5l43ZxVRwE8YgQUAQBKFW9r7KF4BAICU1gFccwMxwG8YgQUAQJLUlpbcLOlvJAEAAFKsIievqru5akkVUcAvGIEFAEASVE8aUSLpzyQBAAA8oLC2ttU3iAF+QgELAIAEq7xvSGfH2OmSskkDAAB4gbHuTaQAP6GABQBAAtnSoqxgIDhNUjfSAAAA3mEG1pQOG0UO8AsKWAAAJFBI2XfJ6DiSAAAA3uOwmDt8g0XcAQBIkJrJwy831jxOEgAAwKNqc2KBrubGmeVEAa9jBBYAAAkQmjyyv7FmMkkAAAAPyw0F3cuIAX5AAQsAgDizD4/OtdZ9UlIL0gAAAN7uuNhrCQF+QAELAIA4C4dD90kaQBIAAMAHBocnjziWGOB1FLAAAIij0OThF1vpGpIAAAB+4dJ3gQ+wiDsAAHFS+0DJ4YqpTFIBaQAAAB+pyKlSV/O9OTVEAa9iBBYAAHFg7zk9RzE9JYpXAADAfwrDrezZxAAvo4AFAEAchHIq7pQ0mCQAAIAfWZlvkAK8jCmEAAA0U6i05DwrPcvvKgAA8LFwTkBdzHVz9hAFvIgRWAAANMP+iSM6WqlUFK8AAIC/Zde65gJigFdRwAIAoBmyjH1QUkeSAAAAfmdkmUYIz6KABQBAE9WWjhgno7NIAgAApAWr46vvG9KDIOBFFLAAAGiCmilDD5PsnSQBAADSiOMEg5cSAzx5chIBAACNY6ddFDA28JikfNIAAABp5jIigBdRwAIAoJHCFZt+JKuRJAEAANLQoNr7R/UiBngNBSwAABohPHnEsdZqAkkAAIC0FXC/TgjwGgpYAAA0kJ3WP9u1dqqkbNIAAADpysieTwrwGgpYAAA0UG1569slHUMSAAAgnVmppHrKsO4kAS+hgAUAQAOEpgzva2R/TBIAACADGMcGziEGeAkFLAAA6mEnyJFrHpCUQxoAACAzOkBMI4S3UMACAKAeoS7Db7XSCJIAAAAZ5IR99w5tRwzwCgpYAADUoWbi8J6S+TVJAACADBPMyQqcSgzwCgpYAAAchLUyJuBMltSKNAAAQAb2hk4nA3gFBSwAAA6idvLwa2Xt10gCAABkIivnNDvtogBJwAsoYAEA8BUq7xvS2cj8iSQAAEDmsu1r9m4ZQg7wAgpYAAB8haxg4E+SCkkCAABkMhNzmUYIT6CABQDAF9SUDhtlZS4nCQAAkPGMziAEeONUBAAA/2VLi7JCyv5AUn/SAAAAkI1Go11b3TR/G1EglRiBBQDAZ4RM9q2ieAUAAPAfJhDIOpkYkGoUsAAA+FRV6XFdZPVzkgAAAPgfx7hjSAEpPw+JAACAAwKK/lVSAUkAAAD8j5U5iRSQaqyBBQCApNrJw0+WNa+TBAAAwFcIqE/udXNWEQRShRFYAICMZ6f1z5Y195IEAADAQcTEKCykFAUsAEDGC+3Jv1nSkSQBAADw1azMiaSAVKKABQDI7M7YAyVtrTE/JQkAAICDM9JJdgI1BKQOJx8AIKOFYvq1kdqSBAAAQF1s+3CXkv7kgFShgAUAyFihKcP7ShpHEgAAAPWz0ghSQKpQwAIAZG4nzDV3ScoiCQAAgPoZaSQpIFUoYAEAMlLt5OGnSzqNJAAAABrGUsBCClHAAgBkXudr2kUBWXMHSQAAADRKr6rS47oQA1KBAhYAIOOEKjaPl3Q0SQAAADRO0MYYhYWUoIAFAMgo9r7RrWTtL0gCAACgCX0pY1nIHSlBAQsAkFHCwdB3JXUiCQAAgMazhnWwkBqGCAAAmWJfaVH7bGWvllRAGgAAAE0SzgkVFphbZoSIAsnECCwAQMbINjk/EcUrAACAZnWpInl7WEsUSUcBCwCQEaonlnSTtTeQBAAAQPO4bqCIFJBsFLAAAJnxgxfQryTlkQQAAEBzWQpYSH5/nggAAOmudvLQI2T1TZIAAACIi2IiQLJRwAIApD/r/E5SkCAAAADi4hj78OhcYkAyUcACAKS18MSSQZI5nyQAAADiJisSCR9DDEgmClgAgLTmGv1ckiEJAACAOPaxrB1MCkgmClgAgLQVmjjiaBmdSxIAAABxZkx/QkAyUcACAKQt69hf8VsHAACQkJ4WUwiRVHTqAQBpKTR5ZH9J55EEAABAAlhzNCEgmShgAQDSs08ldwK/cwAAAAnrbbWvvG9IZ3JAstCxBwCkndCkYf1kxZMHAQAAEigYcJhGiKShgAUASDuunF/yGwcAAJBghmmESB469wCAtBKaMryvMbqQJAAAABLLSIzAQtJQwAIApBdXP+T3DQAAIBnMkWSAZAkSAQAgXVRPLOlmpctJAgAAIPGszBGkgGThL9QAgPT5UTP6jqRskgAAAEgG294+UNKWHJCUvj4RAADSovt0z7ACGY0lCQAAgOSpidk+pIBkoIAFAEgL4RznRkmtSQIAACB5jHGYRoikoIAFAPA9e8/pOVb6NkkAAAAkuyPGCCwkBwUsAIDv1eaUXympK0kAAAAkGwu5IzkoYAEAfM1OkGNkvk8SAAAAyWfECCwkBwUsAICvhToPP1PSUSQBAACQfEY6lBSQDBSwAAA+7zWZWwkBAAAgNazUzj44Mp8kkGgUsAAAvhWaNKyfpDEkAQAAkDrhSLQHKSDRKGABAHzLGudWSYYkAAAAUtgncwzTCJFwFLAAAP7sKN0/qo2ky0kCAAAg1R0zcwghINEoYAEAfCkciI6V1JIkAAAAUstaFnJH4lHAAgD4r5M07aKAlbmeJAAAADzAUMBC4lHAAgD4TnjPxnMlHUYSAAAAqWek7qSARKOABQDwHWvMLaQAAADgFaYzGSDRKGABAHwlNGV4X0nHkwQAAIBX2C5kgESjgAUA8Ff3yNX1kgxJAAAAeEa+nTqAh+sgoShgAQB8w95VkmdlriAJAAAAbwnVtGIaIRKKAhYAwDdqW9qLjdSWJAAAALzFdV0KWEgoClgAAB/9aJlxpAAAAOA9gYBDAQsJvhcAAMAHQhNHHG2lESQBAADgPdZaClhIKApYAAB/dIocO54UAAAAvMnIticFJBIFLACA59m7SvIkXU4SAAAAHu2vWdOGFJBIFLAAAJ5X29JeLIlOEQAAgEcZw4N2kFgUsAAA3u8QyVxNCgAAAN5lLX9sRGJRwAIAeFrNxOE9JR1HEgAAAN7FCCwkGgUsAIC3f6gcfZPfKwAAAG+zLPeARN8XEAEAwLMdIStjZa4kCQAAAM9jBBYSigIWAMCzaktHHCepN0kAAAB4XiERIJEoYAEAvPsjZew3SQEAAMAXcmxpURYxIGH3BkQAAPAiO3VASytdRBIAAAA+kZ3fkhCQKBSwAACeVFvb6nxJ+SQBAADgDzW1IQpYSBgKWAAATzISi7cDAAD4iGOdVqSAhJ1fRAAA8Jr9E0d0lLUnkgQAAIB/OMZtQQpI2PlFBAAAr8ky7iWSgiQBAADgHzHHZQohEoYCFgDAc4wxl5ICAACA3/pwDgUsJAwFLACAp9SUjjrESiUkAQAA4C/GtRSwkDAUsAAAHvthil4qyZAEAACA3zpyTjYhIHH3CQAAeIgV0wcBAAD8yHVZwxSJQwELAOAZtfePPFLSIJIAAADwpSwiQKJQwAIAeIYJxBh9BQAA4FcOI7CQyNMLAACPsDIXkQIAAIA/GUZgIYEoYAEAPKF28tAjJPUnCQAAAJ+yjMBC4lDAAgB4grEOo68AAAD8jRFYSBgKWAAAT3BlziMFAAAA/zKMwEICUcACAKRczQMjDjVSEUkAAAD4mHEtISBRKGABAFLf14m550syJAEAAOBf1hiXFJAoDO9DXIx8cGb+vlBBneeTMTbLWhNx2weqll3cP0xqAD7T2/k65SsAAADf9+kYgYWEoYCFzykqXZAlqYtxbQ/rmK5GppukLpIKrVWhMcqXMQWytkBSgZEKrFQYisrkBCIN+5DyiIpLy1wj7XWlaiOFjFRujamVtTWSdhmZHVZ2h7HaEnO0MyBnu2OcrbtrWuxcdUufEEcKSB+VU4Z1kqsRJAEAAOB3LiOwkDAUsDLQsCmLu7s2dpTrqq8x9khJhxipq5W6SeokycgxXxoMYf7zD+z/iurNKK87VmpjpDb/3c7ntnvgf1tz4IVWrmLWVWHOPhWXLtxjZbcZabX+8x9jVjtyVlcVZq1jdBfgsx+imPm6jAIkAQAA4HeMwEIC7xuIIH0NuX9+LxsMHG1d9ZXsUcYx/WTtUTE3WiB9piClZhWiUsC2NVJbSf3+94+sXMWUVx6LFZWWbfxPcctas9RxtCSSZRYvunpQBWcF4MV+jjmHEAAAANKiY8cILCTu7CKC9DDywZn5tdHcgY5RkawzUrInWKkjyXzOVmtV5jh2mXWdj4zjlM3fMnC5JnCRBVLFTh3QMlTTcpekXNIAAADwe+fO3pJ7/dy/EQQSgRFYPjV4SllfEzMnSHaYMRoWiupIIzkHZuExavMguhijs6w1Z8lYWRtTcZeF+1Va9oG1ZpaMOys7EJ4z57oRe4gKSI5QbYuTRPEKAAAgPThOjBCQKBSwfKL/fctatQjUnmiNzpJ0qlwdyvTiuMiXdLwx9njJKBLLUXFp2RpJs4w0UyYwa/7YgR/JEDaQEK7OYiwwAABAerCu5YFbSBhuGzxq9IS3gpWdWg0zTuBUK3uKpGKJRY5T9DXZLtlZ1prXA4HAq++PHbiWTIA4dHCsTGhyyUYdeIAEAAAA/N6/M/aKvHFznyAJJOTOnAi8o6h0QZYxzsnWtRc7RufaT5/QB49dlKWVRnrVyr4Syct6e8lVA6tIBWi8cOnwwa5MGUkAAACkB2PMhTnjZj9DEkgEphCm2EXTpgXWlPcqceRcJNlLrbUdjWEVK09flKU+kvoYmZuza6LRIaVli630ouvohYXXDV7IdEOgYazMmaQAAACQRv07q1pSQALvxZFsF02bFli757AxxgQutrJfl9SOVNLGBmv1nA3omYWbB8/iCYfAwYVKS+ZaaRhJAAAApAdrdXLe9XPeJAkkAgWsJBpy3/ud3UDwmzL2eiP1JJG0t0vSDGM13TX2lbLxxREiAQ7Y/9BxHbIi0W2SHNIAAABID65rR7W4Ye4skkAiMIUw0SZYZ0jXD8bIapyVPc/IZhFKxmgv6UprdKUjU15cWvaisZpeHi54bdUtfXg6BzL7xycaO00UrwAAANKrjxe0TCFE4s4vIkiMYVPmdnJt8Bpry8Zaaw4jkcz26YL8V1qjKwtz9lUUl5Y95Vjz6PvXD55DOshEjnVPsQwCBgAASK/7nphqSAGJwt1DnA2eUtY34JrbrOxlkrJJBPX4RNJUE409Nv+moRuJAxnRsbEyocklmyV1IQ0AAID04TpujxZj520iCSQCBaw4GTL5g2Otdb8n6RuSAiSCxl7rZcwcY+3U6mjuk8tu6l9JJEhX4UmjBromtogkAAAA0ktOyG1tbpm3jySQCEwhbKbBU8rGOK5+Yq17MmmgGRxZO9JKI/OCtX8qnrxgumJ28oIbhrxPNEg3romdQgoAAADp183Tnnn8IR4JwwisprDWFJcuOkeOvV3WDiUQJNB8WXNvRTj/KRZ+R7qonTziNVn7NZIAAABIK/tyx89pTQxIFApYjTR4Stlwx9WfJI0iDSRRhZGZGnDN3XNvGLSOOOBX9uHRuaFwaI+kPNIAgBRygjJtD6/7NZVbZWv3Nu7mIr+rlFNw8BfUlstWbvfHjVJuodSqc92/a7tXSNblfAIO2JQ7fk4PYkCiMIWwgYZOXnSEte5vrGsvFIU/JF+hlb0l6tibi0vL/m2s7pk/fvCLMsYSDfwkFA4fL4pXAJByJqdA2ec/VOdrom/9WrGVrzTu5mLo9XJ6H3xljdhHzyo6805fZOT0PF7B439c9+/aI6dIYWZMAZ9i7SskFAWsegyYuLhjlon+0rWxceQFL/SlJJ1sjU4unrxwuZ208J78nL2PvH31ibVEA1+w9mv8CQAAACD9GGspYCGhKMgcRFHpghayzreNif5EEvN44UV9jbETq8IFvyouLZsYzXb+sujqQRXEAm/3bHQSIQAAAKQfawwFLCSUQwRfNnhy2VlGZrkx9g+ieAWv/1BIHSX9Mhh21xaXlv12wMTFHUkFnjxX7x/VRtJAkgAAAEjDvp41O0kBiUQB6zOG3Pd+5+LSsqmO1QuSDiER+EyhpNuzneiG4tKyqcMmfdCHSOAlYcc9nt8dAACA9GRkd5ECEokphJJkrRkyeeFYK/3x0yIA4Gc5kq6MGfey4tKyvxsT+OP8cccuIxak/FJr7AmkAADAf+7EcmRatKv7t3PfFnKCbxgZClhI7GUz0wMY/EDZ4YHShaXWaAynA9Lw+32ltbHLh5QufMax5qfzrh+0kliQQhSwAAD4lNOxv7LOureOV1iFJo8kKPiGlUsBCwm/wc1IRaULsozMTxXTj61RDqcC0rl/ZGUvihl7XnFp2cMBJ/h/88YO3EQsSGqHprSodYj1rwAAANKWkUMBC4m9sc3EnR4+8YOeRuZtSb+UKF4hY2RJGhdzo6uLS8tKh9z3fmciQbKEbNbxkgIkAQAAkJ5cywgsJFbGFbCKShdcFHXcDySN4PAjQ2VLGmeDgVVDJi/4w7EPf1BIJEg4w/RBAACAdOYwAgsJljFTCEc+ODM/FM27T9KVHHZAktTSWnNbMGzHFpeW/bFV9r573r76xFpiQSJYmRMMMQCAd67Lof2KvHRr3a8pX5PRGbkb59SbkaI1nEzApyJuhAIWEiojClhDJy0sro3aJ43Uh0MOfKl72lbSHyvDBTcXT1r4swXjBz0mYyy5IG5n2IMj80NRdxBJAICHuBG5m+eTQ12/X1U7Zat2EgTQMNGWHXrulLiuIHHSewqhtaa4tOxHrrGzKV4B9eohYx8tnrzwzaGTFrLYNuImFLUlYv0rAACANGa2mounx8gBiZS2BawBUxe3LJ68cLqkP+rA4tUAGuZE19iFxaVlU4dNmduJONBcljUHAQAA0pqR3UIKSLS0LGANm7K4e05N9B1JF3CIgSZfG66MuVkfF01aeNvh96zkaZ1oToemhBQAAADSl7WigIWk3KSmleKJ80e6brTMSkUcXqDZCo2xfyjM2be4eNL8M4gDje7MTJAjaRhJAAAApDFDAQuJl1YFrKLSBd+Q47xhpY4cWiCujpRxXiqaVPbCkPve70EcaKhwt2FHS2pNEgAAAOnLyG4lBSRaWhSwLpo2LTBk8oI/GJknJOVyWIEE/TAZnWWDgQ+HTF5w60XTprEoN+plXTOSFAAAANKbax1GYCHhgn7fgf73LWu1trx2uqTTOJxAUrS21vxlbXnvi4dMXjRu/rhjlxEJDsYYM9xacgAQB1ktZHLypZx8yQSlSLUUrpQN75diEX/tixOUadFeysqTAp8uMxmulKI1stW7OdYA/Nfnc1jEHYnn6wLWsQ9/UBgM174knnAFpMIIa2MfDCldODGUF7h9yVUDq4gEX2StGIEFoHGcoJyO/eV0K5bp0FembS+Zlh0lU8fEgWiNbPl6uXtWyW5ZKHfzfE8Vgkx+Fzndh8rpWiTT7giZgq6Sc5BueLhStmKD3F0fy928QO6WMim0n/MCgLdFnXWEgIT/nvq14cOmzO0Uc4OvSOZYDiOQcqtl3RsWXD/kdaLAf+yfOKJjlmO3kwSABnVK2x6uQL+vy+k1Ria3mUvnWVfuloWKLX9O7tp3JOsmf4ecgJxeJynQ91w5XY5terfbjchd955iH/9L7qb349rErFPvkIIHf9BwbNHjcjfPb9w2T/q1nN4nH3ybHz2r6Mw74x534JhL5RzSgIfeRmoVnXlHgwqcpt3hCg7/dt2be+3HUqTm4KdB1yIFBl311dvPyZdpf1Tdh7+e/N31MxVbOp0LCFLN5lSppfnenBqiQCL5cgTWoAcWHhqN2deN1IdDCHhCbxnn1eLSsoet7PfKxhfvJRJkBexQMX0QQH1FgjaHKTjspk+LD3H626px5HQrltOtWLZivaKz74578acuTq8xCg4ZJ9P6kDhsLEtOrzFyeo2Ru2OZYu9POjAqKx7t7Fp0YBrjQbgrZvjiHAoce5WCQ6+v/4WRGkVe+X6DR+eZnAI53YbU86J6lgRt0a7+bdR1jOp5r63YwEUEXrCN4hWS8vvqtwYX3z//yEDMvkfxCvDePYika4zMksFTysYQB6w1xaQA4OC90ICCRdcq+4Kpcg4ZoURNDDCFhyrrjL8oOOoHUiArsT+EeW2VddqflHXyb+JTvPpiZB37K+usvyk4+qdSdkvOITWyeDXje3K3LiI0IP43AWtJAUnpOvipsUMmL+qvgPNvST04dIBnHeK4eqO4tKx0wNTF9K4zuTNj3CGkAOArZbdS1hl/UaDoWslJzkNtA/3OV9bpd9U54qhZnepORyvrwsfkHJL4pf8CR5yp7PMflSnsmdGnUcOLV9UHilfbFvPdAxLAldaRApLBNwWswVPKhlsbmympK4cN8DwjaVx2TXT+0EkLGYWTqRiBBeCrZLdS9ln3Hpi+luyOb9ciZZ3827oXhG/Kdnsep6wz/yaT1yZ5P7QFXZV1zkQ5Hftn5GnU4OJVuEqRl79L8QpI7BWJEVhIzu+4HxpZVLrgGMc1L0kq5JABvtLXNXbOkMkL/tB/2rJs4sgcNaWjDpHUkSQAfP4ex1HW134r0/6I1HV+ewxXsOia+G2v+1BlnfybOhdDT1icua2VdfqfZVpn1uSERhWvZnxX7vYP+e4BCeWuIwMkg+cXcR/8QNnhJqbXJNuWwwX48zpjrbktr7x2TFHpgqvKxhd/TCTpzzGxIssC7gC+IDDwisYvaB2LyJavlrtnjVS7V4pUS8ZIWS1l8trItOsjU3hoo0ZVBY69UrFVb8hWNO+ey7Q9XFlf+53kNG5tLbtnjeye1bKV22Uj1TLZLaXc1jL5XQ+MqGpMMSynQFmn/UnhZ66Woum/hnLDi1eVB0Ze7VjGFw9INMsILCTpxtLLjSsqXXCIielNSZ05VIDvDTEyC4tLy364YNzg+2UM5Y005loNNcQA4DNMyw4KDv5WQ++G5K59R7EVM+RumivFInW/PKdAgd4nK3D0xTKFDVg83clSsOgaRd78RTN60XnKOvn/pKwWDduj6t2KLZ0ud+UrslU7Dv7CQJacLoMVGHCpnO5D1ZDF7U3rQxQc/E1F35+U1udQY4pX4Ze/I7vjo9T/Hq56TaFVr331adh1sLLOurfO70Fo8kguHvDBBT6wkhCQDJ6dQjjooYUdjMwrkg7hMAFpI0/SvcVTyp475v4lbYgjjfsxEutfAficwMDLpWBuva+ze9Yo/PxYRV6/Xe769+ovXklSaJ9iHz2r8DNXKrZoasM6wb3GyLRo1+T9CZZ8+8DIr3p3yFVs8RMK/+NixRZNrbt4JUmxiNxN8xR5+buK/OsG2cptDcv3mMtkCrqn7/nTmOLVS7d6ongFZIia3K0zNxEDksGTBayi0gWtAxH7iqS+HCIgDVlzbk4gsmjwlLLhhJGGh9fKSCoiCQD/FchW4Igz6n2Zu3WRwv+6vunFh1hE0fcnKTq/tP7XGkdOrzFN+hjToa8CR51T/wujNYq8epui8+5r0vQ+d9sShZ/5ZsMWIA9kKXDMxel5+jS0eBXar/BLt8juXM53DkieVWaCXGJAMniugFVUuqCFY80LkgZzeIC0dojj6t2iSQtvk7XMNksjtQ8M7SmJEXYA/tfh7HKslN2qztfY2gpF3/y5FK5s9ufFPpjaoKKP061pg0WDI75T/5pbsbAir/xI7oZZzduZ0H5FXr2tQet1Bfqc1qBRbn7S8OLVvgMjr3ay1CaQVEafEAKS1p/wVGsmWEfWPGWNjuPQABkhyxj7h+LJC6cXlS5oTRxp8sPiBgaSAoDPXRe6HFvva2JL/iFbvTtOn2gVWzCl/vuujv0bvy/diuV0Oqbe10Vn3y13S1l8die0T5E3fi65sbpfl91KzqGj0ua8aVzx6hbZXRSvgGSz1qwgBSStP+GlxhR3Wfh7Y3QWhwXIOBcYmcVMKUybrgwFLGSMXfsjemTWDl35wEoN+b8lGvqbJRr76Gq988lewvkM06ZXva9xV78e1890ty6SrSmvu115baXslo3abmDgFfV/9oZZii3/Z3yvrHtWK/bRs/V37rumxySGhhavbO1ehV/8tuwu7qGB1FzgXRZwR9J45imEQyaVXWGlH3FIgIx1qOPq7SGTF9w2f1zxX4nDv6w1A8WkUKSxUNTVy0vK9cTcXXptWYUisc8/VPXDTdV6fM5OXVDUTvdf2UsFuQFCq2+x9GhIdv+2+H6mdWV3r5DpPqzue68W7WXDVQ27TyvoKqf7kLpf5EYUnXVXQmKMLX5Cgf4X1Dl9sSGj3byu4cWrCkVeukV29yq+Y0Cq+n2uwxRCJI0nClhFpQuGWWkKhwPIeDnWmr8MKV04NFhVe92c742oIRIfMhpACEhH89dW6ol5uzR9/i7tqYrW+/pnynZrU3lYL956lFrlZHYRywTz6r4BCldKsvG/sdr1iWxBj7pfFMhq8Pac3qdI9VToYytmyO7fmpgbxaodcjcvkNN96MGzLjz0wKiyBhblvKZRxasXb5HdQ/EKSKVoNMrwRyRNygtYRaULukjmGUm5HA4AkmRlvxFpmd1v0AMLz/vgusHrScRHx+6eYQUhqRdJIF1sqQjr2bLdemzOLi3Z1PiCwLw1+3XDY2v02HV9MvwOp7bOf21yCw8UkmKR+H7s+5Ok9yfFbXuB3ifV+5rYh08lNEp37Vt1FrAkI5PfxZejkhpcvKopPzDyas9qLlJAam0vuPn93cSAZEnpGlgld83OM8Z53kjdOBQAvtABPzYQswuGTF54Aln4R21ecKDEBEL4W1XI1ZNzd+rMvy5Xn58s1A+nr29S8eo/nl6wW8+UZXb/3ob319MjDcjpMcLbv0ot2sm0rbs+7+5YJlu+NqHtcHd8VH9b87v47hxpXPHq2xSvAG/4kAiQTKkbgWWtiUxe+LCsHcphAHAQ7a21rxZPWnjTgusHP0gc3mdclwXc4UuulWau3KfH5+7U8wv3aH9tLK7b/8kzG3TWwDbKCToZmW99i6lLUnDoDQpvmlfvaK1UcboVq776vLvu3cRnWb5GtmK95Bx86qPJbuWr86Phxas9irz47YQXCQE02FIiQDKlrIBVVPrBzTK6hEMAoB45MvaB4tKyoVb25rLxxREi8fJdqh0gwwAs+MfGPSE9NX+XHp65U2t21ib0cx6bvVPXHd8pMy8N25dKfU6r8zWm8BBlnXanIq/d5sn1m0zn+uvz7qZ5iW+IG1N42mVpc240tHglSbElf6d4BXjp2i67jBSQTCn5M2DxxPlHG2P/SPwAGmGckXljwMTFHYnCu4wxR5MCvK6iOqoH3t2uE/+0TEfc/oF+/tzGhBav/uPef2/L2MzdLQsa1jHtOljZFz4up+fx8tpsZNO2dz07GZHds4YvWCM0pnglSYGBVxxYLw2AJ1imECLJkl7AGv3wW7lynCcl5RE/gEY6PtuJzimeOJ8iiXc7Mn1JAV7kWunfy/fq2kdWq/ePF+rbT67V3NX7k9qGT7bVaNHGqsy8NlRskN25vEGvNa06KeuUPyj7wqkK9D1PJre1B/bAyKmngGXL10tulC9bAzW2eCVJJre1AsNvJjzAI5f2vGDgI2JAMiW9gFUZLvirpGOIHkAT9ZLjzCqeNP9rROEt1RNLukkqJAl4yfKtNfr5cxvV67YynfnX5Xpy7k5Vh92UtWf6/MxdzD06f3KjXm/a9lbwuB8p+4oXlHXmXxUYeLlM+yMkk/wJBKZFWymrRZ2vcfes4gvXQE0pXv33vUecLqfrYEIEUm+duXbWfmJAMiV1Dawhk8rOt9I4YgfQTAUyzstDJpfdOH9c0RTi8AbHuP1S/HBbQJK0pyqq5xbu1hNzd2nOam/1rafN36X/+/ohcjJwqTh30zy5G2bJOWRkIy8uQTndhsjpNuTA/w9Xyt32odxti2W3LZa78yMpluDlEVt0qPcltpzpgw06nD1PkGnRrhlbMAqO+pHCz1yZ+OMOoC4s4I6kS1oBa9iUxd1jbmyKZEkdQFyuX9aqtLi0rNuC8UUTiMMDjNOfEJAqoairNz7aq7/P26V/LdqjSMyb/Y1N5WF9tKVaR3drkZHHKfLWr5V99n0ybQ9v+kayW8k5pETOISUH/n8sLHfnctmti+RuWyx366K4P8nQtGxf/4tqKvgiNiTLZhWvPt1G4SEKHHuVYmU8oBhIFSuzkBSQ9BvApHzKBOvE3IVTJbUlcgDx7AdL+mVxaVmPVlv3jX97woksPpJarH+FpFu4vkpPztulp+bv0q79/hiNMX9tZcYWsBTar8iLtyg45pdyug+LzzYD2XI6D5Q6D1RAOlDQ2vqB3I1z5a59R7ay+YvnN2QdLhup5gsZB7Gl0xXod57kZNV9E3PsVXJXvS67dwOhASngWH1ACkj6eZeMDynusvD7kk4kbgAJck1ll4JnikoXtCCKVDL9yADJsKUirHvf3Kqhv1mikb//UPf9e6tvileSNH9dZUYfP1tbociM7yv6/sTELHoeyJbTfZiCJbcq+7KnlXXG3XJ6nSg5zfi7bSCn/teEq/hyNu/MUHTOPYrOvluxxU824JhkKXjcD+W1p1UCmSIWizACC0mX8BFYgx5YeKhi9hdEDSDBzjHGeWvAxMVnL7lh4A7iSD4j25dJ4kiU2oirl5aU68l5u/Tq0grFXP+ebe+vqeSAWlexRY/JXfWaAgO+oUDf86RAVgIuTI6c7sPkdB8mW7ldsQWTFVvxihq9pEWwAQWsCAWsZpwQis7+q2JLp0mSoh88Iqf3yTIF3ep8l9O1SIE+pyq28hUiBJLb69vV4qb5G8kByZbwEVhO1N4rqRVRA0h8/9cOzXaic4ZOXnQEYSRX5X1DOlupHUkgnlwrvfPJXo19dLV6/KBMV0xZqZeXlPu6eCVJy7dWp/RJiJ66bFduV3T23QpP/4ZiS56Urd6VuNutVp0UHP1zZZ1zv0yrTo18c/1dZhtjFnsTzwJFZ/75v8UrSVI0pOjMOxv07kDJLQ2a4gkgrn3uMkJAKiS0gFVUuuAbxugsYgaQRL2sjb1XPHH+IKJInoATOIoUEE8zV+7TUT/9QKfdvVyPz9mpylAsbfbNtdKm8hAH+bP3Qvs2Kzr3XoWfOE+Rl7+j2IqXZKt3J6bz23mgsr7+kJwuxzb8TbFwvS8x2cxib/yBdxV994+KffTsl78nm+bJXf1G/bnnFiow7CayBJL51ZWYPoiUSFgBq+SB2W0dmbuJGEAKflQ7ynH+PXTSwhLSSJKA04cQEE+3P7tBG/ekb5Fn054wB/krL+Cu3E3vK/r2bxV+/ByFn75K0bn3yt30vhStidvHmLw2yjrjr3I6HdOwNzSggKXslhy/Rh7r6Lt/UOzjfx30JdE5f5XC9U+5DRx5ZuMKkgCaWUTgCYRI1bmXIJFYzp1W6kjEAFKk0DX29cFTysYQReIZaylgIW5eWlKu+WvTe50oRmA1hJXds0qxJU8q8vJ3FHrkVEX+OU7ReffL3TC7QYWNOgWyFPza7xo0ndBG6i+emWxWzGj4oXUVfee3in3yYt0vq959YLH/+tNXcNQP631yIYA4fYUNTyBEaiSkgDVk8sITJH2LeAGkWEvH1QtFpQtOIYoEM2LdMcSnU2yl3764yVNtapUT0O1ndtfr3++nJ8b10fmDm7/c2wZGYDWeG5W7faliix9X5JUfKPToaQo/+y1FZ/9F7rp3mlTQMi3aKTj85vpf2JC1uShgNfBL7iry1q8VWzGjQS+PLf+n3O1L6z+WbQ5TYODl5AskvMun3TnjZq8hCaRC3J9CWFS6IMtaWyqeaQvAG1oYmX8NmVR20fzri14gjkTdkIgRWIiLfy3aow82eOdpbod3zNXzNx+l3h1z//vPzh/cTk/OLdTYR1erqevJb9sb4WA3+7rjyu5aodiuFQcWAHcCcjoPlNPndAV6j5GCeQ3ajHPYiTJte8nuOfj9mK2qv4BlCg/lmDRAbMUMuatea9Rxjr53h7LPf0hy6r51CQ7+ltzVb8ju20TQQMK6fJprjHjwNFIi/iOwrHO9pCOJFoCH5FijZ4dMKruCKBLQkZkgR1IvkkBzuVb67UveufHsUpit177X73PFq//4xvAO+tnZ3Zu87apwjAMe9xMoJnfLQkXf+a3CT16g2LKnD9xq1cc4Chx1bt3Xuartkq37yZGmPd3fBok1fvqs3bNKsQ+fqv+FgWwFR/2AjIEEMtbMJQWkSlxHYI18cGZ+KKqfEisAL17vrNEjQyaVZc2/vuhh4oif2k7DDzFSLkmguZ5buFsfbqr2RFvyshxNu/4IdSnMPuhrvn9KN/193i6t3F7b+O9N2OWAJ5CtrVB01l1yN85V1td+JwWy63y906247g1GQ7J7N8kUHnLwbbTtLRmn3kJXXG4g2xwmp/OAOl8T++RlyU2fkX7Rsofk9Bojk9+l7mPZfaicw09p3CgvAA3mys4hBaTshi6eGwtHW9wu2U7ECsCjAtbowaJJC1uVXT/4b8QRpxspxzlCjCRHczvEHlv76p5vHKbinnWvaZQdNPru17rqxscbvxRITYQCVlLOqw2zFZ15p4In3F73daxNT5ncQtnaioO+xu5ZWWcBS8FcmTY965yKGLcfs6POUeCYSw7+glhEsY/TbNZ8tEbRWX9W1ml31n+DU3KLwhvnSKH9fAmAOF9Wc8PufGJAqsRtCuGQ+97vYWVvJVIAHmeMsX8tKl1wA1HEC08gRPNNm79Ly7fWeKItpx3dRleUdGjQay8a0k6tcgKN/owaRmAlTWzFy7IV6+v7aZBatq/7rm3HR/V3rHuUJOeHrNPRdV+Vq3YkZSRY0u+cN8yWu+at+vPJa6vg0Bs5+YH4W2ZumbePGJAqcRuBZYOB30rKI1IAPmCMzH1DJpdF548rmkIczdabCNAcMdfqDy9v9kRbWuY4uvvSng1+faucgE48qrVeWLynUZ9TG82MUYsmr62yL/57na9xty1W5NUfJa4R1pW7YbYC9SyybnIL6xxL6m6qf9BBoNcYxRY/keDee56c9nU/+NVWrEvbcyo6+25ldx8qZbes+1gcdbbclTPkblvCRRaI31V9HhkgleIyAmvopIUDJfHcWgC++gW2VhOLShd8gyia7TAiQHP84/1d+mSbN0ZfTTinh3q2z2nUe0b2yW/057huZhSwbLhSysmv8z/1jSaKSzsqt9X/oqwWdW9jz2rZ6t11/7B06JvwxdwDhx0vOVl1t3XXJ+l7TlXvUnR+aQN+5R0FR/2o3icXAmjE98+w/hVSKy4FLNfRn5SIJxoCQGIFjMzUIZPLLiaKZulJBGhyH8JKd8zY4om2HNk5T9ef2LnR7xt6WKtGvyc7aDLjAMfCUriyzpeY3EKZlh0TfLVvQFEyUt8DBKzcNf+udzPBYxP7wFunz2n1f6+2fZjep9VHz8ruXF7v60zbXgoMuIwLLRCv64/VbFJASs/B5m5gyKSFx8varxElAJ8KWKvHhkxeeDJRNBkjsNBkz5bt1ort3hh99atzeyjoNL6w1LNdTqPfk5uVOX/3s3s31t8h7T40oW0wBd3qb2c9o6skKbbylfr3pdcYmY79ErMfbXvJ6Tak7hdFa+VuW5TmJ5WryHt/lNxYvS8NDr5apqArF1ug+XZmj5vzCTEgleLQe7K3EyMAn8u21j5bVLpgMFE08hfg/lFtJLUmCTTp/LHSna96Y/TVsF75OufYtk16b+fW2Y0uSOUEM6eA5TbgqXxO7wT+DcHJktPzuHoaGZPdW/9TMO3O5Q2YnmeUdfxP6p3m1xTBYTdJpu5zx900T4qG0v/6sWuFYsumNyC0XAVH/oALLtBcRu8Yw2OnkVrN6j0NnbRwoDU6hRgBpIF8I/PK0MmLjiCKhouYWE9SQFO9srRcizdWeaItvz6vh0wTZ/UZI7Vp2bh1djJqBFYDRgM53YfK6XRMQj4/cNTZMnl1FyfdnR9JbqRB24sueqz+c6JtbwVHxbdo4vQ+uUFPOYyteDljzq3ogimyldvrz67H8MQWSYGMuJib9wgBqeY07xzWTyUZYgSQJjq4NvbysClzOxFFQ38HLNMH0WR/esUbo69O7leo448oaNY2WmY3dgRW5nSf3E3zJevW+7rgib+Ucgri+tmm/ZEKDv92/W1cP6vh+7P2bdnytfW+LnDU2QoOvT5O+3GUsk6of9KD3b9V7oYMWmM5UqPo7Lsa9NJgya1Sdiuf7aCp9+ECQNIKB0bvkgJSfh429Y1DJy86wsqeT4QA0kzvmM3+V8lds/OIon6WBdzRRO+t2Kc5q/d7oi0/PK356+PkNbKAlZ1BUwht1Q6525bUf6te0FXZ506SaROfurjTo0TZZ90rBetZo8yNym3MqCXrKjqrYUWTwLFXKTj6Z1Iwt+n70X2oss64u0HbiC16THKjGXUtcde9J3dd/ffVpkW7uBUUk6m+0YNAkuzNKuz2ITEg1Zrce3IV/ZGkABECSL+7LTs00jLnMVnLCNN6f0WcnoSApvjjjM2eaMeQw1o1e/SVJEVjjVsWJDcrsy4vsWVPN+xmvbCnss9/WMFRP5Ap6N60G/7WhyjrpF8r6/Q7peyW9bdtxQzZ6l2N6wdvKVNs5asNem3giDOUfeFjcnqeoMZMXDC5hQoOu1FZp98lk1v/UoN2zxrFPnkxI68n0dl3S5H6HwYR6HuenI79fbVvpt3h/GDAA31jvWcunh4jCKRasClvKpm4qFvExq4kPgBp7ILiyQt/uUCaQBR1dmgOJQQ0Vtn6Sr25fK8n2nLb6d3isp2aiNuo12fSGljS/6bdNWh0VSBbgX7nK9D3PLmb58vdslB222K5u1ZK0a8oUmS3ktO2t0zHfnIOO1FOp/5qcKEoXKnYgslN2qforDvldOwn07pH/UWIgm7KOuX3sns3KrbyFbmb5snuXiXFwl/el66D5HQfpkCf06WsBg4Gtq6iM+/IuNFX/939yu2KLpiiYMkt9RwIR8HjblP4uasb9ATDxDe8/sJ3sOg6RbYukq2t4McDKWOMZf0reEKTClgRJ/Z9SdnEByDN/aJ48sKPF4wb/A+iOGjvuzsZoLG8svZV3y55Ov2YNnHZVnW4cQWsdi2DmXXQravoe3co65z71eDiknHkdB8mp/uw//2zaEg2tFeKVEvBXJnsVs1a1yjy7u9lq3c37c3hKkXe+Kmyz57YoJFekmRa91CweKxUPFay7oHPjlRLgWyZ3MKGF6y+ILrggQZN00xnsaXTFOhzqkz7I+s+Bu0OV+DoSxRb8mTqvxah+gv5pm0vZV/ylGIbZkmV22RryqVAtuQEZVp3PzDybsnf+WFBYr9f0jukAC9o9J//Bkxd3FLStUQHIAMYWfvQkMkfDCGKg+pBBGiMj7ZU64VFezzRlh+c2lVOnGby1TSygNWxICvjjr27bbFiCx9t3kaCOTItO8oU9pRp1blZxavogily17zVvALE7lWKvPojKRpqwi+MI9Oyg0zhoTL5XZpcvIqtelWxRVO5uFhXkffuaNgDA4qvPXD+pLrJVTsb1F7l5CvQ5zQFBn1LwRHfVXDYTQoOGa/AEWfK5Hfl2CPRKvLa9FhADPCCRhewsmoil0kqIDoAGSLPWveZQQ8t7EAUX+h4Pzw6V1J7kkBj3PXaVrk29e3oVJClC4vjd/o2dgRWh/ysjDz+0bIHFFv1aopbYRVd8IBiCx+Oy9bcrR8o8sr3pdC+pO+Ju+YtRd/+bcOKIJnwu7RzuWLLnqn/hcE8BUd9P/UNDu2X3fkxBw5e92/Wv4JXNLqAZWTGExuADNMjGLb/uGjaNB5c8dl+dzjcTY1ZkRgZb0tFWNMX7PJEW647rqOyg/E5fffXxhRrZFWuY4YWsGRdRd/6P8WWTk/N54crFXnzl4otfCium3W3LFT4+XGy5WuTFaRiix5T5M2fZ+y6VwcTXTD5wMim+m6CDhkp57DRKW9v7ON/cdDgbca8SQjwikYVsIZM/uBYScXEBiDj7rmMxqwt7/1rkvhsJqx/hca5/61tCkdTP/wqO2g09oT4TR/aVB5u9Hs6FWRl7olgXUVn363IGz9r+vpTjf9QuWveUvjpK+WufiMxn7B3g8LPXq3YoscTukC4rdymyEvfUfT9iYy8+irhqgNPJWyA4IjvNnj9skSJffKi3B3LOG7wsOgbZACvaNQKoq7r3mj4WzuAzPWTIZPKyuZfX/QsUUgHFnDnRwENs782pgff2+GJtlxQ1D6uBaTN5Y1f/6h9flbGnxPumn8rvGmeggMuV6D/+VJOAlaosK7cde8qtviJ5BQJYmFF379fsU9eVLDoWjm9T5JMfJ44aWv2KLb4ScWWPf3lpxc2tbmfvHhgQfCDfebejY0/rpsXyIarDv7vk7DYvLv2bUXLHpRpUf80Yadjf7mb3v/q/a/epdjyf9bzYdFmn6PRV36grDP+Uu8C9EAKbMgd9/4KYoBXNPjOY+SDM/ND0bzNkvKJDUAGqwi6zqC5Nwxal+lBhCaNuM0a+wdOCTTE397cqh9NX++Jtrz746M1pGeruG3v0Vk7dP1jaxr8+vzcgHb8hWdDfE4wT07P4xXoNUZOtyIpq0XTtxWLyN2xVO7ad+SufatB08kS1tFu1UnOEWcqcPjJMoU9G7+BaEjulgWKrXr9wILzboRzJV05WQoce4WCx1zSqGJubNkzis76M/khUdWCB3PHzbmOIOCZ7kJDX1gbzb3CULwCgMJowD5VVLpgVNn44oy+k7COuslyQqABN1iu1f1vbfNEW4b0bBXX4pUkbdnbuNEwHRh99WXRGrmrXpW76tUDT+dr10dOuz4yhYdILTvIZLWUslvKZLeSsj6d8hWtlY1USTXlspXbZSvWye5ZLXfnx3EbodTs62TldsUWPqTYwodkWrSX6Vokp+1hMq0/3a9gnhTMlWSl8H7Z2n2yldtkKzbI7vzowL5Eazk/MoEbUWzhw4otflxOjxFyOh0t066PTG5rKTtfsjEpUnVgdFv1btl9m2T3bmL6IRLKuGL9K3hKgwtYRmYscQGAJGuHyjo/k/TLzM7B7coUQjTE8x/s0bpdIU+05ZrjOsZ9m1sqGlfL7tE2h5Oi7muL7K5PFNv1SXrtVvUu2VWvilWrUKdYRO66d+Sue4cskGpu2LKAO7ylQZPyP128fRBxAcABxtifDZ5SNiajM5DpwpmAhrjnTW+MvmqVE9AFRe3ivt2Pt9Y06vVHdMrlpAAAeJqVyvJvmL2DJOAlDSpgWeteSFQA8Pnrp+PaR4+5f0mbDO7YdOI0QH1mr9qv99fs90RbLh3WXvm5gbhv96Mt1Y16fe+OFLAAAF5nXiYDeO4GrIE3KRcTFQB86Ye9e7YT+VsGB9CZcwD1+esbWz3TlqtHJmL6YFh7qhr3FLLDKWABADzOyp1BCvCaegtYRaULBhupD1EBwJcZo8uLJy3MuFGqduqAlpJacgagLmt31eqlJeWeaMsx3Vto8KHxP2WXbq5u9Hv6MIUQAODtHu6uvK1z55MDvMap/wXORcQEAHX9xtuJw6bMzajpdKGaVoy+Qr3ufXObYq43HlV53XGJ+Youa2QBK+gY9WxHAQsA4OGurdxXzASeOQHvqbeAZWVZ/woA6tY+ZoOlmbTDrrGsf4U67a+N6fE5Oz3RlhbZji4Z2j4h2162pXELuB/aPkfZQZ7eCQDwMsP0QXhSnQWsotIFgyUdTkwAUA9rzi0qXZAxI1YDLOCOejwxd6f21cY80ZZzBrVV67xAQrY9t5EL1PfpmMfJAQDwslgoEnuVGOBFdRawjMwlRAQADWNk7smUpxJaq44ccdRxfmjyO9s9057LEjT6ase+iFbvqG3Ue47qQgELAODl/qzmFdz8/m6SgBfVWcCy0teJCAAarHNOIPKHjOjcGEZg4eDe/mSvlm+t8URbOhZkaUzf1gnZ9qxV+xr9nqJDefYBAMDL7D/JAF510ALW0CmLD+PpgwDQaNcVlS4YlfZdG6sOHGocTKmHRl99Y1gHBZ3ErDk1d01lo99T3LMVJwgAwLt9POM+TwrwqoMWsGJu5DTiAYCmXFdNaf9py7LTu3OjdhxqfJVN5WG9tLjcM+25bFjiTtXZqxq3/lXblkEd2i6HkwQA4FXLcse9v4IY4OEbra9mZE4hHgBoPCP1yyuvvTWt99FSwMJXe/C97Yq61hNtObpbCw3onpgpe1UhV4s3VjXqPUU9W8nwAEIAgEdZY58jBXjZVxawRk94KyjpROIBgCb7+aAHF3ZN390zFLDwJeGo1UMzd3imPd8Y1j5h237nk72KxBpXqBvC9EEAgIcFjH2eFOBlX1nA2tetoERSa+IBgCbLD0TtH9N39ywFLHzJM2W7tGNfxBudcMfo0qGJK2C99tHeRr/n2ENacJIAALxqc9Z18xYSA7zsKwtYAWuZPggAzXf5kMkLT0jTfaOAhS+Z+LZ3Fm8feXi+uhQmbim615ZWNPo9jMACAHiWMc8aI0sQ8LKvLGBZORSwACAOXQFr7d2aYJ102ilbWpQliTtxfM4HG6o0f22lZ9pz3qC2Cdv28q01WrurtlHv6d4mW51bZ3OiAAC82b8zep4U4HVfuqkaeu+8drK2mGgAIC4GFXUpuzKddqgq6rSTxFLU+BwvrX3lmMQWsGZ82PinLI7pW8hJAgDwqp25m7PfJQZ43ZcKWG521kjV8XRCAEBjmd8WlS5Im8VvsgJOW44pPqsq5Gra+7s8054RhxckdvrgssavfzWmbwEnCgDAo11VPWMmvB0lCHjdlwtV1g4jFgCIZ59A3STdki77E1OAh3zgc55esEv7amOeac95g9okbNt7qqKavWpf464BRhpzFF8bAIA3WetMIwX4wVeNtKKABQBxZmRuHzBxccf0+OGw3Injcx702PTBrw9O3DMGnl+4W5FY49a4HdC9pTrkZ3GiAAC8aHtum65MH4RP7kM+68BCw6x/BQDxl5/tRH+SDjtiHMtcKPzX0s3Vnlq8fVivfHVN4PTBZxbuafR7TupLzRcA4FlPm4unx4gBfvC5AtaQrov7SqKXBQCJcf2wKYu7+30nXDn8TuC/HvbQ6CtJOn9w4pZo27U/onc/2dfo942hgAUA8ChrNJ0U4BefK2BZuUwfBIDEyY3G/D8KyzCFEJ+qibj6+zzvLN5ujHReAqcPPvfBHkXdxk0fzM1yNOLwfE4WAIAXbcst7D6TGOAXn59CyALuAJDoG+yxQ6csPszP+2BdcTcOSQfWgyqv9s5Di47t0VLd2yRw+mBZ46cPjjw8X3lZPNwZAOBJTB+Er3yxRzWcSAAgobKsG7vdzztgmGqOTz00c6en2nPGMYUJ2/b2fRHNXNn46YPnDmrLiQIA8CTXcZ4gBfjJfwtYRaULWkjqRyQAkFhW9pt+HoVlZChgQSu212jWqn2eatOZAxNXLHpi7k7FGjl9MOAYnUcBCwDgTavzrps1jxjgJ/8tYBnXHikpSCQAkHBZsVj0B35tvDUuUwihR2btlLXeaU/Xwmwd26NlwrY/dXbjR5uN6lOgDvlZnCwAAO/152QeN0aWJOAn/ytgBRxGXwFAkhija4tKF3TxaetbcAQzW9S1enKut6YPnjWwjYxJzLbnrN6vT7bVNPp9FxQx+goA4NW+aPRJUoDf/LeAZa36EgcAJE2OY3SrP5tuczl8me31ZRXavi/iqTadcUybhG37kVmNL9Y5Rjp7YBtOFgCA5xhpTu6491eQBPzms4u4U8ACgCSy1tx4zP1LfHeHa2QoYGW4v8/b5an2tMxxdMKRBQnZdmUopucW7m70+447orU6t87mZAEAeK8PaszjpAA/+t8ILOko4gCApMrPCURu8F2nR6KAlcH21sT04uJyT7Xpa/0KlZvlJGTbTy/Yrf21jX/C+NcHMfoKAOBJkbANTSMG+JEjSUWlC7KMdDhxAEDS3dx/2jK/DdOggJXBnlmwSzUR11NtOv2YwoRtuynTBwOO0bk8fRAA4ElmRsH4sl3kAD9yJMk65nBJjHMHgOTrklcRusRnbc7jsGWuJzw2fdAY6dSjEzPaaeH6Ks1bs7/R7zv16EKmDwIAPMkY+wgpwK8cSQrEWP8KAFLG2h/4rMWMwMpQ63eHNGf1fk+1aWD3lupUkJWQbd//1rYmve/qkR05WQAAHmR2ZRfue4kc4FeOJLnGHkEUAJAyA4onzh/to/ZSwMpQj83eIWu91aZTji5MyHZ37Y/ombLGL97eqSBLpyaoTQAANI/7qLl4WZgc4FeOJBmZ7kQBAKm8Gjvf9lFrKWBlIGulv7+/23PtOrlv64Rsd/K721XbhLW+rh7VUVkBwwkDAPAc49ippABf3zIdOJMtBSwASK1zBj24sKvXG2mtjKQcDlfmmb1qn9bsrPVUm1rmOBraq1XctxuJWT00c0fjbwyMdGVJB04WAIDnGGvn5oydt4Qk4GcHCljWdCMKAEipoBN1r/J8Kx8ZnSOJ4SUZyGuLt0vSmKMKlRN04r7dZxfu1ubyxs+wOKlvoXp1YIAiAMB7rHEeJgX43X96fRSwACDFjMxYTbCOpxtZE+UJhBkoFHX13MI9nmvXSX0LErLdSW9vb9L7vjWS0VcAAG/24HKys6cRA/zOGT3hraAkHpcDAKnXa0jnD070cgOrA4bhJRno1aUVqqiOeq5dX+tfGPdtzl61X3Ob8KTFDvlZOntgW04WAIDnGKPp5uq3K0gCfudUdWjZRVKAKAAg9ayxYz39o+GEKGBloOkLvLd4++EdcxMyXe9Pr2xp0vtuOLGTsoPMrgUAeE8sZieTAtKBYwJBFnAHAO/4+oCJiz07KtaRQwErw1SFXM34sNxz7UrE6Kslm6r06rLG72uLbEfjju/MyQIA8KKPWtwwdxYxIB04LutfAYCXZGc5kSu92jgTZQphpnlxyR5VhVzPteukvq3jvs07X9kiaxv/vm+N7Kh2rYKcLAAAD7L3kgHShSNjOxEDAHiHkRkraz05FylqKGBlmqc9OH0w6BiN6hPfBdzX7KzVs01YqD7gGN00htFXAABPqswJ2SeIAenCkVRIDADgKUcOKf3gOC82zFg3h8OTOSqqo3p92V7PtWtwz1ZqnRff5TvvfHWLYm7jh19dVNwuIWtxAQDQ/I6bHje3zNtHEEgXjjE2nxgAwFussdd5smFBx+HoZI5/LdqjUNR70wdHHxnf0Veby8N6Yu7OJr33lpO7cKIAALx5sx8Ti7cjvc5pK7UmBgDwnPNK7pqdRwxIpWnzd3uyXfEuYP3p1S0KRxs/+uqkvq016JCWnCgAAM8x0uzsG+Z8QBJIJ46xTgExAIDn5Mda5ZxGDEiVnfsjeucT7806yM1yNLx3/AaPr9sV0sMztzfpvd89pSsnCgDAk1xrJpIC0o1jZRmBBQCe7HjoEu81yliOTGZ4pmy3oq73DvewXvnKy4rfTNbfvrSpSaOvRhyen5AnIQIAEAc7csOtpxMD0o1jrBiBBQDedPaAqYu9NT/J8ebTERF/T5ft8WS7TjgyfqOvVm6v1T/m7WrSeyec04OTBADgSdZqkrllRogkkG4c11DAAgCPapFTGz2TGJBsWyvCmrPKmw8tOvHI+I16+tW/NjZplNlpR7fRcUfQfQIAeFLEWhZvR3oKGtkCiT+oA4AXWauLJU0jCSTTPxftkQdnD6pVTkBFPVvFZVsfbqrWcwsbv0i9MdIvz+3OSQKkQDhqtXZXrVZur9XO/RFVhmKqDMVUHfrfBatVrqMOrYLqWJCtQ9vl6IjOucoJpu8DdHftj2jDnnC9rxvQo4WCTnre8+2tiWlfTVR7a2IKR61a5jhq0yKowhZBZQcz7z7XyD7V4oa5m7lixKfrIWmgpEGSHpW0P032K6gDD/NrLalQBwpCeyXtkLTP4w03rTgvAcCzzhj54Mz8WdeO2k8USJYXFpd7sl2j+hQoKxCfm5FfPL+xSUW6C4ra6dgePHkwkSIxqzU7a/XJthqt3lGrrXsj2lkZ0daKiPbXRlVZ6yoSswrHXGUFjIyMWucFlBU06lSQpW5tctSpIKjeHXJ1TPeW6tMpN21v3NNZOGpVtr5S763Yp/fXVurjbTVavyvU6FGTAceoT6dcDe+Vr1F98nVq/0K1z8/yfT5VIVd3v75Ff319qypDsTpf261Ntlb+bnBanBdbKsJ6bVmFFm2s1gcbqrR0U5Wqw+5XvjY7aFR0aCuNPLxA5xe19e1TY6vDruau3q/9tTHVRFxVhWLaXxtTbcSqKuRqfyim2oirytoD//z9tZX9jDELJOVLWm+tPYUrSoO004FC1WDHcQZZawdJ6iPJkbTEWnuvT/crIKlI0omO4xxrre0rqa+k7IO8fpukBdbaNyQ9I2mTl3YmKJmAxJq8AOBRebXR3LMlPUkUSIY9VVG9t8Kbf3w7/oj4rH/19sd79crSxhfpgo7Rz89m9FW8Ld9ao/fX7Nf766r0/pr9+nhrTVwfIJCb5eiYbi10Yt/WOqlvaw3vlZ+RozL8YM3OWj27cLdeX7ZX89dWqibiNnubMdfq4601+nhrjR6ZtUMBx6ikd76uKumgC4rbqUW2v0ZnxVyrqbN36v9e3KStFeEGveeMY9rI+PiUL6+Oavr83Zq+YLdmr9rX4D8+hKNWc1bv15zV+3Xnq5t1Ut/W+vV5h2jwof4qZP3l9S36vxcaVUP4b7XSWjuVK8tX6qEDxapBxphBn/7vQz6T2+debK193G/3D5LONcZcKGmMpDZftV8H0VnSWcaYsyT9WdIr1trfSJrrhR0LStbh/AUA7zIyl4gCFpLkpcXlisS8+YetUXFYdyrmWv3o6fVNeu8VJR10RKc8TpJm2lsT05vLK/T6sr16/aMKbS4PJ/TzaiOu5q+r1Px1lbpjxmbl5wZ07qC2urKkg47rU+DrG/t0sHJ7rZ4p263nP9ijxRurEv55Mddq5sp9mrlyn3709HrdNKazbhrTWW1aBD2f1atLK/TTZzdo2ZbqRr3vjAGFvjw3KkMxTXp7m/786lZVVEebvb03l+/VzJXLdPelPXX1qI6+yGDn/oj++vrWpr7d0n+UI+lwSYM+HVU1WAeKVe0bsQ1X0t99sr8ljuNca629UAemBzZXQNKZxpgzJT1jrb1J0vZU7mBQAACvO7WodEHrsvHFe4kCifavxd58+mCrnEBcpn88MmuHPtxU3ej35WY5uv3MbpwgTVQbcfXK0go99f4uvbK0QrVxGFnTVPtrY3p8zk49PmenDmufq1tP7qxvjeqY1uskeU0o6uq5hXv0wHs7NGtl6kZ8VlRH9dsXN+m+f2/Tz87qpvGjO3tyuunijVW6/dkN+vfyxncDWuY4Gh3Hh18kg7XSlHe361f/2qg9VdG4n3s3Pr5GrrW69rhOns/iNy9u0r7aWFPf/p6ktRl0acmS1F//K1YN0oH1q/IPnFdN/uPc2/LYNLovcCR93RjzfUklzdjP+lxgjDnBWnuFpFdTtbNBHaiqAQC8K8ex5jRJTxEFEqkyFNObH3mzTjqsV6tm31jur401dhrGf33vlK7q0TaHk6SRVm6v1eR3t+vxOTvjMoIi3tbuqtV3/rFOd7yyRT88ravGHt9JAdbLSpg1O2v14Hs79OjsHdpd6Z3zoaI6qh9MW68n5u7Sw9ccriM7e2Ok5ebysCb8a6OenLuzyQ/WGHNUoXKz/FOc3b4vouunrmnSNO/G+MG09Srq2crTaxqu2F6jh97b0eT3W2sfS+PLSUtJA/T5kVVH69N1neJZxPHw9EFH0hXGmF9I6p2kz2xvjHnRWnuLpImp2OmgeAQhAHifMaeLAhYS7JUPK+Ky5kwijDi8+etf/e6lzdq+L9Lo93UtzNb3TunKCdIIb3xUob++sU1vLq+Q9cFSq1sqwvruP9bp0Vk79bfLD1NxT55xFE/LtlTrTzO26Omy3Yq53j0hPthQpRG/+1D3fOMwXT68Q8rasa82prte3aJ73tja7Guyn6YPvrtiny6fslK79kcS/lm1EVc/eWaDZnynr2fz+NmzG5uzHmCtpKfT5BLSWtIxkoocxymy1hZJOlKfDsSxif2RqZX0rAczOdkY8ydJx6bgs4PGmPustY6k+5L+4aKABQA+YE/XBOtognHJAoni1acPSgeeQNgca3bWauJb25r03t9dcIha5jC9rCFeWVqu37+8Re+v8eeDUxdtrNIJf1yqH57WTT8/uzujsZpp4foq3fHKZv1r0R5fFDKlA098u+6R1VqxvVYTzumR1DXSIjGrh97brt++tFk741DEcYx0+jFtfJH7y0vKdcWUlUn9I8rbH+/Voo1VnhyF9ebyvXqhGVP6jTEvWGsrfHjZ6KYDi9B/dnH1Q//bG07yhcQY8y9rrZeGpvc1xtyrAwuzp5IxxvzNWrtNB55UmDRBHRh6BgDwMCt1HNxt4aCFUhlpIBFCUVevfOjNAlZ20GjIYc0bEfPjpzcoFG38jVFJ73xdXNyeE6Qes1bu00+e2aD56yp9vy+ulf44Y7Pmra3U1GsPV4f8LA5wIy3bUq2fP7dRMz4s9+0+3DFjs/ZURXXPZYclpYj1wuI9+tmzG7Vie03ctlnUs5U6FXj//H1i7k5dP3VNXJ8+2vDP3uW5AlY4avXdfzRv6SrXdf02ffDrxphJkjy1ur7rul6ZPpjnOM5PrbU/1KfTJD3AGGMesdZ+LGlZsj6UEVgA4BMmZk4XBSwkyJsf7W3OQrEJVXRoK+U1Yw2XV5dWNOkv2Y6R7rjoUJ5SV4fVO2r1s+c26PkP9qTdvr398V4d94eleunWvurdMZeD3QDb9ob16xc2aersnZ6eKthQD7y7XUHH6O5LeybsMxasq9RPntmgmQlYzP4MH4y+enVphcZPXZOy82Xuau+NFv3rG1u0cnttczaxWylcZLtJfVxjbpfHileSdkl6xQPt+JoxZqK1trcHD10rY8xj1tqhkpKysCGjrwDANz/u9gxSQKL8y8PTB487ounTB6vDrr7TxL9kf3NkR9ZCOohQ1NVvXtykwb9enJbFq/9Yvzukk//8kT7aUs1Br+d7duermzXwl4v18MwdaVG8+o9Jb2/T3a9tift2N5WHdfMTa3XCH5cmpHglSWcN9HYBa8mmKl0xZWVKz5fFG6s8tfbj5vKw7pjRvPPNGPN3SWEffc1GSSr2Xr/bTJMUSWET8hzH+Zsx5lUlb5H2phgk6fvJ+jBHBxYmAwB439Ch985rl9IWxBTlMKQf1x5Yf8SrSno3vYj0mxc3ad2uUKPf1zovoF+d24OT4yvMXrVfw37zoX774iaFozbt93fb3rBOu3t5k86jTPBM2W4d/YtF+vlzGz07irO5fvbcBr2+rCIu2yqvjur2Zzfo6J8v0oPvbVeiajeHtMvR0d1aeDbT7fsiuuC+T1QZSu05E4lZbS73Tq3n+9PWNTsTD017axBjzPc82TdKbY7HGGPmWmtvlg9mzBljfiKpbTI+y7FSFT+9AOALATeYdUoqG2CNyx1cGlqwdn9cFgxOyEnvGJX0btoIrCWbqvS3N7Y26b0/ObM7ax99QW3E1Q+nr9fJf16mT7bVZNS+79wf0fn3fay9NTFOhE+t2xXSefd+rCumrNTWinBa76trpWseWd2s/YzErB58b7sG/nKx7n5tS5PW5GuMMwd4e/TV+KmrtckjhaPyam/8be6Zst36Z/NHtK6U9L6Pvl6HSTrHg+1aLWluCj7XSLrNGFMmaYCPjmNrx3G+k4wPcowsBSwA8AtjT09tMcHWcBDSz4ylFZ5t2zHdWqh1XqBJN5y3PLmuSYsCD+jeUjee2JkT4zOWbq7WqN8v1b1vbvXN0+TibfnWGl3z8KqMPxciMat739yqIf+3RK96+NoRb7v2R3Tj402bjvzSknIN+tVi3fzE2qT9seCMYwo9m+Ujs3Z46typqEp9AWtPVVTfe2pds7djrZ0qyTdXacdxbpUU8Fq7rLWPpyDHAmPMdGPMHyT57i9o1tqxyWh3UDIUsADAP07TBOtogknJgg02Egwp4HIU0syMD717Ezri8Pwmve+Bd7dr3prGL84bdIwmXtlLWQFWbv+PiW9t0+3PblBtAteJKcgN6MS+rXVY+1x1aZ2lVjmOKmpi2r4vomWbq/Xuin2KxFJ/T/byknI9OmuHvjmyY0aeC2XrKzXu0TUpXxMs6Bx4MumYvq3Vv2uejuycpw75WWqZE1Ao6qom7GrFthp9sKFKbyzfq7c/3huXqXqvLC3X0wt268Lihs3mn7N6v378zAa9vya5C4Xn5waatXZgIm2pCOv2ZzZ4qk0xD1Tlb3t6vXbsa3Zx00p60keXlAJr7dUebVuycxxsjJkuqZePfyI6SzpD0j8Tev0XUwgBwE86DOm6qGi+ND8VH24Dpobb+vSyuTysJZu82xUY1qvx619tqQjrF8837Qbp2yd30eBDW3JiSKqJuLrp8bX6+7ydCdl+wDG6eEh7fXNEe404vKDOomF5dVT//GCPfv/yZm3YndqZzLc9vV4n9ytUtzbZGXMuRF2rP768WX+csTmlhcR+XVvo6pEd9I3hHdS2ZfArX9Mi21GbFlLXwmyNPqq1vntKV23YHdJf3tiqB97d3uz23/b0ep0xoI1aZB/8WVirdtTq5yl8OufJ/QqVE/Tms7pu/ftaz0zZ+985k9oBQDM+LNcTc+NynZ0paY2PLi3XSvJipfV9SSuSmYMx5l5Jvn/creM457ium9gClrGqstyNAIBvuDZ2vFJUwIq6bm0Wz69NKy9/WO7pKWElvRs3Asta6cbH1zRpraJD2+Xop2d256TQgafvXTpphRZtjH9x0xjpG8M66CdndFPvjg3rr7dpEdS3RnbUhcXt9O0n1uof7+9KWTZ7a2L67UubdP8VvTLiXFixvUbXPbxa89dVpqwNA7q31O1ndtM5x7aVacJ9yyHtcnTXJT117XEd9c0HVmlZM0aQbakI6543turHZ3T70r/bXRnV717apClxKJQ1x+lHF3ryXPr38r160YNPvG2Zk7qOzc79EY2fuiYuv8PW2sd8dGkJGGO+7cWGWWufSFYGjuP8yVr73XT5vbDWnproz3CsYQQWAPiJMTouVZ/dKhLjybVp5hUPr2HTpTBbPdrmNOo9D7y3vclrq9x7+WEpvZHxirmr92vk7z9MSPGqc+tsPX/zUXrgW70bXLz63DUoJ6CHrj5cV49K7RS+x+fs1Ood6X05tPbA9NGS336YsuJVYYug7rqkp2bffrTOHdS04tVn9e/aQm/f1l8n9yts1nbufm2LKj4ziqg24urOVzer/88/0P1vbUtp8SrgGJ3uwfWvYq7VbU+v9+ZvTevslH3HbnhsTbzWRauVNN1Hl5iv68AC7l7jSno6GV1qY8yz6VS8+lS3T/+TMI6YQggAPrurcI7TBJuau+zOlRSw0khNxNXbH+/1bPtGNHL01bpdIf302aZNHbyipEOzb2rTwTNlu3X6X5Zrd2X8p/icfkwblf1igE7p37ycjZH+etlhGnRI6qZ6RmJWd7++NW3Pg/21MV0+ZaW+99Q6VYdTs+7h8UcUaMHPB+iGEzsr4MRvukirnICeufFIjenbusnb2FcbU+k722Xtge/MoF8t1s+f2+iJp1QOPayV2nvwCaoPzdyhpZurPdeuoGPUqSA1eU15d7teWhK3EWkvSqrwyzXGGHOrR5s2R9KWBH9GT2PMbHnz6YvxMDiRG3dkeAohAPiLbVvcaUG/lHQ4Ll4W1oG/TiENvLV8b8puTht6I9ZQrpXGTV2t/bWNv4Fs1yqo359/SMafD3e9tkVXPbAyIYu1f2tkR0274YiDrlvUWFkBozsuOjSleU2fv8vT35+mWrq5WiN+96GeW7g7RTe20k/P6q4Z3+2XsHXGsoNGT4zto0Pb5TR5G/f+e5tG/eFDXTFlpdbtCnnm+Hlx9FVtxNXvX97syfO9a5vsuBZIG2rxxir9OI4j0nw2fXCIpFGe7GFbm+jRV0ONMfMkHZPG3YmEjqxzZM1uAQB8xTrmuBR+PKOw0sSryyo83b7hjVjA/d43t+q9Ffua9Dl3XtzTkyMWkulnz23QT5/dEJcntX3Rj8/opvuv6KVgnG8SR/Up0FkD26Qss321Mf0zRYt0J8rf5+3S6DuWalWKpkfmZTmaem0f/eys7kp0TaGwRVAPfKt3k6cl7tof0cL13hsHcOaANp5r04PvbdfWirAnz/m+XfKS/pnl1VF9Y/JK1cTvjwV7JL3il+uM4zjf8Wr3WtKzCdz+GcaYf0tK68fYOo7TI6Hbt9ZspwsPAP6SynWwLAWstDHjwwrPti03y9GxhzSsgPXx1hpN+OfGJn3OuYPa6tKh7TP2HLBW+tH09frzq4mZMfHdU7rql+f0aPbaRQdz+fAOKc0vjtN/UioSs/reU+t0zcOrVBVKzaiy1nkBvfSdvrqwuF3SPnNUnwJdXJw+3//D2ueqX9cWnmpTbcTVXa95d7rt0d2Sm5drpWseWq01O+PXlTLG/F1S2CenaTdr7UUebds8SRsStO2rjDHPS8qExxy3TuTGHcexFLAAwHc3neb4VH22oYCVFpZsqtLGPSHPtm/woS2VHay/6hGKurr6oVVN+kt2+/ws3XPZYRl7DsRcqxseX6O/vZmYm8tLh7bXb7+e2KmZpx5dqFY5gZRl+M6KfZ5+imdD7K2J6bx7P9bEt7alrA1tWwb18nf6Nfqpo/Hw0ySM9kqWMzw4+urRWTu0pcK7tZV+SR6B9buXNumVpfEtfLuu+7hfzlHHcW6W5Mkhz9baZxK06Z8YYx7x6n4nQEKrwo7ECCwA8BsjdRs6ZXGq7rwpYKWB1zw/fbBhN7I/eWZDk5+WN+nKXupYkJlTB62VbnpirR6dtSMh2x99VGuVXtU7YSOv/iMvy9EJRxakLMdd+yNatqXat+fB5vKwTr5zmf69PHUPcyjIDejFW/tq8KGpGZjQp1OuTunfJi2+12d4bP0ra6X73/L2reaxSXwYxPQFu/W7lzbFe7MrJc31ySmaY6291sPti3cBy3Ec5x5jzO8OdN0z6TYlcRwbjW0TAMB33FgsVdMIKWClgbc+3ufp9g1rwPpXLy8p16S3m9aNufa4Tp5cKyZZN5XffWpdwopXnQqy9Mg1hzdoBF089O+W2ilTXnyyWkMs21Kt0XcsTWn787IcPX3jkSl9oqQkXTasne+/163zAhrVp8BTbXptWYVWbK/xbGaFLYI6qktyrh8L1lXq+qmr4z5i02eLt18oqYNH27ZA0to4bi/gOM6D1tpvZ2A3I6EdTCeaF2QEFgD4UArXwaKA5XO1EVdzVu33dBuH1TMCa1N5WGMfbdrNQM/2Ofr9BZn71MFfPL9RpW8n5u+XjpEeuebwpD6W/qjOeSnNM1ULnjfHGx9VaMwdy7SpPLVTuyZe1UvHHZH6ossZA9okreCaKF/rX+i5fZj0trdvM4f1apWU6aNrd9Xq6/d9koinllpJT/in32rGe7VtcZ4+mG2Mecpa+60M7WYktIPpLLp6UIWkkAAAvmJlR6akA0IBy/fmrN4fz6cfxd1h7XPrLIBEXasrH1ipPVXRRm874Bg9dPXhys8NZOSx/8PLm3Xnq4l7nP3Pz+6h0Ue1Tuo+HZniAtaanf7qRr+8pFwX3r9C+2pjKW3HrSd30SVDvLGAequcgAYf2srX3+0zjvHWiNKtFWG9/lGFpzMb1qtVUnI4+56PtWt/JBGbnyVpjU9O0b6SRnm4fc/FaTstjDH/lHRBpvYxXddNbAHr0/9mFBYA+M+RIx+cmfQVb62lgOV3np8+2Lvum4r/e2GT5q5uWv/oB6d2TclC0V7w+Jyd+vULGxO2/eG98/Wj07slfb/atExtMXJ3ZcQ358DTC3br0tIVCkVTW8A+/ogC/eZ8b42C9PN1IeAYnXp0oafaNG3BbsVcbz/h4Gv9ChN8bYjqrHs+1uoEjdL00/RBx3FulHfXgVos6ZM4bCffGPOypNMyvJuZ0MfzUsACAP9yaqO5A5P+qUZVRO9vqVywuSEG17EezowPy3XnK00bQTSwR0vdfmb3jDzmb3+8Vzc9sSZhT8zLDhrdd/lhKXmaW35OagtYVWHXF+fA0wt26+qHVikSS21RoXubbD0+to+CHnv031Gdc337/S7pna+2LYOeatNT7+/ydGbt87MSOupub01M5/xtuT5K3EMewor/ouOJ0tJae6VXGxen6YNtjDFvSDqBXqbWJfTm59P/3kzOAOBLg5P9gUaqIHb/2lMVbfJT+5JlSM+vvqlYtaNW1zy8Wk35o36LbEcPXd3b9+vcNMXijVW6eNIKhaOJK1z88NSu6tc1NYupt0zxdNDKFE/Fa4gn5+7Utx5apWiKR8TkBB09Of4Idcj33tM/D++Y59vv+Okee/rgmp21+mCDt39nTju6MGEF9137IzrjLx9p4fqEZvCCpN0+OUUvldTaw+17upnvb/tp8WoovUxJ0upEbvxAqd7YNbKGqAHAb6wZlPyPNBUJG8aBhHv7k72entaRFTAa+BUjsCpDMV0yaYUqqqNN2u5dl/RMWYEllXbsi+iiiSu0P4FFlqO65OmHKZg6+B/ZAZPyc9bL/j5vp8Y+2rTCb7z99KxuBy1Qp1phC/+ui+e1J6q+srTC85md2r8wIdvdtvfAmleJfrqnn6YPGmPGerh5yyQtb86lwxjzqlLwB2Wv3pkovk9z/JKgJBlpNbciAOA/xqgo6b9M1lbwJw//etvj618d072F8rKcL5xz0vVT1zR5KsbFQ9rrmyM7ZtyxjsSsrnhgpTbuSewi43de3FM5QSdl+1md4il8bTw2deuzZnxYrvFT13iieHVsj5b6zte6ejar1nlBX37Pe3XITfmDDL7o9WXenqYedIxO7hf/AUGrdtTqrL8u1/rdCX+ww25JM3xyivaTNMy7/WjzT9v0P8q2+3Tk1bH0Lv9rsxL8sCdHkmIyq8kaAHypX1HpgqQOKzEye4ndv/79sbcPX/FXjM74w4xNeqasaTMlDu+Yq3svPywjj/Wtf1+r91YktmB5cr9CndQ3tTNDUl7AauHNwsf8dZW68oGVKV/zSjqwRtoDV/f29Gi11j4dgXXOsW091Z5Q1NW7K7z9OzO8d74K4/y9fevjvTrhj0uTUbySMeYpHVgDy/Mcx7nGy+1zXfflJr61vTHmTcWveLXDGPOItfZn1tqfS3pZB0Yz+c2KRH/AgW+uo9WKCQDgPwFJx0ial6wPtNZWGIZg+dKG3aGEPQ0pXooO/fz0wTc+qtBvX2zaUp25WY4eH9tH+bmBjDvW97+1TQ/P3JHYGxMj/d/Xe6R8X6tCqe3EenHq2fKtNTrvbx+rKuSNBeZ/ckZ39ff4FN6W2QEFHOP5J+d90WlHe2tpoSUbq1NeVK4/s8K4bu/B97bru/9Yl7Riseu6fpk+mOXlxdsl7ZE0twnv+0/xakAc2jDPWvsnSc9ba2Of6WtL0hnGmOclZfnkeMsYs9AmeJkRR5IKNu1bJykqAIAfJXXeveOYCiL3J6+PvpKkos+MwPp4a42ufGBVk28o77qkpwb2aJlxx3n+ukr95Jn1Cf+ci4e217EeyHdPVWq7sN0Ksz11/DeXh3Xu3z5OeS7/MbBHS33/1K6e/95YSa7P1ncsbBHUiMMLPNWmhesrPZ/baXFa9L4yFNPYR1fr5ifWJnOk40ol8Y+WzXSWJM/O3zfGvCY1ehhPuzgVrzZYay+x1pbowNMkv6odLxtjJvnpmuS6blnC70Mk6e0JJ0YlbaBrDwD+48hJagHLdW0FqfvTzJX7Pd2+VjkBHfXpWi67K6O6cOInTV60/aLidrp6VOate7WnKqorpqxM6BMHJSngGP38rO6e2Od1u0Ip/fwiDy1KXhmK6dy/fZzwdc8aKugYTf5mL88vdC9JtRHXd88nObV/oeeyXbih2tOZHdUlLy6jAcvWV6rktx/q8Tk7k9p+a+3j8snUMmNMuk0f/M+C7c0tXj1rrT1W0rT6jqXruk/4rBuS8AJW8DNn2GpZ24vuPQD4i5VNagErEHArXNcheB+avcrbBazBh7ZUwDGqibi64P5PmjzdsXfHXN17ReZ1aayVrntktTYkYQ2Wswa2Ua8OuZ7Y77W7Ujct1pgD561Xjv/1U9do2RbvFBCuO76TBnT3xyjI6pD/1lM5Y0Ch59q0fKu3C1iXDW3frPeHo1Z/fm2zfv/S5lSsL2cl+aWg0UXSaR5unyvplUa8Pt8Y87LUrIcn1Vprvy/p/ka8Z4mPLkl7Ja1K9Id85g7EZSF3APCn/hdNm5a0RVhc47CIuw9t2xtO6Y1+QxT3bCXXStc8tErz1jSt2JaX5ejJcX1UkIHrXk18e5tmfFielM+6eUxnz+z3+t2pW8v48I65nlnE/bcvbmzyww4SIT83oJ+c0c033x+vr9v0RUHH6Gv9Cz3XrmQsYt5UxkiXNKOANXPlPpX87kP9+l+bUvVwhNmS/HLPfqk+O1jGexZIaujwuRbGmBcklTTj81Zba4epccUrSapRgp/qF0cfKAmjA/97UlmrVazJCwC+lLN6X+/DlIS/ekhSOBauyFY2qfuM16cPSlJRz5b66bMb9PwHe5q8jbsv7embER/x9PHWGv3s2eSsBnFsj5Ya1cc76+58uDl1Iz68sv7QC4v36Pcvb/bUOfnjM7qpY4Fv1h72XQFrZJ8Czz0Bsybiauf+iGczG3F4gQ5tl9Po963bFdKvXtiop97fldJpptZavyzeLmPMFV5un7W2odMHs40x0yWd0IyPm2OtPU9SU56sEpSU45NjPtMm4Qvy2aveh3TvAcCfTMweqSQVsPK35leEuoSsJP7u4SNz13h/Yd1lm2v0l9e3NPn9N5/URd8cmXnrXkVdq7GPrlZNJDk34Def5J3RVzURV4s2pO7cvri4Xcoz+GhLta59eLW89PC8nu1zdJOHRuk1hN8KWKfHaSHyeNpaEfb0OmKXDmnc93VLRVh/eHmzHp29I+HrCjZASNJ0n5ye/ZTkBww1QUMKWNnGmGckndHk/rkxj7muO/bT49cUXf3S33Zd951kfM5/pxBG3KxFdO8BwLeOStYHmQlvRyVVEbm/zF3t/RFYd8xo+giS444o0O/OPyQjj+3vX9qsBeuSU8TJzw3o/KJ2ntn3hesqU3Zj2bl1tk44MrUjsKpCri4rXan9td5av+k3Xz9EOUF/rZW4Y3/YV+09c0Abz7WpKuTdImB20DT42lW2vlLjpq5W/58v0pR3t3uheCVJL0na44dz03Gcy73+dVf9i40HjDFP6MCTFJvCWmt/4bruN9X04pXU/AXjkyWsA1NcE+6/I7CW3DBwR3Hpwu2S7UQ3HwD8xZFzVJI/skJSK5L3h8pQTIs3er/mGG3iEJLubbL1xNg+vnjSWbwt21KtO19N3tSxs49tq7ws7xQmZqbwwQQXFbdTwEntOff9aeu0YnuNp87JYb3ydf7gdr77Lm3a458C1lFd8nR4x1zPtas67N2F8E/t30ZtWx58yuWOfRH9c9EePTZ7p+av896IZR9NHzTWWk8XsIwxr1hr66q2GsdxJllrL2xqd8Zae42kZh8zx3GGWH88HnW+pKTM5w9+4WxbZI1OpasPAP5iZVNRwOpO8v4wb01lk4tDXpeb5ejv449Qh/ysjDuurpVuenxtUkcHXFTc1lMZvLi4PCWfa4x0ZUmHlO77M2W79eisHZ47L/9wwSEyPqwlb90b8U1bzzimjSfbFYp693fmkqGfL6rGXKslm6r13op9enFJuWav2q+Yd38n96hhU9684DhJh3r6t9N168zScZzfW2uva+Lmw58W8J6OS//e2lP8cNCNMW8lq9D2uQKWNVosUcACAB/qm+SfqookPGgEcTJn1b603be7L+2p4p6ZORiw9O1tTX5aY1O0axXUSX0LPbP/63aFVLY+NSMlzhvUTsd0b5Gyfd9UHtYtT6713Dl5cr9CDe+d78vv04Y9Id+01YvTB6UDU4y9KC/LUUFuQA+9t10rd4S0dHO15q3Z77mpt3UUB6ZZa30xRNBxnMs8PmIoJum1Ov7996y1tzVx27Wfjtp6KU5tbSNpiB+Oe7LWv5K+WMCSXWxYkxcA/KhdUemC9mXji3cl5dOsreDnwj9mr65My/264cTO+lYGLtouSdv3RTThnxuT+plfH9zOU9M0n124OyULRjtG+skZ3VJ3o2Clax9epT1VUc+dlz8+vatvv1Oby/0xhbBty6CG9vJm0b5dy6An21W9VMVkAABic0lEQVQTcXXO3z727bnpuu4TPmlqwFp7vsfbuFDSwYbuftMYc2cTt1v16ZMG34hjW8dICvjguNcoSetfSZ9ZxP3AD3JwMd18APCt5C3kbrSbuP0h6lrNX5t+BayRfQr0xwsPzdjj+ovnN2pfkkcPnH50oWf231rpsTk7U/LZXx+c2tFXf5yxSe+u8N6oypP6ttbIPgW+/U75pYB16tFtFHS8+Rek9vlZcvjjVrxtkDTLJ209QZKn/6pkjHn7IP/qHGPMA2raE/8qrbWnK77FKzmOc4pPjvtbStL6V9IXClgtt5R/IqmW6wQA+FLSCliutJW4/eHjrTWqDMXSap+6t8nWkxm6aLt04AlZj89J7tpHWQGj447wTnFixofl+nhr8hcvz81y9ItzUrf834rtNbpjxhZPnpepHJXWXJGY1brd/rgFOnNAoWfb1iLbUb+uLYT4McY8KZ+s2eA4zkVeb6Prum9/xT8+3hjzD31hdloD1Vhrz5H0XrwPvbXWF0s7WWuTuj7b5wpYb084MWqkZVwqAMB/kvkkQiNtJ3F/WLg+vUZftcoJ6JmbjlTHgqyMPJ7WSj+Ytl7JXmu4uGcrT61v85c3UlND/8XZ3XVEp7zU3HhZ6YbH1qg24nruvPT76KuPt9Yk9WEITZUVMDqpb2tPt9HP54EXua77d5801Q/TB6OSZn7hnx1jjHleUlMu7GFr7UU6MAIp3obK44vhf8aM5N7vfLFjJC3gUgEAPuzkWNsrWZ9ljNlG4v7wwYbqtNkXx0gPXdNbA7q3zNjj+c9FezR39f6kf+6Yo7xzUzp39X69l4IpdMN75+uWk7ukbL8nv7NNs1ft9+R56efRV5K0dHOVL9p5/BEFKmwR9HQbT/Z4gc1nPpK0xCdt9fz0QR1Y/+qzPx69jTGv6cBi6Y0V+bR49VIiGuo4ziU+OkfXJLUv+BV3JbO4VgCA/xijHsn6LDfmUsDyiQ82VKXNvvzxwkN19sC2GXssXSv97qVNKfnsMR55+qBrpR9NX5/0z22R7WjyVb0VSNECP5vKw/rF8xs9eV4ed0SB70fdLN1c44t2nuahdegO5vRjCnVouxx+fOPAWvukX9rqOM6F3u8nm89O8+tqjHldUucmbCpqrf2GpH8lKs5Pi2M+uPcwLyX9XPtSI6IxClgA4E9JG2rsOIzA8oOYa30zsqA+3xrZUTef1CWjj+dT7+/Uh5uSP6IuJ+iouKc3nnr2xJydmr8u+dNi/3LpYerTKTdl+33r39dqf60317L79kmdff/d+nCzP0aqnn5MG8+3MeAYXXtcZj4dNhGXfZ+003y6DpSnua4799P/2cYY84qkw5qyGWvttyQ9ncCmjpTU3Q8H3nXdl5P9mV8qYM2/ccgasTgvAPhRh6LSBUlZPTU7O4cClg98vK1GVSHX9/txcr9C/e3ywzL6WEZiVr95cXNKPrt/tzxlB1O/YH55dVS/+GfyRyF9/9SuunJEh5Tt98tLyvXyknJPnpc92+foDB8UVeqzZKP3C/1HdMpT7465vsjz+tGd1b1NNj/CzTNH0iqftLVYUjefZJpnjPmXpGOasgFr7fclPZHIRjqOc6lPjvtufXlNsYRzDvLPZ3PNAAD/MTGblGmE5uq3K8RTaz3vg/X+H311VJc8PXbd4Z59bHyyTJ+/S2t2puYrN/hQb4y++s7f12nb3nBSP/O0o9voV+f2SNk+R12rnz63wbPn5bdP6pKyaZXxsrUirO37Ip5v52nHFPom0/zcQMb/0aG5rLV+WbxdjuOc44NmbpK0wxjztKRRTTwmP5X0lwS3M2CtvcAX9xwHFr+PJv18O8g/ZxohAPiRo0OS+GmMwvI4v69/1a5VUE/fcKTnFy1O/I2MdPfrqRscP6B7i5Rn8PDMHZo2f1dSP3Ngj5Z6bOzhKS3QTH5nuz7e6s31mQpyA7qipIPvv1/vpOCBAE3hh/WvPt/eNvrmyPSZSljcs5VM8i4FMUnT/fMbZc/2QTPnO47zsKQzmvJmY8yfJf0uCe0cI6mTH467+//t3XeUVFXWNvBn36rqqo50NznnJJlusiKYUEcUA44RRYQG45hGx9eZYZIzjmEUE0HMEdQxoAKithIaaJokOeduYudQ3VV3f3+Afo4idKhwb9XzW8v1rneAqnP3ueHcXefsY5ofhudV5+StYQKLiMiOL7oiIauDJapMYFncShsnsDwuA+9P6mybJTPBNG99PtaFsUZP71bh3fVx/YEyPDB7V0i/s0eLOMy5qwsS3I6wHXdBmS9sRfurY9zQxkjyOGx/fS3aWmz5Nia4HRjcIdF2sX32ura4oFuybc8NQ4CLe6Yg8/fdcHbnJKiG7Ku/gn1+JGwNoJcN2jlUVa+v1XhX5GXTNB8IyTlnGDfZpN8LASwIy3V50hcgQ1YBiJx9t4mIooUaIVvrosJC7lbmNxXf77NnAssQYPpN7TGwfSI7EsBT88M3+8ppCHo0D98MrNyCSlz+3OaQ1nLr3TIec+85Aw0SXWHt939+vh9HS3yWPCcdhmDC0MYRcX0ttMEMrPPOqAe307BdbF0OwZvjO6Jf2wRbtdvjMnDr0MZY85fe+OC2zkj0ODBlQejuw6r6ro3CdalN2lm/lv/uv6ZpTgAQivRlsqpeYYdgisinACrD8d0nvRPmZKRXAcjmkJGIyHYv/iGbgQXhEkIr23qwwrYF3P91VWuMTq/PTgSwMbcci7aG7wW7ZaobHld4XpyLK/y44vnN2HvMG7Lv7NMqHp/9ritS48O7bHXXES+mZlr3FntRj2S0aeC2/fV1sKgKWw+VW76dI2y2fPCnEj0OzL3nDFzR1/r39PaNPPjjyBbY/I8+ePa6tujQyANV4O53dqHKH7LpVxUAPrRL/4rIRRH8CF6uqjfg+JLOULgWQKwdAmOa5vvh+m7nr5+MulBVzubQkYjIPhQashpYqnJQoAy6RW3ItedE6vtGNMOd5zZlB54w/duDoVy28gvhSlKUVZq4dtoWrA7h7nBndkzC7EmdLFFz7Yl5B1Dps+799cYIqH0FAN9uLgzr9VW9BAEwwsbL8AAgLsbAm+M74u9zYvHYF/vhN60T9HqxDlyZ3gDXD2iAQe0Tf1Hn6s2sw6H+EeFzHF+eZQcxAIZG6ON3+4naXmWhu9ZlrE1iUwJgfri+/Nef0KbxJUQf4dCRiMhWQpbAEjXzQlnRlGrGqoWfT+W3/Rrgr6NasfN+GCF6/Xh76eGwtqFtQ09Yjnv0i1uQuSl073A3D2mEZ65tixhn+O9p+/Mr8WbWYcuel42SXLioR0pEXGN2qH/Vu2U8mibH2D7WIsAfR7bAiG71cNubO7H+QPh+ZIlxCoZ3qYdrBzTApb1TEfsrs0yPlfrwcIh3AbXT7oMAzgIQj8hzUFUvAHAohN/ZHUA/e1zL8pmqhm2Q+asJrPi8wiUlTZMKAdTjEJKIyDZCVpRERPI4/8q6tuRV2Kq9w7rUw7Sb2sFgTvRH7y0/gqIKf1jb0Do1tC/Ox0p9uHTKJuTsLgnJ9zkMwT+vbGWpWX//+TIXXp91l/9eP7AhXA77X6iqwBff51u+nZGSLPxB/3aJWPJwDzw5fz+enp8bsntcq/pujOiWjPO71cPwLvWqtUHDHz/aiyPFVaEMTxGAOXbpS8MwLlCNuJFgmaqOArAjxLG8xS6xNE3z7XB+/68msDInD/elT1+RCZXLOIQkIrKNhLRpK+JyMtKD/tOm3zDyDNNkxC1qU559ZmD1bR2PWRM72bJIcTC9tfRI2NsQyhlYWw6W47dTt4Rs9mCix4FXbumA3/S0ToLgUFEVXll00NLn5XUDGkTE9ZWzuwT78ist384LbVz/6tfEOAV/uLgFMs5ugue+ysPzXwc+kZXkcaBf2wScd0Y9jOiegq5Na1ZaaNmOYrwa4mtRRD5UVdv8+nRillIk8avqdQCWhvqSOFFryw7yAcwLZwOcpz4pMU8AJrCIiGzEdBgNAewO/kBLcxlti54DCmw9aI8EVtsGHnx4exckehzsuJ/YdcSLpTvCv7ypTf3Q1MD6eNUxjH9tO4pDNBtjQLtEvHJLe7Rt4LFUv0/5Khdlldb9YaBf2wR0D+OulIE0Z431Z181SHQhrU0CIlVqvBN/urQFhnRMxCXPbKz157idBnq2jEN6mwSktY5HWusEdGoSW+sZvT5TcdfbuxDqUl2madpp+WBjAL0i6XxU1TsAfByGr74EgC0KC4rILFX1hrMNp0xgOQzXXNP0gYiI7MPlQ0gSWJ59Mfu9Tb2+0z1LKPR2Hamw9EvwD+onOPHRnZ3ROMnFTvuZd5cfsURx6YaJwe2bKr/i73P24fG5+0NyvE5D8ODFzfHQxc3htNh61eIKP2Z8a+3ZV5FSvB0APrVBAmtEt+SIX1Zd6jVx77u7ajcOcRn45M4uGNg+MaDLWl/4Og9r95WGOhQHAXxto64bBiBizk4ReUJVp4bpu+1SvD3sywcB4JRz9ZeP77VTga0cRhIR2YcJf6OQPHAnZ/oA7GPErccOBdzjYgx8cFtndGocyw47iVnZRyzRjtSE4OWn1+0vw9B/rcO/vwhN8qpdQw++uv8MPHJJC8slrwBr1Dw7FYchGNUnNSKur+2HKrDhgPV3ao3E5YM/99AHu7GlljOG7zqvKc7qlBTQ5NXh4ir8Y07ohzYiMguAbWaOGIZxdgSdhnNM03woTN/dHMBFNonTHgCLwt2I045K5Pgax44cShIR2YOKhO4ncsEuKNow6tZih/pX95zfFAPaJbKzTmLLwXJstEASMsYpSArC0k6fqXhq3gE8+tn+kBQrNwS4dWhj/OOKVtUq3BwuLy86ZOnzcnCHxKDPyAuVj1Yds3wbnYbgvDMiey+tT9ccw0vf1W7WYaMkF+4b0Szgbfrrp/vCkki2wsyWGo01VYdGyGm4QlWvARCuXw9uBmCLGgoi8raqhn16/2kTWKZgnqG4g8NJIiJ7EEijkH2XKbtUuBeh1Wy2wQ6EjevFsKN+7aVutTWWNtVPCHyy4tvNhXhg9m58vy80s196tojHlOvaWD5ZumJXCVbtKbV0G0f2ipzd8D62QQJrYPtEJMdF7gr9w8VVuOOtnbX+949e0SrgCfZNueV4NTyJ5B0Altmo+xoAOCMCTsNdqnoJgHDdfEVEbrZLsKySZD3tXdHncX4TU+7zAnCDiIjsIGQzsEzBbmG8LccOM7Ai+cWsrj5ba5EEVnzg+mhffiX+/PFevL30cEjaHu828NDFzfG785tZcrngz81caO3ZVyLAZb0jY/ngptxyZO8qsXw7z4/g2VeqwC2vbMehoqpa/ft+bRJw7YDAD3Ue+mA3fKaG4fqSWapqp18Dz4L9618VqOpvcLz2WLgMB9DBJvFaC+B7KzTktCOTtWN6laZPy/kGwIUcUhIR2WJgGMIlhOYuKFNYVrPriPVnYAUyORJJjpb4sHynNV6uUwLQR/vzK/HU/AN4edEhVFQFf+WBCHBlWn08dlVrNEu2xyy/wnI/Zq84Yuk29m2VgFb1I+O37DdDlEStq3O6Rm4C67mvc7FgQ0Gt/q3DEDx5TZuAF7dfsKEA89YVhCUepmnOtlP/GYYx1F75tl+oUtUrAWwIcxzH2SWOqvqaVdpSrZGJQj8QCBNYREQ2IEbolhBCHbsBk0G3kIoqE4eLqyzfTs7AOrlvNhXCb1pjQBsfU/vlOXuPefHMgjzMXHgwJIkrABjQLhH/uLwlhnRMslWff7TyKEq91r6PXhIhywf9puLtZUcs386UOCf6tIqPyHvc9/vK8KeP9tb6308a3gT92iQE/Lx4+MM94QrJdgAr7dSHqjrYzuegqt6J8O/4mKyql9skZD4AlqnRVq3Ro+kyPnZU6VTYpMAYEVGUaxCybzKqdsHko8FK9h6rhB1+0EvlDKyTWri1yDJtiXHWfIpD9s4SvJh5EB/kHEGlLzQnYrdmcfjrqJa4uKc9kywfrcq3fBsv7pkcEdfXgg2FyC2otHw7z+6cBIcRebObS7x+jJm5tdZJ7Zapbvz50hYBb9driw+FrC7fz51YPminbnQB6GnXc1BE/q6q0yzQlBsB2GUb5s8A5FmlMdUaPa66pe/h9Gk53+H4Ok0iIrIy1ZBVK/bsj9vrber1Vfd5QsG355jXFu1MjmPi82QyN9kvgVXpU3y65hie/zoPWduLQ9a+5ikx+MPFzXHzkEa2fdkvKPPh600Flm5jarwT3ZtHxmygt2yyfHBY5yREGlUg47Ud2FSHHVb/c02bgO8kWuL1429z9octLnZbPojjySuPHc9BEZllmuafLNKWW+xz7eorVmpPTV44PgATWEREdnjUhCyBJZMzfRXTBu0H0Jpxt4Y9R62fwHIYgqRY5jx/Lq+wElsOWqcAv8thnPJldNmOYrybfRSzs4/gWKkvZO1q28CD+0Y0xQ2DGsLtNGzd55+vzQ/ZTLXaGta5HiJhMlBhuR9z1uTboq3ndE2OuPvb018ewIcrj9b6318zoAF+E4RZlk/Ny0VeYdhm5e0AsMpmXZlu01NwkWmaYwBY4YbbF0Bvm8TtEIDPrdSgao8exef/QJ2OKQDsPVIgIop4Eur94neBCSzL2Jdv/eUx9WIdMFj7/xeW7bDWzmgnm4G1Oa8cs1ccxTvLjmDH4dBuFnBGszjcP6IpRvdrYIudBavDDssHh3ZKjIhYv77kEMqrrF+zsVlyDDo29iCSLNpaVKe6V42SXHj8qsAPMw4VVeGZBQfCN1oTmW23YuiGYfS3YQH3Q6r6WwBei8TwBrvEUETeVFVLFVatdgIr+/b+eenTcpYCsHXRNiKiKJAQyi8TYJcCZzPs1rDbBjOwWP/q5FbuKbVUe2IcAlOB1XtK8fnaY/hw5TFszA39DLFeLeNx57lNcE3/BhFVF6jE66/1TmyhNLSz/XfDMxWYmnnQFm0994zI2n3wUFEVxszcBl8dNqd48YZ2aJDoCnjbnpp/AGWV4UtqmqY5y279qar97NdkHQfggEXa41DVa21z7zTN16zWJmfNel8+EFEmsIiIrM0x6KklsVn3Dg7Jm6YJ2SVQRt0i7FADK4U7EJ5Uzi5rzcCat74ArX+fgyNh2NXSYQhG9krBxGGNcXbnehHZ399tLrL8jKCGiS50aRJr+1h/tvZYyGcM1taZHRIj5hz3mYrrZmytU+H88UMbB2WDhoNFVZjxXViTmrtgs90HAbgBdLVTg0XkcVWdY6EmnQegiV2GJQDWWq1RNRpBGn7fbHU6ngDAif9ERBZWGhufCCA0UyXE3AXlY8Eq9tohgcUZWL+gCqyy2AyscNRTq5/gxC1nNsb4oY3QMtUd0X2+cGux5ds4rHMSJAJu7y98c9A2bR3cIXIKuD/y4R4srsPOqu0befDola2C0rZwz74SkY9tuBSvC+y1aU+2aZqPWKlBhmFcb5d+t1rx9h/U6ATMvr3/3vTpK7Oh2p9DTSIi63K6fEk4XngxBE84x27AZNAtMdgADthgi3jOwPql/QWVIS2EbjV9WsVj3FmNcO2AhoiLiY5yq99tKbRFv9jd+gNl+HZzoS3a2jjJhQ6NIqP+1bvLj2DKV7m1/vcuh+DVWzoEfNdB4MTsq2/Dm9Q0TfMTG3Zrd1sNiVR/B8BK9ZviVPVym8SvEsB7lnzHqcWp8DoAJrCIiCzMYRohrIMl2xlxaygo91l+RzOAM7BOZlNuWdQdc71YB0b3a4AxgxuiX5uEqDr2wnI/1uy1fp/3bGn/BNZzX+XBLhNdzuwYGbOvlm4vxqQ3dtQp7g//pgXSg3RfeHLegXAv380HsNBu/WoYRncbFR9/S1WXWKxZlyPEdWrrEL+PVfWIFdtW4xGky+F9p8rvfhLH18ASEZEF+cUMWRENz4RFe73TB5XY5aEcyfJtMoMnOc7BzvqZTWEojh6WFyABBrRLxPUDG+Ca/g0R747Oza0XbS2C37T+i2CP5nG2jvPREh/eW37ENu0d1N7+j9HdR7347bQtqKhDgmhYl3p44MJmQWnfwaIqzFwY3tlXIvKZ1XZ2qw5VtcsMrHKrLR080e/X26WvTdN81aptq3ECK+vWwcfSp+XMAXAlh5tERBZ9SfSHLoElAq2Yhi0A+jLy4RWOYtu1Ea1Ji1PZcrAioo+veUoMru3fELec1RBtG3iivr8XbimyfBsbJ7nQKMll6zg//3We5Qvl/9QQm8/AKq7w46oXNuNQUVWd7hVvjOsQtB1HH58b3tpXJ5IDn9i0i22RwBKRKaq622LNagTgfJv0cy6A+VZtXK3m8IviNRUmsIiILMtwhHTbKAU2CRNYYXfUJjOwYl1MYP3c9sORl8BqlOTCFX3r46q0VAzqkASDez38KGd3qeXbaPflgwVlPrzwTa5t2pvgdth6xpvPVFw/YyvW7a/90liXQ/DGrR3RIDE4idO8wsqwz74C4AfwpQ27OB5Aaxu002+a5gsWbNcVsEkBfBF5U1UtO6CsVRDj84q+KGmalAf7bAFJRBRVxNSQPiQNYJMy7GF3jAks29p3rDIijiMlzomLeqbgir6puKBbMlwOZq1OZv1+G9S/amHv5YMvfJOHwnK/bdrbp3V80GYdhcIDs3bjy/UFdfqMv45qiUHtgzeBfNq3B+u0tDFAsgEU2LCL2wOwwwn6GYA9lhuXi1xll442TfMNK7evVi84mZOH+9Kn5bwD4B4OQYiILCnU6z42MeThd6TEJgmsGCawfs4Ou0f+mnqxDlzSKxVXpafi3K5MWp3OvvxK5JdZ/1q18254JV4/Xvgmz1Zt7t/WvvWvnv86F1Mz6xbvS3un4u7zmgWtjRVVJl5aeCjssRKRr+1SCP3ntwQ7NFJVp1mwWQ0AnG2Tfl4O4HsrN7D2v9Cb5sswDCawiIisKbQJLFM2wuAcrHCzSxF3D2dg/W+/lflQ4vXbqs0NE104v1syruibivPOqAe3k31aXev2l9qinS1SYmwb4xe+zsNRmyT0f9C3tT2XbH665hgefL9uE166NI3FjJvbQ4KY+353+RFL1Ik0TXOBTS+r9jZo434A8yzYrlGwyfJBVX3N6m2sdSBXTOq3Ln3aitWA9OZQhIjIYiS0CayYqnpbve4CPwBuLxdGtqmBxRlY/yPXJrOvujePw8heqfhNr2T0bZUQ1JfNSPb9vjJbtLNFij03HC/1mnju6zzbtTu9tf1mYC3cUoQxL22r046aqfFOvD+pM5I8wR0+WGRGXjmALDteV4ZhtLf6zDER+UpV/RZsl12WD1YCeM/qjXTWrTPwqiqe5lCEiMhaNMQzsOSuL7wV0wbtgj1+oYtY+ayBZUsFZdadfeVyCP5+eSuM7J3C3QMDZGOuPQr2N7fpDKwZ3+XhsE12ZP1Bw0QXWtW3V8Jw9d5SjH5xc51qSjmN40Xb2wd5uWrmpkKrJI5XA7Dljh2qavklhKZpZlqwWakAzrFDH4vIR6p61OrtrNMIssrleA1AKYiIyHLvnaEf3WAjwx5epV57bBcfF8OJej+VvavEsm2r8iuuSKvP5FUA2WEJYXKcE4ke+12nBWU+PDHvgO3a3buVvZYPfrL6GC58akOdi+Q/Nro1zulaL+jttcqMPBHJselt61oAXW3QzkwLtunSsIzJa8E0zVdt0MwH65TAWj22T4Eq3uZQhIjIcsLxsGQh9zDz+uyRwHK7uPbsB1nbi/GXj/dauo1LthWxowJk5e5SrN9fbvl2tky15+yrf889YLvaVwDQrZl9dnycv74A107fWufk1Y2DG+K24cHf0H7XES/mriuwSoLAjgmsDBF5E0BDi7dzD4CdVmuUiFxuk34+AuBLi7fxGhH5Z53n8Dsgz3M4QkRktQemhrxYpIpuZuTDyy4JLAETWMDx+jGXPbsJ5VXW7relO0rYWQGwbEcxLn56A0wb7EBWP8Flu/juOuLFCzasfQUAXZrYY4bj/PUFuOL5zTDNup3DQzsl4bnr2oWkzS98k1enGl0BttJmp+YDIvIijq/asvpNYY0F2+SGfZYP/heAlbP/Z4nIqwCkzgms5RP7rgGwiMMSIiJLCcNAQzkDK8wqffbYCbLSb0Z9X81bV4DLnt2E4grr7z64eGsxL646x7AII6dsqvOslVCJs+FGC4/8d49tkvg/d0Zz68/A+mZjIa54fnOdk0Fdm8bi3YmdEOMM/g8ZlT7F28sOWyWEfsA+pRYMw/ibiPwbsMcvTiKywYLNGgbAFrszmKY528LN6yIiH+F4QhBGgM4YzsIiIrISNUI+A6uqSlkDK8zsksCqskk7g+Xztfm4ZtoWy8+8+sH3+0txwCY7JVrR4q1FuPz5zbZIVv7Abgms5TuK8eHKo7Y8P0SALk1iLd3GRSfO4bomr5rUi8FHd3RBSlxohijz1xdYaUnpPgB22F1ADMN4RlUfsdN1ZJrmequ1yTCMi20SvqMAvrFo2xqKyKc4Xgz/eFwD8p6k5gcK7OcQhYjIGhQa8jfjpDuWHwVwmNEPH7vMbKqoit4ZWO9lH8Fvp26xVQxUgbnf5/MCq4WFW4ow6jl7Ja8AwGOjnUJVgQfe3wO1aV68eXKMpQvmf7WxEJc9u6nOs9viYgzMmtgppLstvrPsiJVCudMGp6PDMIwZqnqXDS8ly83AUlVbJLAsvHwwVkQ+AfA/O2AG5OmUk5FeJcBLHKYQEVnkoQkN19vSBkY/fOySFDlW5ovK/nln2WHc+sp2+Ez7vWnPXVfIC6yG5q8/vky0xOu3XdtjbZTAenf5ESzfYd9lrqFM6NTmHL7qhc0oq6zbs8VhCF4d1wH92oZuNVVhuR9fWCjxLiJWT2DFGIbxtqqOs+FlZMJ6Gwl1xM8SL5YNnmm+b8FmOUTkPQADf/4HAXs6KXQa7DEtkogo4hkSpl9SFKsZ/fDx2mRpXn5p9CWwZnx3ELe+as/kFQB8tbHAlomYcPlsbT6uftE+y0R/Lt7tsEU7j5b48OD7u219rrRKtWYCa966goDNFn3m2jYY2Ss1pO3/MOeo1a6/fRY+DWNF5L+qerVNL6NdAEot1ia7LB88BuBry73HGMZzAEae9M8C9SU5Gem5AD7kkIWIKPxUJSxvmiq6itEPnyq/PZIjR0qiK4H1n/kHcPc7O2HauPRXWaWJj1cd40VWDZ+vzcf107fatqA4ACvt2nZK9723C4eL7f37eUsLJrA+XXMMV0/dHJDk1Z8vbYlxZzUO+TG8ba3lgzBN06rTBONPLNO62MaXkeVqsIrIhXYI3Ini6Ja6iRqG8Q9Vnfirfx7QC9PA0xy2EBGFX7iWEDrUuZrRDx+nYYvNgrA/P3oKgv/t0314+EP71uex8guhFb2z7DCumbbF1skrACgot36Sec6afLyXbf9zsnmyy1Lt+e/Ko7h++taAbApy2/AmeOji5iE/hj1HvViyrchqXV1iwdMvRUQWADjPzteQiGyx2nAMwBA7xM40zVkWa9Jdqvrwqf5CQBNYK8enLYVIJocvRERhfpgjPDOwXFK+AUAFeyA8QrEteSDsOuqN+L7wm4q73t6JRz/bFzHHlLmpEHuPeXmh/Ypnv8rFuFe322Ym5KkUlll7uWhhuR+/e3dnRJw3KfFOy7Tlg5yjuGnmtoCcw2MGN8ITV7cJy3HMWnHEijNerbbErYmIfIeT1BiyG9M0t1usSX0BJNogdMWw1u6Dt4rI06f7SwGv0GhC/8UhDBFReIVrCaFk5FSBhdzDxi6Fl3cejuwcZ0WVietnbMWM7w5G1HGZCkzNPMgL7Rf3W+Dvn+7F72fvjoiZdgCQb/GNFn4/e3fEzORMsEi9sdkrjuLmACWvRvVJxQs3tIWE6TeVz9cWWLGrrXRRtT6RvOoeIbfhbRZrzzCbxO0rAFa5kV4uIlMBnPauEfCR7soJafMEyOFwhogojMQM30BJwDpYYWKXGVg7j3jrvKuVVRWU+TByyqaIrRf18qJDKK5gMfcf+E3FbW/uwD8+2x9Rx2XlulKfrc3HG1mHIibWCZ7wJ7BeXXwIY1/eFpBNJoZ1qYdXbukAR5iWtB8prsLynVZcrYd6FmlHZxFZiOO75EUKSyWwRORsOwRNVedapCnnicg7AKp1MwzKT7Um9DEOaYiIwscI0xLC409E7kQYLh6nPWZg+U3Fun2lERf/g0VVuPA/G7Foa1HEnmMFZT68sugQLzYcn2l33fSteHVx5MVj+6GKgNRACrS9x7yY8Nr2Gs9069c2wbKxDvfM2f/MP4Db3twRkML9A9snYvakTvCE8ZjmrS+w6iYEyRZoQy8R+RZAywi6XVUBsNJWpA7YpP4VACsksM4UkY8BVHs3i6DcXdql7PgQ0C0gIqKwCNcSQgAwTe5EGC5xFlmKUh2r9kRWAmvrwQqc/dg6rNlbGvHn2ePzDqAoymdhlXj9uPKFzfhkdWTOtKvyK9btL7NUmyp9ihte2oZjpTWbYNw0OQZPX9PWsrEOxE5/tRsnAH/+eG/ANpno1yYBH9/ZJexLIr/aaM0fEAzDqB/mJgwUkW8ANEZk2Q1rLc/sDevMtjuVHQh/4m+IiHwGIK5G11IwWjL76qv9CjzOVwkiovAQQ8NWZCjW9KwBYLIXQq9xkss2bV28rThi4p6zuwTnPrEeu+tQnN4mG0gCOL5EZ8qXB6L2OjtUVIXzn9iArzcWRvRxfrvZWsd336xdWL6juMbX1Us3tUdynHWT+6WVoU8GqwK/f383/v1FYJa+9moZj4/u7IIkCyyHtNp5+/9jrr3D+PUXiMh8ACkReKvaYbH2DLDFe4LIojA3YaiIzAWQVOPxUhAb9RqAPXydICIKPVM1bNNA5PbMEgDb2QuhZ6cE1tebCmFGQMHrL9cX4MKnNta5ZlCix2mr435mQR7yCiuj7hrberACw/69HqujYKbdvPXWSQQ891UuXqrFpgh3n98M53StB7+Ff1IpqQht4yp9iptmbsVzX+UG5PN6tojH57/rilQL7Ka47VAFDhRY9r6UjmoUqA6Cm0VkDuyxK17Nx5wilso3GIbR1xbvCaYZzgTW0BMzr2q1tjtoCaycjPQqVXmGrxNERGER1rUfqizkHg6NkuyTBDla4sOqPSW2jvfUzDxc8fxmlHjrPoMiJd5hq2Mv8fpxx1s7o+r6WrChAGc/tg47j1RExfEu3FKIXAskAz5ZfQwPfVDzd9Q+reIx+dLjpX58Fs6W7z3mDdl3lVWaGP3iZsxecTQgn9e9eZxlklcArF5/sB6AbiH+zj+LyCsA7PPrVg2ZprnPSu0J80y7msgO0/eef2LmVa0LEwa1wl6F3z0dwBG+UhARhVxYE1iGwULu4dAkKcZW7f3vSnvWD/KZivtn7cY97+4K2ItxgwT7vV98tjYfs7KjY5g3ZUEuRj23GfllPkQLU4GZYS7Y/+3mQtw0c1uNi3LHuw28Oq7Djzuz+i2cwNqUF5qEaEGZD5c8sxHz1xcE5PMaJbkw5+6uqJ9gnR9OVuyy9sxIwzBuDNFXOQzDeFFEJkfBrcpKBdxjAHS3Qcz8ADaH4XsvFJFPAMTW6ToKZgvX396tRKH/4isFEVFoialhHcWpyRlY4dCknr2SIO8tP2K7ZYTHSn0YOWUTnv86N2Cfmd4mASN72bM0yb3v7cK+/MhdSuj1mZjw+nY8+P5uSydBgmVqZh6Kw1Swf8m2Yox+cUutipw/fU1bdGoc+5O3eesWmduYG/zfmw4WVWHEUxuRtT0wtQd7tYzHij/2tNyydavP6lXVmxD82VCJIvKRqk6MktuUlWZgnYEa7KYXRtsBlIf4Oy8XkY8AeOr0fiPyaND3OE2MKX4e0H0gIqKQMRyusCawfH7favZC6HVoFGur9u7Lr8RXGwps095NueUY+tg6ZG4KXG2gC7unYO49Z2B4l3q2POeOlvgw+oXNKKuMvH0bjpYcT1a+seRwwD6zZ4s428Xg8bmhL9j/7eZCXPrsxlolz8YMboQbBjX8n/8txmHdBNaq3aU13lmxJnYd8eLcJ9Zj7b7ADAsGd0jE3Hu6omGitZJXXp9puZ0zT6IxgAlB/Py2IrIYwCUB/MxFFo/pXgu1pY9Nbu37Q/x9d4nIbNQxuSciT5mm+X9BT2Bljh1eoWr8g68VREShIyJhHcUl3J6dB2tN644Kreu7w76FeU09syDXFu38cn0Bhj++HtsPBW65z42DG2LWpE6Idxvo0SLux+VOdrN6bynufmcnNIImKK3cXYoB/1iLhVsCV1NnYPtEzL+vG+Ldhq1iMWVBbsCSH9UxK/sIRj23GaXemidFuzWLw3+uafOL/93tsm7MfaZizprgLKfO3FSIsx5bF7D71ojuyfj0rq5IjrNevcWtBytQ6bP+TUhEHgXQIggffaaILAXQI4Btnaaq0yweUssksAzD6GiT2/qx0IXEeFJEngHgqOO5+LxpmvcDQV5C+P+/0ZwJ7khFRBQyZVUS9kIQKljCngj1wBjo0tRes7C+3lSINRbf0e2ZBbm4/PnNKAhg/aP/u6QFpo9pD9eJmSEel4HuzeNse+69mXUYD30QGTnrVxYdwvlPrsf+AC6NHNopCZ/e1QX1Yh3/s7TNDrw+EzfP3Bb0pYSmAn+fsw83v7ytVssGE9wOvDWhI+Jifvl647Z4cvjVxYcD+nmqwH/mH8DIKZtwpI47pP5gdHp9zJrY+aTxtYJ1+8oO2+SSShKRl3G8XlIgOADcLyJfA2gUuPGEPG6a5qS6Jh6CrBhhrvn6M+3sMVaUUEyZdhuG8Zaq3huA9r5imuZdABQIUQIrJyO9ShST+WpBRBQa5b7YsD/QxdQs9kTo2S2BpYpa7TAWCkUVfox5aSseCmD9I4chePa6tnjkkl/+AD+gnb13OZ+yIBd//O9e27a/oMyHG2ZsxW1v7gjoksjzuyXjozu7/Dg7spsNE5Ubc8tx40tbg7abX25BJS55ZiP+MWdfrWfyTbmuLTo3Ofn9z+WwdgIra3sxPl4VmEkRJV4/bnxpKx7+cE/A+mvcWY3xyi0drDxLtORfc/e9a6NL6nwReQ91r4fVU0SWiMjjCGBtLRF5zDTN359IGFg5gWWppKWqtrHHuEuTgvwV9UVkgapeE4Bz8XXTNG8F8ONDOWQp9Oy8vm8DWMdXCyKioPNvu6ujN9yNMBzKGVhhcIbNEljA8WUun6/Nt1SbcnaXYODfvw/YdvPA8RkiH9zWGbcObXzSP7+4R7Ltz78n5u3HxDd22GIpz099vbEQA/7xPT7IORrQz728b33MntQJsT9ZwmbHaxQA5q0rwLXTaldU/ddfpIDXFh9Cv7+vxTd1qC03fmhjXDugwa/+ebzbAbH4Ct0H39+Ng0V1my01f30B0v+6NqDn8X0jmuHZ69pauRC+KSo3bMnzum12SY0SkXkAOtTi33Y3DONlEckB0D+wuQ292zTNh37yv1k5gXXIYu1pa5Nzr2EQP7u/iKwAcGZdP+hE8uoW/CR5BYQwgYXJYir0j3y1ICIKugIrNMK1P3YNgBJ2R2jZdRbPnW/vDGoh4+rym4on5u3HuY9vwM4jgat31SjJhXn3noER3ZN/9e8M7VQP9WIdtj8HX1t8CJdM2RiwpUvBlF/mQ8brO3DJlI3YczSwef+xZzbCG7d2gNv5v8NtOy8VnbMmH+c9EZhr47stRRj++HpMfGMHjpbU/tof2D4RT1zd5tTPI4cgyWPta2v3US8ue3ZTre6Dm/PKcc20Lbjs2U3YHaDzWAT466iW+PvlrSyd/BOVh90Tl3ysqk1seEkNF5G1hmH8C0DP0/zd1gBuEZG5IrJWVccCCGQxMr+qjgMw5eeXj4XjZ6UEVjwCuIQzyLoFoV8FwN0ishBAm7rff+Rl0zTHAvCf7ItCqt/UnCwVDOQrBhFRcCiwNScjrZMV2lIxfdA3UAxjr4ROpU/R9N5sW+4Kd03/Bnjllg5h+/6tBytw62vbsXxHcUA/t2NjDz6+swvaNjj97tE3zdyGWdlHIuJcbJjowrPXtcVlfVIt17Yqv2LmwoP4x2f7g5Jou39Ec/x1VMuTvvgfLq5C69/n2LrofbzbwD3nN8Md5zatUdK1osrEJ6uPYcZ3h7Boa90L5DepF4Mlf+iOpsmnLyfU9ZFV2HXEa/nYNk5y4cnftsEVfeufMnFkKrB4axGmfXsQH686FtDlnYYAz1zb9ldni1qFCF53T8i66cQL7zIEdjZSOGwHsFFE8gAUAWioqg0BdEJw6ytVquoNAGaf5M/uEJFnrdn/MvPE8jIraCcitqn5raoDASwL0MelisgrAC4NUL/OME1zIn428+oHYdhCQh4BdAFfMYiIgvZAt8xaLFVZItBh7JXQiXEKBrRLrNNynHB5d/kR9GgRh3svaBbS7y2vMvHk3P14cn5uQJdHAUC/Ngn48PbOaFDNLed/0zM5YhJYh4urcM20Lfhtvwb466iWaFU//Ct8fKZidvZRPPrZPmwL4I6SP3mhxt8vb3XKc7hhogvdmsVh3f4y2/ZtqdfE3+fsw9Nf5uLK9Pq4sHsy0tskoEXK/yaSyipNbM4rx+o9pfh6UyEWbCgM2GYIMU7BOxM6Vit5BQCp8U5bJLAOFlXhhhlb0TJ1D0b1SUXvlnFolORCcpwT+aU+7DhcgVV7yzBvXQHyCisD/v0uh+Clm9vj6n4NrB6q72Iqkif8tIsj4LbZHkB7DW12u1xVrwLw+a/dNi0cLys9LBPsdKIZhnG9aZqBSGANP5G8ah2gd5ippmnehhMF208m5Ams7Il9v0qflvMpgJF8zSAiCgLVo1ZpiohmQdkloXZWJ3smsADgj//dgyZJLlw3sGHQv8tUYFb2EUz+eG/Alt381KW9U/HKLR1qtGvXhT1SEO82UOo1I+Z8fC/7CD5adQwThzXGfSOaoWFi6FekFFX48VbWYUz5KjdoSQynIXj2+ra4ecjpV5EM61LP1gmsH5R4/Xht8SG8tvj4Sp54t4GkWCccApR4zYDu3PlzT1zdBgPbV3/JdGq8y1ax3XvMi2e/yg3pd8a6DLyd0REXdk+xeng2uv2OUXLXFz+9mD2gmipQ1VEAvj3F37HsWnDTNK20hbGtEliqejOAxwHUdueV+oZhPH7icwKyqk9Eppim+Tvg1G8OYdkHVaH3APDynkFEFIyHEo5ZpS2Vlf6s0z2IKPCGda5n27abCox/bTue/zo3qN8xZ00+Bv3je4x9eVtQklf3j2iOdzI61XjL+SSPA9cNaBhx56TXZ+KZBbno8IeVGPvyNizZVhz07/Sbim83F2LC69vR7sEc3PverqAlrxLcDsya1Klayavj12hSRN57Sr0mcgsqsS+/MqjJq3FnNcb4Gi5va5rsAv26erEOfHpXFxskr+QIHLhUblv089nmsezFGtmvqsNx6uQVYO0ZWOUWakuCzfo/UUReBlDTqdFuAPeLyNYTddgClbz6q2mad1fnncEZjmjlZKRvT5ua86wI7ue9g4gowEM7Qy2TwEq6Y/nRimmDNgPowp4JnQHtEtE0OQa5BZW2bL+pwP2zdmPF7lL857dtkBwXmOFKqdfEe8sPY8pXedicF5xxr9tp4Pkb2uL6OswgyxjWGDO+OxiR52alT/Hu8iN4d/kRtEiJwcU9U3BRj2QMap8UkAL2uQWV+G5rETI3FeHTNcfqVBy8uhonufDB7Z2R1rr67y9ndkxCjFNst1ujFQzvUg//uaZNjf9d61Q3g/crGiW58NEdXdCnVbzVm1puGjIy7tYl2042/GFPVttKVb0EQHV+KbLybhxWmsaaYMPz4DwRmXMiEbXvNH+3AYDxInIngKYBbIOq6j2q+kx1/4EzXNHyuMr/6vXFXh/gABARkcoxKzVHgCXKBFZIGQJcmVYfz4V4+UmgvbvsCL7bXIQHL2qOm4c0Qoyz5u8nVX7Foq1FeC/7KD7MOYriCn/Q2tsw0YVZEzvVaFnTyXRrFoehnZLw3ZaiiD5P9+VXYvq3BzH924MQATo2ikXfNvHo0NCD1vXdaJkagwaJLsTFGIiPccDlFKgCheU+lFWaOJBfibzCKmw7XIENB8rw/b6yoMymO5XOTWLx0R1d0KZBzZIj9WIdOO+MZHy+Np83rBro1DgWb03oCJej5veC1vWZwDqZtg08+OSuLujQyPIr8EwRXB83fvHSX/nzCvZmtcxX1dE4XiS+OjgDq5rnp03Ph/NEZLOIvGma5ucANgM4jONLclsAGCAiIwCcj8DvXOhT1VsBvFaTfxS2BNbicWcWp01b8SeBzOB9hIgocETUUm9EJjRLILewZ0Lryr6ptk9gAcCBgkrc/c5OPPrZPlyV3gCX9k5B71bxSPKcfLZOfpkPm3LLsXxnCZZuL8bXGwtRFMSk1Q96tIjD+5M6B6xQ+cRhjSM+gfVTqsCWg+XYcrDcNm0e3CERsyd1Rmp87YbTo9PrM4FVA6nxTnxwe2ek1HJGZk2TjNEg/cQmE+GoS1eL0c097glL/muTZIZFx4cy0zTNSajZrCrOwKoeO59/cao6QUQmhPA7K1T1WgAf1fQfOsMZqZzctJfTm67MAJDOWwoRUYBeBGFYagaWobpEhTP7Q21Au0S0THVj77HIKDl5sKgKz3+di+e/zoUI0Dw5Bg0TXagX50Rphf/4jJyCSuSXhf7H4ivT6mPqmHZIcDsC9pmX9amP3i0PYPXeUp7MFjQ6vT6m3dQesa7al5O9pFfkFewPlhin4N2MTnWaJdSuIWt8/9RFPVLwxq0dEe827NDcpz0ZS6ac5u8UsFd/fWioqg+p6r9r8W+tnJixUts4A7D68k9sHvBdrd4rwtr0yWKKyn3sQyKiQI5STEslsGLylm1S4Bh7JrREgDGDG0boOX58+dmqPaXI3FSI7F0lWH+gLOTJK4ch+NvlLfHGrR0DmrwCji8D/cuoljyRLXhd/d9vmuO1cR3rlLwCjhd+v6RnKoNajWvhpZs74KxOdSt83yw5BvUTnAwogJuHNMKsSZ1skbxSxSx3blZ13hf3sWdPyquqNwD4dy3/fYmFj81KM7A4zq2eXao6GLVMXgHhTmAByJ7Y9ztVzGJfEhEFaLBnSJ6lXvgmwxQgkz0TehPPblznl2w6udR4Jz66ozPuH9EcwZpgeEG3ZJzbtR6DbRHxbgPvTOiER0a2DFif33FuEwb2NP51VWuMTq8fkM/q1TI+6uN5/4jmeOGGdnAaNpgZLcj0VCaPkcmnry8kIkxg/dIxVb0AwNt1+AwrJ7CsNANrP0+301qrqmcC2FSXD7HEqNZ0yu9hrQwqEZFtuX2OPMs1SuQr9kzoNUh04bqBDRmIAOvRIg6L/tAd552RHPTvevTKVjC4AjfsmibHYN69Z+CyPoGdMZXeJgED2iUywL/iDxe3wJ3nBm6/p95RnMByGIIp17XF3y5vCZus6v/e7XJfLnd9Ua118KZpbucV8z+2q+og1GGmywlMYFXPMbAO26l8oapDEIBEnyUSWKtu7btbVf7KfiUiqjPTfTD/oOVa5WMCK1zuOq8JEyABdN3Ahvjmge5o2yA09XR6tojHuLMaM/BhdFanJCx9uAfSWgdnl/S7z+MsrJO5eUgj/HFki8BeTy3jojKWcTEG3s3ohPFDbXMv2enz+S6QsZkFNXml5FXzo+9OLNPaEoDPYgKr+rbx1PslEfmPqo4M1LlkmXUFiXmFT/LGQ0RUZ4cyJw+33JbHntsWbwZkL7sn9Do1jsWoPvUZiDqKdxt46eb2mHlz+5DXjfnXVa3RsTELUIfDuLMa47O7u6JRUvB2abu0d2qdipNHotHp9fHc9W0DPlNoaMckRNueIqnxTnz+u664pFeKXV53j8BvXJRwe3ZNZ5OvBqBMFsh0VT0PwKEAfaSVdxKpsljsV/Pu/T8qVXWcaZr3AgjYdtCWSWBlTh7uEzEyAnlwRERRKNeygyoFZ2GFyT+uaAUPa2HVWucmscj8fXdcH6blmHExBl69pSNcDk6lC5UEtwOv39oRz13fNuhxdxiCv7Jg/49G9UnFy7d0gCMIU0ebJsegS5PYqIllmwZufPP7bnZaplpmKi49/qNXjRUAWBfFl45XVceappmBwCZ2SmHdxKCltnA1TXMN7+A/Oqiq5wB4OdAfbKnRbPaEPtkCeZ79TURUawes2jATTGCF8yXm9nO4TKk2xgxuhCUP90D35uFdetS3dTx+f1FzdkgIdG4Si+8e6h6wwuHVcXnf+hjSMSnqY39Bt2S8Oq5DUAuMD+8SHRsjDGyfiG9/3x2dGtsmYVcFwRVxE5dk1fYDRGRulF46u08Ux341OMM3y87CMi3Wnu9AAJCtqv0ALA7Gh1vu51hvrONhBXax34mIajF4g1h2BpYpjq/A6f1h8+BFzdE4iMugIk29WAdeHtsB08a0Q1yMNYZLD13cHEM7MckRTGMGN8LiP/RA16ahf+n/55Wtom5520+N6J6MWZM6we0M7vV2frfIT2DdOLgh5t4T3KWvAR8iiIzxTMiaV6cPMc0vovDS+VxV+wJYEcTvOGbRY7fayq0cAIej+j1E5A1VPRtA0MqGWC6BtXZMr1JR83YOoYiIasWyCaz4jIW5ADayi8Ij0ePA41e3YSCqYViXesj5Uy9cO6CBpdrlNASzJnVGt2Zx7KQgXB8/JCxDXePsB/3aJGDM4EZRGf9RfVLx3sTgJ68A4Nyuyaif4IzIODoMwaNXtML0Me1DEssAUUAmuScseTcAn/UtgD1Rctn4VfUvJ4pjBzvBZNUEltVmYJkiMj9KH6OlqnqDaZpjEOTi+pa8s62Y2O9ziL7P4RQRUU2f5GaupRso3I0wnEan18d1YarjZAcuh+D/ftMcn93dFc1TYizZxnqxDrx/W2c7zaywvL6t45H1cA9LJCz/Pbo1WtV3R1X8rxnQAG+M7xiyhIvLIbgyLfI2tkhwO/BORkfcc0EzuzX9QU/GkukBTCC8EQWXzUFVPR/AZIQmicMEVnUbZJpvRuFjdIOqDgDwVii+zLKpeVXchePF+IiIqJpEjP2Wbp/JOljh9sy1bbjj2Un0bBGP7x7qjkdGtoRh8WVcbRq48eHtnS2ztNGunIbg/hHN8c0D3dHeItdEkseBqTe2i5qlhLef0xQv3xzcmlcnc23/BhEVxzYN3Mh8sBtG9kq1VbsV8hdPRtbjAU4gvATAF8GXzeeq2gvANyH8Ti4hrL75COLyOeu9d8gbqtofwPpQfadlRz45Gem5AjzI4RURUQ0GbqK7rNy+GJd8HeEDS8tLcDsw46b23NHuBI/LwF9HtcTih7ujd8t427Q7rXUCZk3qHLblbnZ3RrM4ZD7YDX+7vCVinNa6FoZ3qYeJwyJ70wURYPJlLfHE1a3Dkqwb2D4Raa0TIiKWQzomYdFDPey4tPi52Iwlk4PwubtE5K0IvGwqVPWhE0sGD4Y4SZFv1WGvFdukqi9GwWP0kKpecmLJYEiL/Ft61JM9oe8MiHzOYRYRUfXEGuU7Lf3SMm5xsaiuYE+F18D2iXj++nZRXTAaAPq3S0TWwz3wwIXNQz4DJBDO7VoPc+7qiuQ4J0/qanIYgvtGNMPiP3S3dALjn1e2wsD2iRHZBx6XgdfHdcSDYd5V894RTW0fy5uHNMLnd3e1XU0vEbzuzs26O2gZBNN8FJH1Y9m6E7NcHkN4kjZcQlgzz1k4ZoEwR1V7AvgsHF9u7Z/tRNTvwHgARznkIiI6raOLx51ZbPVGmiJfsqvC78bBDfHwxc2j8tiT45x4fHRrfH3/GejSNNbWxzKwfSK+uv8MNE2O4Ul9Gr1axuObB7rh75e3gsdl7SGw22ng3YxOlq3FVlsNE12Ye09XXJUe/hpUo/rUR8fG9lxO7XEZePa6tnjxxnaWm0FYDbNjklvcIpODmnzYIiLPRcAl4xORx1Q1HcD3YRu3mSaXENZMsao+FoGP0SOqekM4ZgH+lOXnna8a1/eAKCZw2EVEdFo77dBIh8in7Cpr+L9LWkbVrmciwA2DGmLtX3rhjnObwmFExhS0M5rFYf699k/GBUuix4HHR7fG4j90R7+29lk21jjJhfcmdkKsKzKWifZrk4BFD3XHgHbWmFlmCPDoFa1tF8c2Ddz46v5uuHVoYzueBnPd3uQb5erZQU88mKb5JwD7bXzJrFfVwaZpPgTAG+a2cAZWzT0FYHXkjJ9ktqp2Q4gKtZ/y3m2HgGVPTPsQwLsgIqJff7hAbJHAco1fsgLAPvaYFQYkwAs3tMXNQyI/idWrZTy+vPcMzLipPRomRt4Ofh0aebDwoe64dgB3mfzp+T06vT5WT7ZvwjKtdQLezgjdDn3B6oc7z22KBfd3s9wOi5f0SsFveqbYJpYje6ViycM90Ld1vB1PhfnuGPflctcXoUrGFKvqBABqszhVisjfVTUNQLZF2sQEVs35VHUS7L+UdbuqjjRN82oAh6zQINs8DX0xxiREUUV/IqKaUli7gPtPXmYUgjnsMWtwGIIXbmiH//tNZC4nbJ4Sg+eub4vFf+iOIR2TIrovE9wOvDy2PV66uX3U71A4oF0iFtzXDa/f2hHNbL688sLuKXjHpkmslDgn3s3ohH+Pbm3ZpW5P/rYNkjwOS8cxLsbAlOvaYtakTkixZ827Be5SjJKxmRUh/t7PReRJG8UpU1X7mKb5R4R/1tVPWbWIu9/i/blUVe26KV2Zqv5FVbsD1hqz2+qnqH7TV56nqvPt1m4iolBQ6G05Gem22PmkYvrAi6DcpMNq/jP/AP740V74TbX9saTEOfHAhc0waXgTy9c7Cobv95Xh9rd2IHtnSVQdd7dmcfjb5S1xUY+UiDu2z9fm4/oZW1FRZdqivZf3rY+nftsaTepZP4H4yepjuGbaFqgFb319W8fj5bEd0LmJXZcIyyJ3bMmFMmZtaZga4BKRuQDOsXCQ9qvqfQDes2j7eorIGgu0owpAjogsNk1zIYBPYP0ZdmIYxluqeq1NLlhTRN40TfMPAA5YMqB2uwWmTc15XgS38TWDiOhnN3TFRdkT0+baoa065SK3111wGEAie85alu8oxk0vb8OuI15btr9BogsZQxvhjnObRv3ufKrA28sO4w8f7MHh4qqIPta+reNx2/AmuKZ/g4ipbXYy2btKcM3ULThQUGnZNjapF4P/XNMGo/qk2iq2f/lkL/71uXVKJsW7DTxySQvccW5TW+6SeuJFc0mMzz1Cbs8MdyY9SUQyAfSxWIhKReS5E7smFlm4K1uKyJ4wfG8JgDUissg0zQUAlgAos+Gl4BKRDwCMtHg7F6jqA7B47S7b3Q17vr4m3lXuWyVAR75mEBH9hN/ssuK2fpvt0tyKaQPfB+RKdpz1HCv1YdIbO/DJavvsAt0iJQa/O78pxp7ZOOqXz/1cfpkPf/lkH15eeBBVfo2Y4zIE+E3PVNxzQVMMah89ufC8wkpcM20rlu2w1qazsS4Dt5/TFPeNsGfyWBW4b9YuvPhNXtjbcmnvVDw+urXlaobV6CVTdWmMy3GBjFtslRO1iYjMB9DDAm3xichLpmlORhh3c6uBeBEJRRJy/4lk1WIAC3F850U/IoNHRGbBekksBfCFqv4JQI4t7i127P20aSsGCGQhgMirwkpEVDtVCo3PyUi3zTSL8qmDxojgNXaddb2/4ij+9NFe7DxSYcn2iQDndKmHW4c2xiW9Umw7SyFUDhZVYca3eXj+m4MoKLNvXdkWKTG4pn9DjDurEdo0cEdlX3p9Jv79xQE8MW8/Kn3hTUo6DMENgxrij5e0QPOUGNvH9k8f7cXjc8MzE6tfmwQ8emUrnGnzen0KZHtQeb5k5BRarGkpcnwn5CFh+v5KEXndNM1/Adhupz4VkQoAgb7h7jixHHARgMUA1kf4rVsA/FlE/myBtlSKyHumaf4bwDq7BdGW+k1fcb+qPM7hKBERAGDjioy0M2w1wH1pUKrXj4MAnOw+a78ov/B1Hv4994Blkh7NU2Jwdb8GuOXMRujQyMNOqqH8Mh9mfHsQU789iFwLL0X7qQaJLlzSMwXXDWiAMzsmQZirBABsOFCGO97aiaztoZ/kkuB24IZBDXH7OU0i7jqcveIo7n57J/JDdM/r1zYB949ohpG9Um1/biuQ7XHgQrk1y6pTeD2GYTyhqreH8DtLRWSmaZpPwKabkonIAQBN6/ARlQBWnJhhtQjHlwMejdJb9ygReaGO8aytXar6KoCpsMfsv1+ei/a9O6qkT1/5IYBRHL4QUbRTxX9zJqZdYbd2V0wb9C2AoexB6yuu8GNW9hFM//YQ1u4LfS3e1HgnLuyRgiv6puLC7skRXecoVEwFlm4vxocrj+GDnKPIK7RWMqttAw8u7pmCi3skY2jnJM6wO0U/frr6GJ6cdwDZu4K/yqdL01jcOKghbjmzUUTXmduXX4l73t2Jz9bmB6W4u8shuLhnCiYNa4yzO9eLkMEIFrpdxm8stGzwVC4TkSkAWgXxOzaq6osAXgdQaOeuFZF1ALrV4J8UAlisqosBLAKQDaCcd+wfpRiG8VdVHY/Az2z7uVIR+cA0zVcBfAvAtPW5aOfG93hhbYrbUZkDSFteA0QUzVTlnzkT+z5st3ZXTBt8H6BPsAftZcm2Yry97Ai+3FCAPUeDU+zd4zIwqH0ihndJwjld66FPqwQwfxE8flOxaGsRFmwowpLtRVi5uzSku905DUHvVvEY2D4RA9slYHD7RDRNjmHH1FDmpkK8tPAQ5q7LR6k3cP3XqXEsrkhLxRV966NHi7ioimnO7hL887P9mLuuoM47tIoAaa0TMKpPKm4Y1BCNkyKpGop+4/Z5LrVAwfaaiANwv4jcBaB+gD4zV0Q+NE3zPRyv4xQRROQ7AGed4q/sE5GFP6lftQ42T5SESAvDMO5V1esBNArg5+4Wkc9M05wD4BsAFRFzLtr9ANJfzO4Pw1gIgKMcIopaCr05JyPddvWkKqYNbg/oNvagfW05WI4v1xdg2Y4SbDlYgS155SivYeIjNd6Jtg086N0qHr1axqF3q3j0aB4Hj4vF2MOl0qdYtacES3eUYP2BMuw+4sWuo17sz6+s00t8SpwTTeq50LlJ7I//dWl6/L9Y9nfAlFeZmL+uAHPXFWD1nlJsyC2rdq2s5DgnOjTyIL1NAgZ3SMSZHZhMBIDDxVX4aNUxzFmTj5zdJThacvrlhSJA5yaxGNAuEYPaJWBE92Q0qReRsfzMHeO+SsZm2vUlORbA9SJyLY4naWqSWawCkC0imaZpzsPx2UYRl7gRkY8AXHbi/zUBbPhJwmoRgN2889aJC8AFhmFcoKrDAHQHUN2HYiGALSKyzDTNpQCWAYjYsXVE/JaZNnXlvSL6JM97IopWCh2Yk5G+zI5tr5g2qKbT0snCTAX2HPVi99EKlHhNlHr9KK7wo7Dcj3qxDridBmJjDNSLdaB5ihutUt2IdzNxYRdVfsXeY17kFlTC61Pkl/lQ6TNRVmmiuMIPj8uAyyGIi3EgximIdRlokOBE0+QYNEpywe1kX4er3zblliOvsBKF5X4Ulvt+vCYTPA7ExRhonOhC+0axqJ/AsoTVkVtQic155Tha6kNh2fF4JngciI8xkHIiKd+mgTviE/GqmOWRyhskI6cqQg4pCcCZALobhtFVVesDSATgAFAkIkUA9pqmuRnARgBrAZRGwSl/v2EY9U8krBYDyOddIKjcADoAaA8gBcdnCybgeLKqBMeXY+4DsANRVkssMibjq0ratJUfiOBynutEFI18MUbK6rF9CuzYdu+0gf+nkL+zF4mIiGz0Cga87cl13ySTM32MBhGFQmT8JCCifrdxC6A72aVEFIVy7Zq8AgDTMN8+Pg4mIiIim5jmyc26kckrIgqliJnTunpsnwKYeg2Ob9FJRBQ1RLHRzu2PHb98pwBZ7EkiIiJbDDwe82RkTZTJLNJNRKEVUYuyV0zqt1yhv2O3ElE0UUNX2/4YgLfZk0RERJbmh+okz4SlDzEURBQOEVdVMCcj/UWITmXXElEU3cpX2/0IqlzOWTi+kw8RERFZj1dUrvFMXMr3LCIK31tPJB6UKu6CSCa7l4iigaq52u7HkHjLwsMQ/ZK9SUREZDn5ahjnuycueZ+hIKJwisgEVk5GepVRWXUVjm8rSUQUybwANkXCgXAZIRERkeUcEMMcFjt+8UKGgojCzYjUA1t+x4CjhsoVAErZzUQUwdbnZKRHxNI7j6fsIwAl7FIiIiJrjDFMn2+ge/yytQwFEVmBEckHt3xi3zWiGANuz05EkWtNpByIjFlbqsAn7FIiIqIwU8xzx7jPjLs9ey+DQURWYUT6AWZPTPtQRP/BriaiSCSiayLqeCBcRkhERBRe091SOVLGZhYwFERkJUY0HGT2gbQ/Q/RjdjcRReBtfHUkHY0b3vkADrFfiYiIQq4KqpM8GVkZkpHDnYGJyHpvPlFxlJPFdDsqbgTwPbuciCKIv6zKnRNJByQZOVWqmMmuJSIiCql8VVzkmbh0KkNBRFZlRMuBLh53ZrHfKRcC2MNuJ6JIoMC69bd3i7yi5+KYCsDPHiYiIgqJbQIMjp2Y9RVDQURWZkTTwa4a1/eAQ+UiAfLZ9URkdwIsjcTjis1YtAfAXPYwERFR0C1w+x393RlZmxgKIrI6I9oOeNnEvhugMgqAl91PRHYmimURfHQvsoeJiIiC6ml3rvsiuW0Rf9wnIlswovGgsyf2/U4EYwCYPAWIyK78jsicgQUA7twlXwDYyV4mIiIKuBJRvcaTkXWPTM70MRxEZBdGtB549oS0WSL6IE8BIrKpgpX7+26O1IOTyTBFMIPdTEREFNAn7BYxZZB74tL3GAsishsjmg8+e0L6EwCe5mlARDa0HJMlomeRerVyBrjcm4iIKEDkE3dMzAD3pCXrGAsisiMj2gOwIrfvfRB9n6cCEdmJqiyN9GNMysg5ooIP2dtERER14lfIX9wTloySsZkFDAcR2VXUJ7AwWcwEV/GNoljI04GI7EId+m1UHKgYLOZORERU+wfpEYheGJuxZLIIlPEgIjtjAgtA5tjhFaboSAArGA0isgGvu9ibFQ0HGjt+8UIA37PLiYiIakq/MU3t7ZmwdAFjQUSRgAmsE3Iy0gt9Mcb5AFYxGkRkaSJZWfcOLo+a4Tf0SXY6ERFRtfkU8hd3Ssvz4yZl7Wc4iChSMIH1E6vH9imoNJ0XAtjIaBCRZalmRtPhelD1NoA97HgiIqLT2mOaOiw2Y8lkuXq2n+EgokjCBNbPrJ3U65DLdJwPYAejQURWJCKZUXW8GTlVEDzLniciIjoV/cDtd/SOm7R0MWNBRJGICayTyJrUe79ChwPYzWgQkcVUxLsKl0XbQbsdxjQABex+IiKiXyiH4HeejKVXyW2L8hkOIopUTGD9ipyM9D2GOC4AkMdoEJFViGJJ5tjhFVF33OMWFyvkeZ4BRERE/2Ml/EYfz4SsZxgKIop0TGCdwvIJvbfAbw4D5CCjQURWYELmR+uxexz6FIAingVERETwQfQxd0rRIM9tizczHEQUDZjAOo0Vt/XbrDAvBpeuEJEViPl51B76rVnHFMJaWEREFO02GGoM8kxY+pBcvb6S4SCiaMEEVjXkZKSvVOi5AI4wGkQURntzMtK/j+YAcBYWERFFMRPQKW5vct+YiYtXMBxEFG2YwKqmnIz0lQ6VswHkMhpEFBain0V9CG7NOqaiU3gyEBFRlNlqCs7yZCy9W+76wstwEFE0YgKrBpZN7LtBoecosJ/RIKIw3LK/YAwAj8PxbwCHGAkiIooCCmC62+fuGzchawnDQURR/TbEENRMTkb6JqcawwHsZTSIKIS8lR7HVwzD8R0JIXiUkSAiogi3SVWGeTKyMuT2zBKGg4iiHRNYtbBsYp+t4vMPUWADo0FEoSCKzLVjepUyEse5k4teBLCNkSAioghUBdHH3N7k3rETl3zHcBARHccEVi1l395/b6XfdSaARYwGEYXgbv0Bg/D/ydXrK0X1EUaCiIgiimKhGNrLM2HpQ6x1RUT081ciqrXvb+uZX+BNOg+i7zMaRBREPp9TPmIY/pd74tL3IMhkJIiIKAIUQPA7d17WMPf4pRsZDiKiX2ICq4623dXRm3Cg+FpVzGA0iChIMlfd0vcww/BLAuMOAFWMBBER2ZZijmmYPTwTsp6RyTAZECKiXxv7U8D0m77iblV5CkwMElEgb9SCCdkT0pgk/xUVUwc9DcHdjAQREdnsCb8Fqnd7JmbNZSyIiE6PiZYAyp6Q/gxELgFQxGgQUYD4vH7nxwzDr3NL5Z8BHGAkiIjIJkoE+qA7pbAHk1dERNXHGVhB0G/6qt6q/k8BacFoEFEdLViRkXY+w3BqFdMG/wbQOYwEERFZmmKOiuP22IxFexgMIqKa4QysIMie0Ge1Av0hspjRIKK6DXTlDQbh9DwZSz5TwTuMBBERWfSBvkYNY6hnYtZIJq+IiGqHCawgyclIz004UDhMRB9jNIiolopUTO5yWk1VWnkXgEOMBBERWYUCxyByuzulZVrs+MULGREiotrjEsIQ6Dc953pVTAcQx2gQUQ1MX5GRlsEwVF/F9IEXQeUzPt+IiCjMqgC8UuVyPpJ4y0LuJExEFACcgRUC2RPS3lLoWYDuZDSIqNo3aJVXGYWa8UxY+gUUUxgJIiIKEwUwG5CunoysDCaviIgCh79Qh9CAKUuT/G7XNADXMBpEdBqbV2SkdWEYavHmMOUit9ddkAWgD6NBREQhfLFa4hc8EDchawmjQUQUlPsshVratBWTBPIUAA+jQUQnoyr35Uzs+xQjUTvlLw5sI4YsB9CQ0SAioiDbKMCf3RlZsxkKIqLg4RLCMMjJSH/RUBkIYBOjQUQnUQQxZzIMtRc7aekuVVwLwMdoEBFRkOxRxa3ulBY9mLwiIgo+JrDCZPnEvmtcpd6+J3YpNBkRIvqR6Es5GemFDETdxE7M+gqq9zISREQUYAcA3On2JneKnZg1U66e7WdIiIhC8JrEEIRf+tTs8yHyMiAtGA2iqOc3DGfH5eN7cdOHAKmYPvBfUHmQkSAiojq+Oh0RxRMxZTpF7s0qZzyIiEJ8F2YIrKH3K6uSnZXmswBuYDSIotq7KzLSrmUYAkcV4p0+6EUAGYwGERHV+DkCHAPkWY/X/5TctayIESEiCg8msCwmbdqK0QLjWUAbMxpE0TdGVmh6Tkb6SoYiwIGdNdpRmb9vpgI3MRpERFRNBSL4T0yF+TQTV0RE4ccElgWdmI31GIDx7COi6KGKWTkT037LSAQtvuKdPvhfgP6e0SAiolM4rJAXPDExT8vYzAKGg4jIGpgcsbB+01eebarOEKAjo0EU8fymgR4rx6dtZCiCq2LqwDsh8iQAF6NBREQ/sRvAE+5SzGSNKyIi62ECy+J6vr4mPqbc9ycA9/BliyhyqWJGzsS0CYxEaJS9OHCIYcgsAM0YDSKiqLcdgmfdFclT5a4vvAwHEZE1MYFlEwOmrjzDb+B5qA5jNIgiTonLdHTJmtR7P0MRwqDPGNDY6TdeguASRoOIKCpfhXJE8M+YA0v+K5NhMh5ERBa/azMENqIq/WasvE4VTwBowoAQRYw7V2SkPccwhEf51EFjRPAcgERGg4go4pkAvobqFHfG0jkiUIaEiMgemMCyoRPLCh8A8CAADyNCZGtZK3L7nonJwl9+w6jsxUHNDQP/ATCa0SAiikheAWZBzX+5Jy7bwHAQEdkPE1g2NvDFVW2qxHxMBKPZl0S2VAG/2XvFbf02MxQWebuZOvgyFZ0CoBWjQUQUEfYL8FyMA9Pl1qxjDAcRkX0x6REB0qatOFMgTwAYwGgQ2YaKYkz2xLQ3GQqLdcy0tLhKdd+rog8CSGBEiIhs+ZqTo4qnPeJ9TzJyqhgPIqIIuLMzBJGj3/SV55mqTwjQi9EgsvrNV/6WndH3T4yEdZU836+J0+n8C4BbADgZESIiyysXlfdE9cWYSVnLGQ4iokh7h6KIMnrWLMeugvY3qmIygNaMCJEVb7zyWvaEPmMhwsKxdngbenFgGzHkD2Aii4jIqraJykte8c5Mysg5wnAQEUXqexRFpA5TtrrruQtvAeT3ArRhRIgs49EVE/o+wuSV/VS8MKSzOsw/CXA1mMgiIgo3H4BPIPqie/zSr7ibIBFR5GMCK9JNViOtac6VgEwW4AwGhCh8A21VuTNnYt+pDIW9nZiRdReAcQCSGBEiopDaIcCrPqcxM37c4gMMBxFR9GACK1pMViO92arLofp/APowIEQhtVtEbsqe0PdbhiJy6MwhiV6/eQsU94BLtomIgqkCwKcQnc7ZVkRE0YsJrCh0YtfCyQDOZTSIgn2TldkVfmfG97f1zGc0IpNOhuFtMvA3IvIHBQYxIkREAXuK5kD0DbeBN+TWrGOMBxFRtL9bUdTqN3XlUEAfVsEIRoMo4DfXQyKYuHxC2n8ZjehRPnXwUBG9A8ClANyMCBFRjeUCeFMMfcU9fulGhoOIiH7yjkXRrv/01Z0UvlugMkGBFEaEqE6qBPJiVYz8efXYPgUMR3TSV4YleysrrwY0A0BfRoSI6JQKBfhEVWe78zxfyORMH0NCREQ/xwQW/WjIzEWJlb7YaxW4HUBPRoSoxhY4VO5eNrHvBoaCfuCdPqSbwn8j1BgHaANGhIjo+O0Rii8VmO2JK/1AxqwtZUiIiOhUmMCik+o3feXZpqm3ieByAC5GhOgUN1LFQlXzTysm9ctkNOjX6CvDPJWV3isUGAvgHAAGo0JEUcYP4BtVedsj3g8lI6eQISEiomq/dzEEdCoDZixt7PPH3Cyik8Bdtoh+dgeVxWLqY9kT0z5lMKgmyl8a3Nrwm781IaMFSGdEiCiC+SDyDVQ/qDLlv4mTlhxiSIiIqFavXwwBVcewyd84i5olXWgorgdwGYBYRoWilAngExHj0ewJfbIZDqqr8mlnthLxXw5gNBSD+Wwmogjgh2ApgNk+Md9NGL/sIENCRER1xUEy1digp5bEVsbHXAKVMSK4EICTUaEoUABglkPlGda4omApn9G/rWEaozkzi4jseAsDME9VPvCI91MuDyQiokBjAovqpM/Mlc2cfnO0whgN1SGMCEXgTTIHwHQT+mZORnoZI0IhexOc0b+tmI6rVHCVKNLBmllEZD37AXwG1TluqfpKMnL4nCQiomC+mxEFRtq0FT0MwfWqcg1YL4vsLRfAu6aBV1eOT1vLcFC4FU1La+BGzHAAIxW4BEAKo0JEYbIBop+q6hzPhGWLRaAMCRERhQITWBQU/aav7maa5iViYCRUWdOFbJEjAPCxKGbH5xV9kTl5uI8hISvSycOcFU0qB0P0IgEuBtCTUSGiID8fv1aRz011zInPWJjLkBARUTgwqUBB1+/55S3V6bgUIpdB9WwAMYwKWUQJgHkKfS8xpvjTzLHDKxgSst1JPGNAY4ffGCGCSwCMAJDEqBBRHZiArIKYCwAscCcXfydXr69kWIiIKNyYwKKQSpu2Is5QOVcFowGMBJDMqFCIHQYwV6GfVsW6Pl87plcpQ0KRQqdc5K6ILRwCU4cJZDig/cEfDYjo9K8EeyE6X6DzYwxZILdmHWNMiIjIck8rhoDCZdjkb5ylzZL7m6aeIwbOheogAG5GhgLMBLBaIJ+J4pPlGX1yIMJ6HRQVdFpanFdcg1WNYQZ0uAL9ALgYGaKod1AV34popkC+cWdkbWJIiIjI6pjAIssY9NSS2Mr4mDSoMUREzwNwNl+0qJZyBbII0AU+p8xZNa7vAYaE6H8SWmcKdAiAoeAMLaJocBiKZQJZJA7/Atety1ay+DoREdkNE1hkWb1fWZXs9OJsGP5zoTIMwBkAHIwMncQBAAtF8JWIc8Hy8b12MiREp6fPD0vwuirOUmCwqAwE0B+soUUUCfaoYLEoFosYmTHjF29gwoqIiOyOCSyyjZ6vr4l3lVf1MQRpqpKmwFkCtGFkoo5PgS0CLILKYjGMnOwJvdczLESBUfHCme3U8J8pomkQSYOiPzgblsjK/AA2A1ikisVw+BfGjl/OH3KIiCjiMIFFtpY2bUUrAANEMBAq/QGkAYhlZCKGAtgukFWmIscAskwxV+RkpJcxNEQhughnDkms8CHdgH+QwhgA6AAAjRkZorDJg2KFQJaZIos9scXLZcxabkhCREQRjwksiijDJn/jLGmc0AUOR3c10VNEuwPaHZA2PN8trxLAegCrFbpaDVnlKq9as+yugUUMDZG1lM/o39ZQ5wCF2Rum9IagN5jUIgqGAohkq6krDAPZ/irfirjbs/cyLEREFI34Qk9RYcjMRYnlZmw3h4meKtodKt0B9ADQgNEJuVIAmyG6WRUbAWxSQzZ763k2rb+6WyXDQ2RPJc/3a+J0OXuJKb1NMXsLpBeATmDtQqLqDsqPKrAK0DWikqMwV7gzlm1j7SoiIqIfn5VE0Stt2op6ANoDaA812gHa3gDaq6A9gBZ88aq1IgC7AewSyE4T5nYAm0yHsXnVuD57IMLBOFEU0GlprkrxdDJNM01E0wA5Q4G+AqQyOhTlcqHIUZEcA7oeYmxgoXUiIqJTYwKL6Fd0m7U+Jr6gqo0Js72q2QZqNBHRFgAaK9BCIE0AbRSF11E5oHmA5AI4JJA9Ct0lit2m6K4YR+WurFsHH+MZREQno5NhVDTv31r8js4Q7QpIZwg6Q9EVXIZIkWcfRDZCdb2KbFAT62Jdsk7GLS5maIiIiGqGCSyiOkibtsLlNFyNq+BrYfiNxhCzhaqkiGGmQCVZFSkiSAY0BZAUAMkA6lnoEMoBFPzPf6IFokaBQo8p9JChctDvwAEx9bDHWbF/8bgzOegmoqDQF85MKXdpZ/FrVzHMzlDpDKArgHbgTohkXSaAPQC2AFiv0A2qxvpY8W6QjJxChoeIiCgwmMAiCrXJavRvsDxFDaOeAi7TZSQAcDlUEmCq0xRNFDWcIppoQh1QI6m6H20YZjFUfBCUmqqVhkoFDCmHiUq/Q0udfvGp6S/2SkyJv76zgDWniMgOdFqay+v3tBOneYYC7WFqWxhoA5W2ANoC8DBKFAJ5ADYDslVgboXIVsDYElORtE3u+sLL8BAREQUXE1hERERkayXP92tiOFxtHdA2EG2rijYwjDZQbQugFYAYRomqoRTAzuP/6U6cqOMoIrtcDtnOZX9EREThxQQWERERRSydDKO8Yb/mEhPTBn6zrSHaUsVoDNXmAjRRoBmAJuAsrkjnAyRXoHtNxT4R7AewR4D9IrLL63TsSrxl4WGGiYiIyLqYwCIiIqKopy8NSq00jaYKf1OF0dRQs6mqNFORJqLaDIImAJoDiGO0LKUCwCFRPaBiHIKaBxWSK4LDItjvVz2gTsfeuL2L82QyTIaLiIjIvpjAIiIiIqomfX5YQoXTl+oQM9UvSDX8SFVBqkBTFUiFIBXmif8LpABIPfEfE1+nVwGgCMBRQI5C9KgojipwVKBHTJWjhuCoaRhHDdM8HBPjzpOxmQUMGxERUXRgAouIiIgoyPSVYZ4ysyrV6UeKqb4UEfEIjHpQdSskATDjBeJW0WSouAHEKTRJIDEAkgSIU4j7+K62iAEQf+KjXQASQnAIZQC8JwaPpgKF//tn4hWoV4//vSIVeEVRDKBUFRUGpFAF5SpmkWGiyIQUOhxmgSlGYZXhLEwoSShiIXQiIiI6FSawiIiIiCKMzhySCK84f/q/lXjE6arQxF/7Nz71lsWL+3gSyVFuSkZOISNJREREVvH/AAMdt4112mUuAAAAJXRFWHRkYXRlOmNyZWF0ZQAyMDI0LTA3LTA3VDAyOjU5OjIxKzAwOjAw7ra4xgAAACV0RVh0ZGF0ZTptb2RpZnkAMjAyNC0wNy0wN1QwMjo1OToyMSswMDowMJ/rAHoAAAAASUVORK5CYII=;" parent="1" vertex="1">
          <mxGeometry x="805.1899999999999" y="126" width="129.63" height="70" as="geometry" />
        </mxCell>
        <mxCell id="WauHK1ZiTlTc2SndrFiC-15" value="" style="shape=image;verticalLabelPosition=bottom;labelBackgroundColor=default;verticalAlign=top;aspect=fixed;imageAspect=0;image=data:image/png,iVBORw0KGgoAAAANSUhEUgAACIUAAAT8CAMAAAAgpVJRAAAB+1BMVEUAAAC7QEC9QEK+QEO9QEO9QEO+QES9QEO8QEO9QEK9QEOvQEC9QEO/QEC8QES+QEO/QEO9QEK3QEC7QEK6QEW/QES9QES/QEKAODj/Skr/S0v/S0v/S0v/QEBwMEB+Njp9NTt9NTt8NTt+Nzl4MDj/Skr/S0v/S0v/SEh9NDt9NTt8Mz3/Skp+Njv/S0t9NTt6NTp9NTp9NTp8NDj/TEx6Mjr/Skr/SEh8NDp9NTt8Mzn/S0t9Njv/S0v/UFD/Skp8Nj3/TEz/Skp+Njr/SUl/NTt+NTl9NDp8NDz/RUV9Njp6NTX/TEz/SUnfRUe5P0P3SkrWREaZOT7SREW5P0KFNjzvSEnFQUStPUHmR0jeRUfaREbNQkWJNzzzSUmxPkKdOj//SkrBQUSNOD21P0KBNjyhOz/7SkqlPECROT6pPEDiRkd8NTp7NDnJQUTqR0iHODq9QEK/QEC9QEL/TEz/S0u8QEO8QEP/TEzeRUj/UFAgIDAjIzAnJzAlJzAlJjAlJzAmJjAlJTAkJDAmJzAmJzAmJzAmJzAlJTAmJjAmJjAgKDAgIDAlJjAoKDAkKDAmJjAhITEmKDAnJzAlKDAmJjAnJzAlJTAjJjAmJzAmJzAlKjAmJjAlJzAnJzAnJzAkJzAmJjAmKDAmKDAnJzAnJzAnJzAlJTAmKDAmf25zAAAAqXRSTlMAQJ/f7//Pn1Bg3xCvEM+/b3AggDB/j48gYL/v/xAQf7//z28gMM+fIO/fUH9f3+8wYN9AUGCAQICfUI/fcBCQUECvgKCPb69AMLAwr3C/z///////////////////////3/////////////+QcP//YN8g75CgkKCAoCAQUHCPn7+AMEDf/++vYH+fICDPIEBfH59vYFCvkFCwzzCgkN+QcM+AoL+PwI9/4Yz3EwAAP0dJREFUeAHs2UEyA1EYBsA/zJ/IRISA+99UvYUqZD3vW+i+RhcAAAAAAAAAAAAAAAAAAAAAAAAAAAAAAAAAAAAAAAAAAAAAAAAAAAAAAAAAAAAAAAAAAAAAAAAAAAAAAAAAAAAAAAAAAAAAAAAAAAAAAAAAAAAAAAAAAAAAAAAAAAAAAAAAAAAAAAAAAAAAAAAAAAAAAAAAAAAAAAAAAAAAAAAAAAAAAAAAAAAAAAAAAAAAAAAAAAAAAAAAAAAAAAAAAAAAAAAAAAAAAAAAAAAAAAAAAAAAAAAAAAAAAAAAAAAAAAAAAAAAAAAAAAAAAAAAAAAAAAAAAAAAAAAAAAAAAAAAAAAAAAAAAAAAAAAAAAAAAAAAAAAAAAAAAAAAAAAAAAAAAAAA/xoAAAAAAAAAAAAAAAAAAAAAAAAAAAAAAAAAAAAAAAAAAAAAAAAAAAAAAAAAAAAAAAAAAAAAAAAAAAAAAAAAAAAAAAAAAAAAAAAAAAAAAAAAAAAAAAAAAAAAAAAAAAAAAAAAAAAAAAAAAAAAAAAAAAAAAAAAAAAAAAAAAAAAAAAAAAAAAAAAAAAAAAAAAAAAAAAAAAAAAAAAAAAAAAAAAAAAAAAAAAAAAAAAAAAAAAAAAAAAAAAAAAAAAAAAAAAAAAAAAAAAAAAAAAAAAAAAAAAAAAAAAAAAAAAAAAAAAAAAAAAAAAAAAAAAAAAAAAAAAAAAAAAAAAAAAMDu7n7p3h8eCgBgnuPS39ZjAQDMcXrsnw7nmgAA4PTUv+3PtT0AgEP/danNAQA8962X2hgAwHXpW8u1tgUAcOkhcTIAgI/JnAwA4GOCJwMA+Jj8yQAAPmZ4LQCACR9z660AAGZ/zLCvTQAAvPcw+WQAAK49zD4ZAIC1h8TJAAA+JnIyAICPiZ4MAOBj8icDAPiY/MkAAD5m2BUAwOyPGdZzAQDM/pjhowAAJnxM4GQAAB8TOBkAwMcETgYA8DGBkwEAfEzgZAAAHxM4GQDAx0RPBgDwMfmTAQB8jJMJAAAf42QCAMDHOJkAAPAxTiYAAHyMkwkAAB/jZAIAwMc4mQAA8DFOBgCY4LT24GQAgMk+e3AyAMBkux6cTB4A+BgnkwcAPsbJ5AGAj3EyeQDgY5xMHgD4GCeTAwA+xsnAF3t32R3HkUYBuHSOJ5xoDYGRKoraK5jsattrWMsohxnMYWb4/1+XK5yM1PLo7al+nl9xz7m33mIPAI7csT5GJ/NYAoA9GS8t5+Wl8eNpmO4e3Qk6mZUnVpumOf7ntbRLALC+kf9vc5IG6N7RnXbPMDPIk83//OWvCQB2ZX05/2hroo/Zv0MPDjSDFH9LALALkzb/VLulj9m/BwaaQYoTf08AMN1m/oV2rI/ZE53MyVPNL6wmAJhqkotOOUQfo5M5far5tZUEANOcybl7DtHH6GROrza/5R8JAKY5m3/b0rY+Riez9wxSnEsdASCFTH+2q4/RyayVDCKFdAHAOOcuOUQfo5NZO9/8vgupAwCsU6fnEH2MTqY8zv0djyUAmGop/6GLE31MR4eODC+DFJcSAEx3Of+xdksf09Hi8DJIcTJNBwA7y3mKdqyP6eZwqtLJkkEUMgDs05VcTM8h+hidzFOnmqnOJwDYjafzLrRjfYxOphwIKbyQmS0A+9Si3dbH7N3hijOIbersAdinFs9M9DGRnUz/M0jxbOoOAPvUfZ4P0ccUiwM4Umab2h0Az+Vd25wMso/Ryaw83+zaauoAAPvUqBwS38foZLofCOl+LAQANvIetFsTfcweLNafQWxTuwPgbN6TdjygPkYn88LUDNL9WAgA7OQ9ascD6WN0MidPNYVtKgAhJ0M65BB9TLFY4+Nc29QAAPapRbutj9mlw9VnENvU7gBYzh0sTfQxAZ1MPzNIcWIldQeAfWrdz3YXR7ugk1l7sSlsUwMA2KfWmEP+NIpwuJIjZdO9lPYIAJbyMHLIkUOjQifT/UCIYyGxAOxTi+WtiT5mmsWKM4htagAA+9SiHetjpjlccwZxLCQAgH1q0Y71MRGdTPyRMtvU/QNgPefYHBLfx+hkTpcMYpsaD8A+df85RB9THK7zQIht6v4BcDnv29LL+piwTiY+g9imAtDVznL+UZXPdu8b/R6dzNpqU9imAnDwruRcdQ55ePQ7dDJr55s74ZUEdAZOhtScQ46MCp1Mp8e5011IQBSwTy22JvqY37RYcwaxTQ0FYJ9atFv6mN90uN4M4lhINAD71KId62N+y7HUKydLBrFNjQdgnzqbHKKPKe7q/5GyrlYTEALsU6fkEH1McbTHB0IcC6kAgH1qsbStjymKY3VmENvUOAC+tJvybFcfU9xVZQaxTY0EYJ86JYfoY4qj/T9S1sWraV8A4LU8A5uTHvUxOpmV55sZOJ4AoFf71OLiRB/zo7v6fyDENhWAAMt5JtotfcyPjlaXQRwLAaCP+9SiHYf3MTqZF0oGsU0FoId28sy0Y33M/933YApw8lQzMy+lfQOApTw77Vgf8z+PRD/OdSxkMADsU4t2Wx/zXwthGWRw21QA7FOLZyYD72NKJxOTQQa5TQXAPrXYnMT3MYPqZNZebIqBbFMBsE+NzyFHRv21EHCkrOfbVABYyvE5JLiPCehk4g+ExG9TAeBMPgDt1mSofUzxyNxnkOLZFAAAX9p1146H2scUCwEZpN/bVAC4kg9GO66/jwnsZMqRsplbTfEAcDKkVzmk9DHD7GROH2+KwrEQAOxTD+aM2cKo/xYCDoT0epsKAJfzAVqapFm4v/Qx/e5kIjKIYyEA2KfO9Nnuo6NiaJ3M2mpT2KYCYJ968Dmk9DGD62TWzjeFbSoA9qkBOaT0MfV3Ml0f59qmAmCfWixvTQbVxxSPzGkGKU6sJACY231q0b4+qD6mWIjLILapANinFu24lj4moJM5+WQT4dUEAHfYazlEO66hjwnoZE6fan7GsRAA7FMjcsi9o/myEHAgpMfbVADYyFGWttO+HCl9TAWdTEAGCT8WAgBnczfxz3bvHs2bRwIySH+3qQCwkyNtTgbRxxQLsUfKunspAcAMLOX4HNL/Pia2k1l5oilsUwGwT71ztib19zHFIwEHQvq7TQWA5Rys3aq/jykWepFBbFMBsE8t2nH/+5igTuaFJ5twryQAqHCfWrTj/vcxAZ3MyVNND1xIAFDlPrVox3X3McU9vXmca5sKgH1qsbFdcx9THHqwPxnEsRAA7FOLzUnFfUzxQHwGsU0FwD61Qw4pfUzdnczai01vrCYAmJ313CObk/g+JriTWXm+mcKxEADsUyNyyN2jefdAwIGQnm5TAeBy7pV26/E6+5jinoAM0s9tKgDsLOd+accBfUxAJxOdQeK3qQBwJfdNO66xjyke6HCkLMbxFA8AJ0Pic0jpYyrtZE4fbwrbVADsU2O129X1McWhIx0OhERYSQAwrH1qsTSprY8pFnuaQWxTAbBPLTYnlfUxxeH0o7XVpqdeSuEAsE+NzyGlj6muk1k730RyLAQA+9TpOeTuUU0WAx7n9nKbCgAbub/arUnpYypyeGoGcSwEAF/axWvHpY+pqZPpcwaxTQXAPrVo3xjV5s2SQWxTAXAypN+uXhtV5npT2KYCYJ/ab1dvjKpy81bTZ8+mAwIAy7n/br81qsnbTe+3qQBgn1q885ZO5mCspoMCADs5yyE6GcdCALBPnZJDdDK2qQDYp0Z49y2djGMhANinhrj6nk7GNhUA+9Q5PB+ik7FNBcA+VQ65bpsKAGWfKofoZE6kgwUAZ/K8uf2+TsY2FQBf2tXzbFcn82o6YABwJecsh+hkjicAcDJkdjlEJ2ObCoB9qjNm1x0LAYDLeU5dfVcnY5sKgH3qnD/b1cm8lADAPnWmOUQn4yM7AOxT5ZCbH9imAmCfmufah++P5tNHtqkxALBP9Wz346YnXkkAMKx9qhzSl07mQgoCAK/lEHLIR7apMQCwT5VDPh76sRAA+CTX4Oq7n+pk5mybCgBnc5T4Z7s6mdUEAHF2chA55GPHQgBwMkQOifGZbSoA9qnVuPr+aI58/oVtKgDDtpxrcvut0fz40jYVAPvUGJ7tfmabCoB9qhwywE7mZAIA+9SAHKKTObGSAMA+dQZnzN7SydimAuBLu14+29XJvJQAwD41IIfoZC4lAIi3nuPIIZ/ZpgJgn1qjq+/rZPp8LAQALuc4zph9aZsKgH1qDM92P7NNBWDAruRcfw7RydimAuBkiBwS3sk8mwDAPvVgfPXuWzoZ21QA7FNDXH1PJ+MjOwDsU50Pie1kHAsBwD5VDik+s00FwD5VDhlAJ3M+9QgAbOSBuP2+TuaxBAC+tPNst/jMNhUA+1Q5JKyTsU0FwMkQOSTAl7apANinDkP/zph9ZpsKwFAt52G5+u5AO5lX088AgH2qZ7tfNwfheOobANjJweSQb2xTAbBPlUNC3PzCsRAA7FNDOGP2rW0qAPapnu3W2sm8lADAPlUOCehkLqU+AoBJjiaHfGubCoB96uB891ZvOxnb1PoBcCYP2dV3P62+k3kl/Q4A8KWdZ7tvNzN0IfUUAFzJ4eSQ67apADgZIoeEuHmrmZXvU28BwFLm6vvxnYxtKgDDcznnzO236uxkVhMA2Kc6HxLRyZxMAGCfKofss5OxTQXgX+zdxbIkNxBAUW1Ma281jBszMzN1NFUNMzw009eb2fOooVJdOucrMiKvUvrUpTCHDH1kB4A+te4zZk3cTiakTQUAfapnu602FQB9qjkkxlCbCkB9Ps6LZw6J38k8djgBgD51xQxG8TsZbSoAVVjCSsYZs/idzPsJAIr3bKaEZ7vjiWMhANTm1UwRc0irTQXAyRBi5pChYyEA6FP53fkmZCejTQVAn8rgQuxORpsKgD7V+ZD4nYw2FQB9qjmk/J3MVgIAfao55EBabSoAlXk6s6vpxZXayXyYAMCXdp7tBuxkHAsBQJ9qDplBq00FoC6ncinMIUPHQgDQp4Zwxmx8SZsKQFVeyezH4Px9S3fl2HyOJgDQp3q2O5Or2lQAqvJaLoY55JI2FQBf2oUwh1zRpgKgT2UHly8Wu5P5KAGAPtWz3YCdzPE0OwDQp5pDrmhTAdCnEjOHXHUsBAB9KjFzyI2K2lQAOJ1n4IzZ9fuW4uatY7N4PwGAL+08253P7XqOhQDAq7kk5pAb2tS9AeBkiDkkZiejTQVAn8rgYuBOZvXbVACY42QI0yZ+J/NiAgB9qme7ATsZbSoA+lRzSMxO5q0EAPpUc0jXOxltKgD6VGfMmqidzNEEAPpUz3YX5bZjIQDoU4mZQ25U0qYCwKlcFnPIzVsHORYCAPpUBqNOdzKr36YCwNOZBZlud7iTWf02FQBeLa1P9Wz35q062lQAeC0TN4fMvpN57HACgAVzMsQcckObCoA+lRmcb7rYybyfAGDlvZIXzTnV+XcyjoUAoE8N4XzIDW0qAPrUEOaQm7ccCwFAnxrCHHJbmwqAPpWZTS/Ot5PRpgKgTw3g2e7NW9pUAPSpIcwhd7WpANTg41wec8jafG0qAOhT2ZhtDhnvuJP5MPUGAFjJlHjGbP3YDl5MvQEAz+YCeba71v82FQBezQUyh4xvORYCgJMhIcwh64toUwFAn8rg4iJ2MkcTAOhTOajPm9l3Mo6FAKBP7ZDzIa02FQB9agxzyFCbCoA+NYQ5ZDw59m8fpZ4BgKdzh5wxa2bdyRxPAOBLu254tjvUpgKgTw1gDvnvTuZwAgAnQzpiDmm1qQDoU0M4Y/bPncz7qYcA4JVM56bNPncyjoUAoE8N4Nlu2/M2FQBey4Uyhwx9ZAeAPjWEOWQ80aYCoE9lGe7sdcas1aYCoE+N4dnuUJsKgD41gDnk953MW6m3AODtXCpzSKtNBUCfGsMcMjyaegwATmdiTbd33Ml8kQDAl3YBPNv9MgGAPjWCOeSrBAAe6wYwhzycAMDlMjpwvrGPAaA2p+xkyjA4f98/fG0fA4CdTAjPdh9KAFCBb3JpzCGiEAAq8W0uiznkuwQAxhC6Nr143/cJAKrxQy4HPyYAkKgS4JUEAFU5+2guAY/+zK6d3MgNA2EYVRqkZo4SJwCBN0HgvZNgDl4ZvbuMPnnf3ct7UXz4q9oEAI9m1yFX4HieHg8AvHhS/d+yIQSAR/ViD/mf1jQBwANrr/9LiDAXOwgAtD3PT/xL8yk9TwEAWLZayin3J/6evp5KKTVtYwIAPjPatteSV+vInzL3XI49tX+aHgCgR7SHywsA/IbRWqrHSZB8zxw3l5rSoj0A4O8ESS05d0VyEeVx1LRJDwD4Z8bS0h4bycM9tfaeS6m78gCAK0mSLe21xEzS7/HUEt1RU2pjTADAdUdJS6l+rJK195uLjp4v1bG1cdN7BwAwoktiLalHlEnuV5Imvfc1iqPUukdzLA+ydQCANhntLKW01+iTsxx6mP9IZYQ1n5Wzo0ZsRG1EbnyrNwAAxsXSfsS4cEYBAAAAAAAAAAAAAAAAAAAAAAAAAAAAAAAAAAAAAAAAAAAAAAAAAAAAAAAAAAAAAAAAAAAAAAAAAAAAAAAAAAAAAAAAAAAAAAAAAAAAAAAAAAAAAAAAAAAAAAAAAAAAAAAAAAAAAAAAAAAAAAAAAAAAAAAAAAAAAAAAAAAAAAAAAAAAAAAAAAAAAAAAAAAAAAAAAAAAAAAAAAAAAAAAAAAAAAAAAAAAAAAAAAAAAAAAAAAAAAAAAAAAAAAAAAAAAAAAAAAAAAAAAAAAAAAAAAAAAAAAAAAAAAAAAAAAAAAAAAAAAAAAAAAAAAAAAAAAAAAAAAAAAAAAAAAAAAAAAAAAAAAAAAAAAAAAAAAAAAAAAAAAAAAAAAAAAAAAAAAAAAAAAAAAAAAAAOADe/eB0LayBWB49q0IjbGObMdgp4d3udxCFvp6IVGKBoQz8vu+DaTQfnTOaOrQvGgvui533erFZToNAID1RR8PDJttk54ZAECzG2Ls5T4BAJy0QXQIAHAC6z6+bZfg/8nVAwmAZ3YR39XvE5y3q/W2vejydT/EF4b+Om8uVtv1ZZMAmNvhOn6gP6bzBFcv2m7TxyRD3sx6eAyAQx8/9iqdG7jaXuQhyl2/bNfpVABEiAw5LzTrXR7iKfLFiyY9CQBNH9NcpvMA612OWVxfrNPZA+gneJ0e5U2Mne2KKjTbbogZDZvtPp01gJjgcRXyNibLadmgaXM8gyxEABUy81LIWJuWC5ptjmeTt00qA6BC3kSBoUkLBeuLIZ7Xy3UqAKBCDlFklcAk5pt6kxlAhZQ/Cjn/hyG4JOkkBtcuTQWokEMUatPCwHoTJ6VDpgFUyLsolNOiwDrHSA0dAqBCNlGqSaBBnt4hACpkiFLv01LA4UOMVNIhACrkMop9TGAndYpd+g4AFXITxf6SFgHeDvGT9dv0TQAqZBXFfkkLALc5yhjL1A9QIX2qHjS7qMOwS18HoEJ+VSGco9s+Ts9V1IAKKXOnQjhDu6jJ0KblAjCRgQKHHGPVbYcAqJA2iuVUM7gZYiamMgBO6kKBi6hSm74AoEIa3005K02OSu0SgAr5wm9R6phqBYc+qpX36TMAKuTufJZT4XaIAme3HPJ7/2NtqgegQo5R6GV6srb/sY8JSr2KcueUIb/Gj60SQD0VkobTD2RW8WNdKgS7qN1wqUIAFfLQKor0SYUgQmbJEBUCqJBmiBJbFYIImSdDVAigQtIfUaBPKgQRMlOGqBBAhaQ/Y7q9CkGEzJAhKgRQIcWnG+9TjRUCb2M+Q59z13V3q7/rum6Tcz/MfFJGhQAqpHwmk1ONFQI3MYPhz659d/uNRNgfb1ZdHubOEBUCqJB0X/7Ns54KgcMQT9Nv2psmTdAc200fT3XdqBBAhfzPp/IIUSGcx2vb++7dPhU53Hzq40k6FQKokAfuyyOkkgqB63i03O7Toxze5XiCVoUAKqQkQ3KTzqpCcDwmt00aOVGIHFUIoEIeuO2Lf3eroELgXTzKcL9PT3Z418+woapCABWSmrv4pnybVAhntJmab9JMjpt4lKxCABXymcOn+Kp8TKnOCoE+yuVjKlDwdVOiVSGACvncYbz7P+RjSpVWCOxmapDTd8iwVyGACvnScZWH+I8/726alGqtEDjM1iCn75CsQgAV8jXN8fju3bvjPpVTIdQ8jxna9Ewu+yjVqhBAhRRYdoVgHnPXpOdzP5TPZOqsEAAVAjOfj+mP6Vkd/owym0VUCIAKGYM3UeJDk57bfZQ51l4hACoEZlhNbdMJ3PZRIi+gQgBUyBjk+acxp57KbKuvEAAVMgbvTvHC9HJ3UaCvvkIAVMgY9DHZ9T6dzn0U2FZeIQAqZAzeFURIk1KlGdJXXiEAKmQMcnmE1Jghx6orBECFjME6puqblOrNkFx1hQCokDF4M8NiahUrqseKKwRAhYzBISYa9pXPiz5WXCEAKmQMVjHRTfopmj4mGpr6KwRAhUD5Md37+u+4aeuvEAAVAsW7qX36af6IiXL9FQKgQqB4N3W/hKPEr2utEAAVMgZDwTym+pnMqtIKAVAhY3BTMI+pfyaT664QABUC5QOZ7UJe79rUXiEAKgTKTsjk9JMdY5q29goBUCFQdkLmuJS7broqKwRAhYxBW/QopP6HIUPFFQKgQqD8EcN2MX/TeF1jhQCokDEoPCBT/8OQbeUVAqBCoGQt5OWCXmzSVV4hACoEStZC9gu6de+XCisEQIWMwWbaD/YqHGKSCisEQIWMwZ8xwcdFbdK+rq9CAFTIGBS/LKT+kcy2ugoBUCFjcFn+Co7qT8msqq4QABUCBVfZ5WVd/9tVVyEAKmQM2tM9XDhVGkSurkIAVMgY3MUE75cVTX3VFQKgQqDgoO5lqsVx1jUWFXL1D00CTkuFQMHZ11SNJqZQId939aK92Fz3QzzU9/11zrnr/sbevWinbithHJ/3Vgwy1ggbbdtZiZtNS+k6geY85zlZvV9SBmzNiPT7vcDGF7b+kSVTJ9Llvmyatm2r+l3Vtg9No1ZGBt3X/Haw70fbNs3mC316P13jXw7a7Aq7L83D7z7Hg925R4X8BOAHviwW/nnl311UyJd21cdC9mW7Tbta94H/Xu/X9UPj6FNw7+G39iHyR4LfrqpmQ5/Opq3//iLH3q+qxqnda/Xah49Off2wQYWgQsBGnPPmVANbVMjNXLuOLDCqxJCPLBH9ymCEWDa1toHFeoMR0TJ5ud+2eY/XNdU68GV+9ZBQIagQKDLIPZVjWguky+PxZT/yZS/ttR7oGkN70YFkXOVZaMw8KHQ+8nWir5s7HYX5FtHXBrNAB/HdJuCaVWCpsHtwlMVPN5vBBzGukKEVIJH2she+7Mf2agT/Co4FvqXPZmAr4brm4ovq+QmiWCFfKh/5Rr7a3FOBVNvIs6iXV73Y5J9rrj943zqFuT8B36b7r5CGBUiEzRD8Kwz86efSUCHDKjIXUCHNKvA8YdeQneXnAQR/mt9hhTSryLeIS15d1/jIt9o+oEJQIYAKWQYqpPHMbF8hTRcXGpg3VDTX+sjLibuH+6qQyfPt+pYWsVlFniU8J1QIKgRQIQKoEEGDmFeIqzwvJ7SJStX4yEsLu3QvFeJmt2Zol7gIvICZZx0VggoBVAgqZPDM9hUin6EXW3Du3v5ABXx7FxXyU4MYd8gUeCG7VESFoEIAFeLpHqFC3IrZvkIazwJmc/e2ByoX2uIrpAm8jJAUGkSkSwVUCCoEUCHf0R1Chewj21fI5A3GZQOui5xZaIuukMEzs/UsRBOsTzoqJEOFACok0N1BhQye2bxCpmA5Lhs0iH2HWFXIc7Q/1IPn5W0TKgQVAua/y+LozqBC9pHNK6TxluOyQYPceYfUCs0r9+boOm7FWcQKFYIKgYxYYkP3BRWyYraukINnDSEV1CAKdqnACnmO9le2CQbnHBUyGyoEIgu0dE9QIUPP1hXiVgbjsoUmsK5YFVchuSYh2lLut5BQIagQMP2N2q90R1Ahh8DWFTJF1hNasjJ41ueTZYXMb165joSG3iT9UCHzoULAf7atuqiQx8jGFTJ4g3HZgOvYRGgLqpAhcD5vJPIYObcOFYIKgTy+/2TLU1Ehz8zGFfIcWVusbB7GWHkrpkIOgXNak4BKDHaoEFQIZHHkT7UwBBXSsXGFOM8GDFaHrNhQSGVUyCFyXr2jC9wLq1ijQlAhkEOV4QtoBxXSsU2F2E8QhJE0DT2bCsmqQhQiRJAhBhdijQpBhUAGe5aIju4BKqRj4wrp2E5Heh4jG4t7+woZovngPwRW84YKQYWA2Xhc0R1AhTyybYU4z5Z2zuBpjJ3KokIMCmCtECEyHSoEFQLLiyzhqXyokAPbVsgQ+P4fU9jHllhnUSEGl7sr5o6rUCGoEFiczzIyGUCFDMG2QvaRralkyBC4EJ1phXjW8ljMlRhRIXoIsEnmviZDUCHB9n/aZy5A3FNuh8jFeDSskI7VxE0pORgTKgQVAgubcgxNBlAhKzatkK6wgdlgXaqBvVmFTKwoOPor17O+3qFCUCGwLMefYjIEFTLZzjrvuBRd3gjhosSNQYUYzENs6a9e2MIbKkQLAX5J5o62yaBChmBaITsuR2cWIQZCsqkQb74hqGMbIypECQEWhsifiJpDhTyZ/je745JUZhFioDepkMl8QcaejQSHCkGFwKJGvv9nMqiQiS0rZMdleTSLEANvBhVisC7UF7NR6Q0VggqBRbnId/9MBhUSLCtkx6XZm71o2MBev0KezGe4AtsZUSGoEFiUn//tM4YK6Sz/k91xceLGaouugZi0K2RjfpgdGwqoEBUE2Kt7L0tDUCFDMKyQjgsUUrEvK4vBr9d1XU3v6vq49j7wLF67QgJb2Op8gQUqVIgGAjySkf/fbgsV8sRLGlUjJL6uj9U0puToXUqHcV8dt6+qawgFXOC5XtfVPjn6O4exmnHIlW6FTCwS/bqaDinR/7l0GKd67eMyN2ZgsbBd19P488egtMTn4OhQIagQWNL3Fu/sMeXGy7Z82Xm81iFHhQx8gxh+MrNCnvl20R/3iT5y2B/npMiWlvXCc8RtdXCXb8sbjzg61QoJfFFcT+mDq3q++ar6K8s3+tPefXiua883q/9FFTJedubL/jtejQC7ZC5lCNqspryEFdJdN/VQT2Ny9Bv30+yDjzdUyIFv5atRkIv7c7B/bcjcKR9/GklqmDxfb6dZIRNfEE+j5Biv114xlRmOI10ynoPdZEj5FSJWz/xlZAB6Zbk+UWFQIYFlXo9Ton/gxv3RRx7zr5Xwk5OHzjGY//IY7WfUlqPrDDeMjaNihQT+J/E4imIr3P6Y7YnfiT6EIESsJkNQIb8BqOav+7ODCplYIK6lA//gSMoFnXF5PEeLvSPzayueNnSLq8dor1chzT8fsCOhyd84+G/4Ar93JDdMwWQyBBXyGwAX7zhDUCFe9KdhDiu+3m4kmflDhc+5m13At45k5nfIqFYhXtYgAqO/fvC/PHXrx/zRN/+rjwoBkNxF5b++DBUSQ1jq8YfCb/nH03LjskBluSjEjzTLSbu4ZBUyLHlxp3D9FZ1ynPVT5OtEVAgqBOwmQ5jfyBAqRGHuQWKY2SAKHbIx29jtR+XHQKPGWNKv1z1/wKf8rcVhvQ78sXhzdw5n7ZU4qBAA+W10t09lUCEzxv3FF4XsEs11MnlrSOBrxYqWcFKdDKl5hrjP3VoCL45uN0WdySdUCIBgMkSgI3OoEPm4b78opB9JbrE/WWuTB09HR8sYA4uNlhXiE93KnXkZsVJdguxQIagQWNJ/mDEd8skqxI82n00+Qig8ltno748Jo8lr471hhVTLT/kY/IfktpqBiwoBmDvrbD8dggqZP+7rjM0+0WKGV91Vm0+qEyEzzvPGqkLiaFnboqcxGXoooEJQIbCoka8XWioUKsQnyurJcFPVSfPf3uiOyDMypDaqkJAK+Lnio/6tNaJCUCGwqDPfIDRUIlRIVdAnCyMtbB9ZLDrNScLe8Ld8ozOpkN4RmWfIyaBwa1QIKgQW5aL939xyqBD5uG+8P6ZPts+DasVLcHa0vCHq/HFe20UI0aQSIQJHrUcyqBCApX4qY9uQJVSIwW/9dCx2tF6WEpPaVMjJ9mmpN6iQ3pmtj8903l9ZZkYjoEIA5H8FiPiWyoEKOTvKbDAfmMm9stRO6wqcjL+Z0alXSO/s//vhs1HgVqgQVAjoTLMLhDZRGVAhR8pua7A+ZUaGjDpTISfzX71utSskOIMLOutDCIw6+69QIQDLLhGLuw0ZQIUIxkK7jzURFZAhXuUCnOx3sHnlCgnJYP1L/hcXHVWWA6NCAOTPZoV6+wkRVMippHfLTIXM3Y0KUyGnAp6WRqdaITGV8N9Pa3djjagQVAgs7cjzbB/IEirkSPlNBhEy7wm+n3mk9vXnYv5hsTbfDu4LeQA55jkBqBAAgS3PFHd2IYIKeaH8hlDMtMwQ875WNJRTfzVLfFWskAzHPFosCpmRQx4VggoBg4ftohBxZAAVEhzl19lHiPwEzRqdN5GF+kJe5/OdYoWE/KO/QGu5DieSHCoEQPeHtr3+GhFUSEgF3SBHms98D+u0tTjxMxrB6VVIst0C/pMd5eGzvjEEFQKgkCHM/aohTaiQlsqZCulJh8/8AtVh8pLlGPk5lvhGrUJO+S+nQLLdlNRaVggqBJAhAr7akBJUyLGguyMk0jHE7HPnQxWEA7J9b33VqpBQxI9q7ozr9qtxhaBCABkiELYqD2dQIYE0TCxyKG13+Tc0x+EcLE+8fID2WhWyzz/6CyTKpWKJb+0rBBUCyBCJPv96VVRIIg1hxnS95bjlaabxHAUn3np9alSqkF3+0V9gZ70aONhXCCoEkCFSvm4oH1TIrqCpEE+KhihcSDjbtDUtru8zH2ZdQvK6yHLJPG6dfYWgQgAbduXitt1QFqiQUNBUSEykqc6wPlW+VjWQlinzesm6iOT1LObtv3sbVEiuCgE4ch5h95BocaiQljQ0M14paZ1GdA35WtWWtLjM6yXrIiYhqkLueZfzI6BCAAROLGe9hxcVEkjFEwt4UjZmeLu5dK2qJz2veddL1kU8/XOl3PM+Z3CjQgAE9oHlbPfwokJa0jCY/KFssIlVvlY1FTY/GTQqJFFGP9i3kPx0rO0rBBUCWKNqv4cXFRIKWoFxInUjC0Ra1rQVjITqt0NUqBCv8MUTGAu4qb61rxBUCOCpjP0eXlRIW84CjGBRlt5k1Bomn0jRIB+4/sfeHe8mbgQBGN/33iysza4xONiNRO4SCJESdOprVkX3Z0XxkdkZO9/3BGkvsn8Zz9qiCnk28UvfWFjDOegrBIUQT2XUz/CikKazs5vaOoWG4o9kVGpET21UNgZvdb6tVyfcu+z/CxRCdFP9OZcobe94OINCtnZ2U5NTKer98WxsPbUVV8hWYQahwd03gTs5Chkf0T7lMsXwhxBBIbWdk6KtUynIPJKZoIyDuEJqhRmExi99JeoEFEJkbBxyabeo3ehQSLKzHJmcTr7R/+eycUjmp7RCksJcS2WytTevEBRCjEMESqMhgkJ+2nnq0Vq+QUc38YLo1b4y8tv2ZmMtxNUC8zUUQiRwWEYAIp0bEQqpzZzQSE6rQfirHybaj6CWmEIGBVCqDLZ6+wpBIcRjGaniZVkVhVh8IDN+FMKkpuAhpYOwQhoj3wV6duLJ7kGhEKKR9TEXbbtyN4VCtmZu8413alXf4KxuLWrSysiTkGBlAPhuXyEohFgPkSy1HQox8xe+v8NDPDAq99/YCCsk2NgKzQ6FoBDCISYGIiikdiV6kf++iPwjGT9/hWRhhQxKClEAZRRAGQohmppDUotCrteYeWXZwWlWzX8xxBtQiLOhkGhEIVVphaAQon0s7pAOheifP03W7/HDN1gMyTfkRRVyMKKQ1++rEBRCNJxLO+TvDoUo31lr0w9kLjUm7qHqCnkSVcirEYUsJ38JQCFEd9Sfiy+IdChEdQIR7L8UbC2/GIJCKiMKqVAICiEWRMq26VCI4tdRov2liyC8yauf11fIMwpBIUYUQjScm1yytEEh/9WTlccdndNtED5nql+vr5DaiEKCQyEohMjvo/p5GRRi5a2dB6ecn/21cKWvEG9EIS0K+TcUQtR/pqIO6VCIykHdMIXzJx9zX08N+gpxoqEQFDI+ouM56a2popBkZfNzcNq96ZpNvrW6QhIKQSEohAw2nJPSYxkUcrCyFjKNUcHT9NdCNBVyQCEoBIWQzY6nj1yo2KGQwudja4GfQ+cl889uuu31FRJRCApBIWS2vtSyahOcfChk3P29msasILjJ1icUgkKuhkKI/Ms5KYxDUIhwJ/NrIZfmfTH8kf83FIJCUAjRMUSF7RAUIlmcxltJ3+d8SGaTDSjkFYVcQiEohBiJbFBIOYU0OodPBLCU3DTz22xBIUsUgkJQCDESkX93CAoZu3ARnYHeZvslmVXKKASFoBAiUyORVLtLKES61US+mX+a6VHdVcwZhaAQFEJkbSQSUEgRhYSJnD2p5nhU93GTckYhKASFEBkciWwcCrFxOR6m8kKN1k0ov1qkfAmFoBAUQmRwJLJEITa2Pp+mopBqMgAJy4tAUAgKQSFEdkciO49CeH/7715mcTV8fAiLdcqXUAgKQSFEtkciO49C9D+Z30zmy/evZpX++NBWy914fqAQFIJCiBRHIjuPQtRv7ofJKORgDh+rtlquU5N/h0JQCAoRjui4jwIMQSF6DzriZBSSnI0e6zYs1rsr+EAhKASFyEU0nJMAQ1CIzkHdJlpol2/I6XYZfcSURUIhKASFkEJsiaxRiGSnPKe8U8nXbViOWDpFISgEhchH1O/X+Qv6hUIEW+c59aRw5uX60ikKQSEohEgv/xUQ2aAQuSIKucMfTZYPhaAQFEK6AZG/UIhY73lODa5EdbsQ8AcKQSEoRCai/s5jM02HQqTKs+rZCfcoABAUgkJQiHRE/V2nZpJHITL5PKtaJ9gqrGUAgkJQCAqRj+iegcgvFCJTj0Juqg5RWyAoBIWgEFKLgUhAIUrvAkMh/mEhLxAUgkJQiHxE/T6JrYagEBRSfT1BFIYgKEQsFIJCiP7QIRGFSPSCQq4TJOuHQlAICiH9cEhAIUV/ChSyUpiCoBAUgkJsRjik8Sik2GdkUIjf6BEEhQiHQlAI0WejeE4GhVy/xqCQVczyoRAUgkKI1OrPii/GRCEoxJJBUAgKQSH2Ix7LRBTy5Z1QiL5BUAgKQSFECvmTwDAEhYzqDYVYMAgKQSEoxH7EOCSikBGhkPEdtQyCQlAICiFSqP+QGYagEBQyPr/IejUoBIWgkPIRfUoMQ1AIChnfKmW90hGFoBAUYj2CIQMKGREKGZHfZsVO3qEQFIJCiDTa59vbopDxoRDjg5Dm1DmHQlAICiHS6dgIvEAVhaCQEW2yWjF451AICkEhNIVgSIVCvjIUcsn/yDo1Mfgid65/2LsX9cRxpAHDdd+KE2GrhIMD3szQEzoZ+pmQZw93+Z//7HlXEFGU7e+7giZtrBdJllEICkEhNSIWZSIKKQ+FlLVLeovicQwigkJQCAohunW/1d2fikJQSHlvSa3L6+ZTICgEhaCQm0d0rD/OoBAUUr4eaFZaHw+DfIZCUAgKIfLQu5aVUEhBvM3OIULy+8PnDAgKQSEohMhVu6xltSikXijkLdvMfzTjIJ+hEBSCQqYasTWkQSEFoRAPG1Pzf/Pjc/0FhaAQFOI4oqhFRRRSsf2yFbJL19LHw2r/9skPFIJCUIj7iEYtKgcUYvuv2K4m0yjnlWrv/FgfmwJ9oBAUgkL8RbTWokYUUq+Dwb/Cb/c1N34chiAFoRAUgkJ8RrTTolYopF7dkhWyr3Lyx3H/FuQzFIJCUAjRvHeGRBRiK7/XRT2WVV6Onyd/oBAUgkKIlrIzJKMQW4WkBaG3XCDNKPVCISgEhRA56IeW9IxC6nU++1iPSX/5AhgUgkJQyFwiWmlJ31CILfzEf3avsEunUcpDISgEhRDNbX9qg0JsT85/lhn2k15QPhYQBIWgEBQy54glmQcUYvt4dLsA8JYUmyAFoRAUgkLmHPFq3VcUYns3/sZUiKrGUcpDISgEhRDNdcdgQiG2W3F6pkIKDIJCUAgKIVrG4IBCbP8Zq8VPhaSD1A+FoBAUQuStrAU9o5BqtYu8yez0rI5B6odCUAgKIXLXu159tyQK4fDUlZ5RGqVCKASFoBD/Ef2qBY0opF55iceWJS3vIwgKQSGloRCiBfxI7VGI7exTkHnVaXknMQiFoBAU4iKiRgtCIca343a5e1P3gkJQCApBIcSjuijkhrNPjcyrbIAQFIJCUAjRTBWyQiG2/44XmVWdP4SgEBSCQoj8DxAohIdkKnS8yZ4QFIJCUAgRCkEhPCTzrmUdxSAUgkJQiJ+IDloQCrEek9slHlmW5KqhEBSCQojYF4JCjkvbnnrQsgZ7G6EQFIJCiFDIshSyX9pt5uhjPQaFoBAUQsSpZSik1YVtDIlaUhrEtHYeCkEhKIRok4pa+f+dikLcnJ7RLu60kF5s61AIClmAQohXsXi/ctZa0DcUUrO4rI0hweVUiBxQCApBIbSo94W+TvchyhGFWF8wcWlnlm3EuGYeCkEhKISo0aKSeExLalFIzUb99+WwsO/HIMYdUQgKQSG0rAcRg/ir1ZICCjFfouhlLq18zhTGeSgEhaAQolbLaicrKEEh5gPgw7L2Tb2IdXkeCkEhKIQoaFnNVB+ReUUh9rMDOSzqQd3R/luLQlAICqFlvbf8YaqbUyMKsd8Yot8W9RYZsa5DISgEhdDCXtaVpvqGjxcUcgO3RplJP1x+2BUKQSELUwhxYIg+T/P8dm1QyC2umCDzyOe2kDgXhaAQFELUTHZjyFpLGlGI/7f3+M3lVyMoCkEhc1EI0ahlxYnuq21RyC3+8FnmkctNMIfFKQSFoBDiIZkcJrkgkwWF+H9uxG3B5Uf9CYWgkPkohOiHltVP8mWnEYVUr9HF7E/duTxLJy1PISgEhRDbU+MUn5DRFxRyo+mzcTEKeRbbOkUhKGQ+CiHaq90h7vaz0t9sbkEPS1KIxFuqFYX85F8hKASFFN8YiHZa2GqK/+qAQurXOJ8MCZ3UyqFCdrpEhaAQFEJsDMlhelMhr4JC6hey78mQvaZ1P8xVIftFKgSFoBBiY4iupjcV8mL09/nuXyG+jmoxOA94e9/NUiFpwgpBISgkycURG0NymNpUiH4zugXFZSlk9LCfueDGm788JfLDnbb2ikJQyKwUQhR0cpMhBy0sGN2C0rIUIllLOngg6nbTXVkhvViWpqwQFIJCVIj+rji5yZCkZUWrW1BemEJWWlIKTlbrYtNe8bvRuJkK8a8QFIJCghD9bY2W9ntx0aMW1tu9vW1ZCglOrpfy1bq0uQtX+s9/cQNw/wpBISikFaLyIcXnUVRvWtpgppB2WQqRtdvrZaefVZgSOTr7w+/VuUJQCAo5f7MeUdTSUpCbt0taWBQzhfQLU8ioRW2Ds43LadMPtecJs5tr379CUAgKaYSo/Fbrck3mFy2tt1PIyoFCPMr19w6f4Y73Xd2BsLUnln+FoBAUUnzpEIU8oTWZRzXeTHvUgr4vTSGj0+slaUm5VEetqx93nTpWCApBIftLj5IkOmpxeZCb9rMWtzH0fV6aQuRdi0qDy8tjU3PPVBSbQpq8QlAICtEgRAU/bL1uDem0vNZyvep5aQrZa1nR5Z6hser7DYLVeoxnhaAQFHK4+MtHFLW8tdyut6zFvZoOt83SFCLJ4VaiqGWluruCGqN5HtcKQSEopLv4vRpEBz2j308CIdqb/m3i4hSy18Ie/e0ZWklpjZuV7l32rRAUgkJ2l98ribKe0eMUEJJsv1k5LE0hkrSw33l7570OlRcrR5PFJt8KQSEoJFx+ZRKt1D9Dfpf1jHrjb1a/OIWMWto43YNkgpdfd1t1rhAUgkIkXzwVSRSyGi7KGCyLJ6nWDy0pulWIgxcQtWLQ9ipCjT6ctVH3CkEhKORdjZ4oJCZDdB3EuHs9q958sB0Xp5BRPTFko6Wl+l+MZHD1e1cICkEhv5rdK4nJEOtzIHZbPatkf5rKZnEKkbWWlg9+TrPT/grUWhl8OOcKQSEopPnCkijRb3pe6SB2dVnPq7/BwyDj4hSyy1pc4wYhKVxj43brazkGhZSHQnwcqUyU9Mwexahwr2eWpGKtlhUdK8TBOt6jE4ToqeYQZHCaX9joJBSCQlBIsDr7kjhA1XRVpkt6boebPMbcOFaIA7pugottE2m4zvdi7WMxEoXUD4UU98Pq+QbiAFW76ZDwk57d5jZ/mDwsTiGjB7WGqNebCpGQb/pleEs6FYWgEBTyq7ImQzar/J+lTq7bY9azy8ON1h1SWJpC5KhnlBuDc0Kq/x8db2nyn7NORiEoBIXszX6SEBtUP9sMcr0OSS+oudkP/m1YmkJCqnC1GB5mp/0V//sf7beEoBAU4kkhQWHIl6J3deWQLuolpRueb78dPCvEwXai1N9253K66tfi9/Y7olBIhVBItSIMIaMXtRg4ZB/1ovJwy2WHNCxMIXLU83odbjlOt3J+jdortBhYKKRKKMT+sbnUClHhmkxBm1aqFh6zXlhz29/7uVmYQsL7zdC6+8Vk33LItzhG5+esU1MICkEhuy8+3UAU9dK2fZBadeusl7a5+SuHU+dbIQ52Nf9+sJNqhZmqlb2xilcjUUiFUEi94tcWaIl2SS8ubzqpUPeY9fLS4OAtO7H3rRAHM2ib4RazZb3F6w1Sb28QFIJCnCik0bNKfRCi0sWHgtKm+ypBkn6pQa5Re/4f4i7IPy50zZ/mpRA56gVtOmuD6MZIoakzNggKqR8KqUH2gvKmH/75vfJBaHmd9GvldX+hBEL/kPWLNY5Wqrbr5q59ks+e2rvmfp1UVYOBQvw/XJUuvVK6tfE8WchqNRsWznQ4CqkdCrH/TbJdr+66v7xXPt31/3evfBZaXh/65dK6aeWs2v4h6dc7eZwiSv+T/mWjf4XYLOTFfrBbsXuTi1vZECt0MZdoakAhKMSrQtq698peaHmFd61SvG+6IP+2p66532at0i8utu0W1NgrxP4Z78LiqjtjlL5PNyFqyNcnVrgrnAvsa45cKASFuL5XPgixQ/VL5e36ftV37dPf4eOp65v7dZk/HLyocdSafZ+bQmSvXyjH1d3wb7l6dx/rEtXg88WmK+TVY9TCkqAQFOJYIaPWLAnxQpla5fRZ1vIslv3NgZ/9K8R6P5HmeN/ctUH+rvB019zHfGOixq8Qq5V/Xmj78z5dj0JQiBeFGEyGBCHOULXPHiHWwH+enULkpHVK2xgf/q913CaDq8OA5tv1fXPXtU/hk1ZP3V2/elgnPbONoBAU4lohO63ZNyEYAkLqA7+fn0LkpI57szkVxaABhaAQ3wqRo1bsRQiGgJD661QPM1SIfKjb9jYMNegkKASFOFdIyFqvKARDQEj9H8PJUiEw5GTDUIOioBAU4l0hcqi/iY5gCAip+2M42CkEhpxsbq0GpQGFoBD/CpG11qsV4oFd922HyT079M1MIewNOc3n0x1kAgpBISgkJK1WIwRDvBeDs9e2FfRipRAYcpJqrb18FBSCQlwrREbOLasR7d51Ch3FrKPWKhopBIY05ucKG1zpKASF+FaInDi3jKxGXf+jjMtRKM9VIXLI6qi8n8/84DZMRSEoBIXImnPLyMEahEHpbaKrVK2BQljJS2/z+XBpMBi5UAgKcfeTrRdicwhbQurvUG2urxBW8tIwny9EGgxGLhSCQrx9VTi3jHYfrMZc4wnmh6srhM0hH2E+Lk/D9UYuFIJCPDOEc8vot8xqTH2GpDkrRPZpvkbdpVsiBIXUVwgK8c2QHIRcxrMyxzDp89yer6oQVvLSOKPPlgaDkQuFoBCfX5VRyGFMh2zHiY+w/TUVwqrML2FGLN8Gg5ELhaAQp/fKRshd7A7Jp8n/0H+5nkKYDsnNnB5hP9qOXCgEhfgS+3chMl3pLygOctPCWr/c69UUwnRIHOb0CHtjPHKhEBTiS+xZ/ieiU1IfxXEWA2yYvUJkt/a/I8T7TE8arUcuFIJCnIn9WYgcLcukXjw0JsMtV+UKYQotn4JYFI720zooBIX4U4iB2HshN+GQ3Mzmb9FcQSFMocVhTsLKjf3IhUJQiDexvwg5CYekJsznd/736grhkonjrD5ZHOxHLhSCQtxNHb8KuQiHxF58tfsS8XNlhXDJxHFWzwHlxmTkQiEoxKBTxU10RLt9muGeVPvx9bm+Qvw6JM30Atkn+1P5UAgKMVSI/b2yYBMd0T7633Jo0xj10vqlKMSArnkzzmvjS3wzHrlQCApx4JDyPy/R7pj8T4OYNH7oZb34V4h/ujpA6u6UrK94FIJC7BVi65CCuxvR+JEsCGK/I9VoveF1AQoxoGtejzN7IDmOhiMXCkEh/u+VWf5JRIePZECQmS5RZf8K8U/X2IR5TfTkY2s/cqEQFGLWfq1nl1v5pxGNx3e9SvlhH2Q67c4bh3LcB/8K8Q2R7Aqpu2MyQBUKQSEGCnF2r/xP9uxAQ2IYCAPwg8fIDLkGoQODEIPcveix6N1xt223dTT9vzeYmj/5d7OWCoDZcjq5gfC7XvE7bLxfu+u9Y9WI3w5KrmGwfpWWpQcYW6gffWPO67acAzTL/ax3frrwHT1X5+lZqOJjOgjq/HoDsTDaX4PHezfAWGdl3ttAAILKsSoysVsZoZIpeeaevgZLnaNTLT9CBUrrv4gu1+Jm2z+U3XIxAIKS/HpWtlcjARDUnHd3kZSdahnxc6wNBa1K5LTaUHsUu8zJFKpw2lG8AeDUIAAUreKZ0/S8fPQcxR71A7AxJB6ZOS065xiFTEu4ZiGX/FcZmf6jeAMAQGmq1YxkQWamWu7yPAFIQDX7tv3asPuf7cGBDAAAAMAgf+t7fNUVAAAAAAAAAAAAAAAAAAAAAAAAAAAAAAAAAAAAAAAAAAAAAAAAAAAAAAAAAAAAAAAAAAAAAAAAAAAAAAAAAAAAAAAAAAAAAAAAAAAAAAAAAAAAAAAAAAAAAAAAAAAAAAAAAAAAAAAAAAAAAAAAAAAAAAAAAAAAAAAAAAAAAAAAAAAAAAAAAAAAAAAAAAAAAAAAAAAAAAAAAAAAAAAAAAAAAAAAAAAAAAAAAAAAAAAAAAAAAAAAAAAAAAAAAAAAAAAAAAAAAAAAAAAAAAAAAAAAAAAAAAAAAAAAAAAAAAAAAAAAAAAAAAAAAAAAAAAAAAAAAAAAAAAAAAAAAAAAAAAAAAAAAAAAAAAAAAAAAAAAAAAAAAAAAAAAAAAAAAAAAAAAAAAAAAAAAAAAAAAAAAAAAAAAAAAAAAAAAAAAAAAAAAAAAAAAAAAAAAAAAAAAAAAAAAAAAAAAAAAAAAAAAAAAAAAAAAAAAAAAAAAAAAAAAAAAAAAAAAAAAAAAAAAAAAAAAAAAAAAAAAAAAAAAAAAAAAAAAAAAAAAAAAAAAAAAAAAAAAAAAAAAAAAAAAAAAAAAAAAAAAAAAAAAAAAAAAAAAAAAAAAAAAAAAAAAAAAAAAAAAAAAAAAAAAAAAAAAAAAAAAAAAAAAAAAAAAAAAAAAAAAAAAAAAAAAAAAAQNItiUftwSrPAAAAAElFTkSuQmCC;shadow=0;" parent="1" vertex="1">
          <mxGeometry x="550.14" y="710" width="171.73" height="100.47" as="geometry" />
        </mxCell>
        <mxCell id="WauHK1ZiTlTc2SndrFiC-30" value="&lt;div style=&quot;font-size: 23px;&quot;&gt;ML modeling&lt;br&gt;&lt;/div&gt;" style="text;html=1;align=center;verticalAlign=middle;resizable=0;points=[];autosize=1;strokeColor=none;fillColor=none;fontSize=23;fontFamily=Lucida Console;fontStyle=0" parent="1" vertex="1">
          <mxGeometry x="740" y="86" width="180" height="40" as="geometry" />
        </mxCell>
        <mxCell id="WauHK1ZiTlTc2SndrFiC-43" value="Local" style="text;html=1;align=center;verticalAlign=middle;resizable=0;points=[];autosize=1;strokeColor=none;fillColor=none;fontSize=23;fontFamily=Lucida Console;fontStyle=0" parent="1" vertex="1">
          <mxGeometry x="260" y="60" width="90" height="40" as="geometry" />
        </mxCell>
        <mxCell id="WauHK1ZiTlTc2SndrFiC-48" style="edgeStyle=orthogonalEdgeStyle;rounded=1;orthogonalLoop=1;jettySize=auto;html=1;dashed=1;dashPattern=1 1;strokeWidth=3;endSize=1;entryX=-0.005;entryY=0.454;entryDx=0;entryDy=0;entryPerimeter=0;curved=0;shadow=1;strokeColor=#FF9933;" parent="1" source="WauHK1ZiTlTc2SndrFiC-1" target="WauHK1ZiTlTc2SndrFiC-18" edge="1">
          <mxGeometry relative="1" as="geometry">
            <mxPoint x="210" y="260" as="targetPoint" />
          </mxGeometry>
        </mxCell>
        <mxCell id="WauHK1ZiTlTc2SndrFiC-37" value="" style="rounded=1;whiteSpace=wrap;html=1;fillColor=#dae8fc;fillStyle=solid;strokeWidth=2;strokeColor=#6c8ebf;dashed=1;container=0;" parent="1" vertex="1">
          <mxGeometry x="240" y="570" width="790" height="110" as="geometry" />
        </mxCell>
        <mxCell id="WauHK1ZiTlTc2SndrFiC-56" style="edgeStyle=orthogonalEdgeStyle;rounded=0;orthogonalLoop=1;jettySize=auto;html=1;strokeWidth=3;endSize=1;dashed=1;dashPattern=1 2;strokeColor=#FF9933;" parent="1" source="WauHK1ZiTlTc2SndrFiC-40" target="WauHK1ZiTlTc2SndrFiC-15" edge="1">
          <mxGeometry relative="1" as="geometry" />
        </mxCell>
        <mxCell id="WauHK1ZiTlTc2SndrFiC-40" value="" style="shape=image;verticalLabelPosition=bottom;labelBackgroundColor=default;verticalAlign=top;aspect=fixed;imageAspect=0;image=data:image/png,iVBORw0KGgoAAAANSUhEUgAAANgAAABsCAYAAAAIe3yOAAAACXBIWXMAAAsSAAALEgHS3X78AAAN/0lEQVR4nO2dT2wbxxWH35L6Z8sBLTdJA7RFYulawAHoQw9F7QBUDwsEzaFMLyniXiSgCRChFy7apLGBHlZF0ehUQArQ2MhNPNRGAR4qukkOaVHABOw0lxQwazWHwq4dWahdS5ZJFkO/oUczwyWX2tmdJd8HCJJmdmdJYn58M2/evHFarRYQBGGGDH2uBGEOEhhBGIQERhAGIYERhEFIYARhEBIYQRiEBEYQBiGBEYRBSGAEYRASGEEYhARGEAYhgRGEQUhgBGEQEhhBGIQERhAGIYERhEFIYARhEBIYQRhkLA0fbsFvvAAAr+DPKeUC81wDgKsAcLHqZS8m8HwipVidkwOFdRYAXlcqk2MTAJZIaEQ/WCuwgt84AwArAJBTKu3gEgCcqXrZu5a+PsICrBQYiusDpcI+2NDxNImM6IZ1To4UiYtxAgA+VkoJArFKYDjnWlEq7OZEwW+k7TUTMWGbBTtv8ZwriLcKfuPFgHpiRLFGYAW/cTohF3xUkBUjFGyyYOeVknRxquA3Xkn5eyAixgqBFfzGEgA8r1Skj5WC3zg6BO+DiIjEBYYd8qxSkU7Yl8TSkLwXIgJssGA2LyYPwhJ6QwkiWYGh582mMKgoyMXt8HBdd0YpJKwg0UiOgt/4OOWewyBeqnpZI4vQruvmAWABANjvWQBgAqsBQB0A1iqVSlW63me/K5WKpzSWALa9HpMkJrCURWwMwrWql418bcx13VUUVxBrAOBVKpUttG5f4bXHWFnAfcax7fWYJpEh4pA5NrpxAr9EIkMSFxPRPOuk+HMSAJYBYAuvWbXq0xhRktoPNixu+V4wt/3FKIKBBXExAb0qDwNxiFhzXbcMAGwItqg0QsRO7AJDD9uouLJzaKkP9H6FORd0EVeHSqVSQ8sWpv22k8TUcI21P+xDwW4kYcGGzS3fCxanuFL1sjd6XBcEF1c5SFxhcV23BABFdJaw/5k4WfvLoiCE69jzl8XHuK5bQItZq1Qqi0I5Ey2zuqx+xnVd5oAp49B2ZIh1Dobxhj9QKoafg4aB5fF3lOJaRWHk0ftYw7+ZmDYk1/8M1umWA3hdXmibeTavoCi5hxOw7XUc5o4EcTs5RjUgduA4RezovPPWlAsGa9OX5nNzlUrlJDpKuNDWlRv7ZxWXD5jFarfNnoHzwtkuQh1KYhMYxhueUCpGhyi+XOpKSUjQupTwLiauMm9BmL8x4RVw+BcK13WLOCxkr3WxUqnUhfbX0NM5MsQisBFxy/fi+YLfCP0Z4FyId9LQHV5Dxxrq5nP4PC66QZ7H22fzNd1QkOZgBjg7Yo6NbiwNGG3PBTar1ISHtxE03NQJo1+4wLTWFkUX9OyhwrjA0C3/llIxmgwap8gtzUIEcYdcPHmlJhr6+TIIqhsq4nDTR76RcvaZFnxnrqmUR0cLoNmA6zf34G+bR6Ju/PWC3zgfJk6RucZxbpPvZxEZ3epVnFPJ8LLZgPUpPjTUWiEJWSz8Hq2A8X2MjJPDqMDQcxZ5MO/CqQZ8+5umYyiZcZ+ENz+4Cze2I99DyYbMp5XSYJioNgQrtiwLSHBgtD2EruvOyyJh97iuW0URKWJFD2PbdY9OCehm9fB1yHGRa/gamJOkJK6b4fUlGCFMW7BUueVvbTfg2Vx2X9n02A40H25DZiLSKSRz27OkpX1bdxTGPIqMWYEiLgzXuNdPEsAy3qOzFou4TrWAnkLRqZHn7nvh+rIgmuvC9UV5voYBxh666n1sv4ZWq4iX1TWWbygxNgdDj1lq4g1/+8e78NP3b0P95p5S13q4Da29+0r5ARnEo8g66pwQ1MtDqEqi946tZ8kRF1I7dVzzqmJHLwltsLp50Tri9R4+U7y+LgmRX7+GIubCLwnrbvOjtNBsbLtKwW/cMCUw/4ePIh8iMoH95Ytd+PWPj8Hs18c75aUP78Bnmw/bf2cOPwdOZkK59wD8JIwVk8H5jEhVN6cKijXEOEduTbZ0rnvp+qJ8bcBcbt9rFNfcgu4ZJowIDOdef1AqIsKEwKDLEFEUGDgZyBx6NkqRXap6WcpENcSYGiIaTcJ5b1cpigRZXO1n7QhCbjWh+eB2+3dEjGJc5khhyoIZTQVwOPsAjh/dVsqjholLNydjFoxZMmbRIuD4ASPtCYtJxQF8Mv9rHIK///th2/mQBK3mQ2jubkFm6mtRPJ0txJPAhpTUHiHL3ObO2LRSHhetR/fbIiOIIFJpwZ5EcuSgtTcO0Goo10QBi+T46xc7XVtq7f0XWpkJcMYPJPSBrNco7xJOE6YEdtXkHGx/JMchpT5K3uiyNsZp7t6BTCYLTnZKqeuHMPMvdHnzdG0zuNCs7DIm7MHUEDGVh9IxN73MkSlHKZNp7txuz8sG4FK/t2AI0zrfgo/FeYyWuKKL2NCVEfFiUmDJeCAGJCiSoydt9/2tQdz3fR2kjpaLx/B5GM1xDKMo6ii0VekeFgr1lWYxmogRI0NElqYMT318V6kcVlBkIdz3myGiOHh0+5o0HCy7rruF4tJFzhMJY9LJsYLpylKx0fJnLx+F176nRnKE4bH7/g5kpp7p564wsYidUCa5AsOV5pQ7+iQojKob3RwsYdoa9Llh70kao6mzMQ/He0rFAXn75Ybh/WCPub/bgjfe/w/cvKvOzYJgywc91sg+qXrZvrer4P4uH63UfFAHw2xRcs560KRV4w4Tce9XDVNu14XrOinbsL7Ec25gIhs+PyxIyXmU9G/wJPbRF55bE9K5bcivM6D9VDh3jLrpq152xcTheu/9KQvHc/eg1Xig1EXJze1GaHEBrpG19qaC3PdhI+nXBO/hdcze2y1HYl7atqJsfBQEC2gV64Io2ZYUMZpezGrlC83U0aJsaLJe8ddQwKh9/twFbGNGuH5WSB+n228mt99JE8f2v8litI041sFYfvaPlNIDcH8X4PNbOWjuPGp3ZhtpDxWdDDhjyjLChbCnruAeq3khkecC7uXSfZN72An59hMPBdS2JGi5uFA8fq+0WZPlRZyTrE+eWziho4MgkkUeLY9Wqm1J+aZLFAsX17Jo3dBC6TZi+sJzF7no8T2s8s9A2BhqHbGcrsLys5sKbG3u3LFWZJroe+ZZffEgsYfYuYqSu14ZOqIXMS+nZhPKPd0Qy3XdDWzbQ2H4wt6vk7rhKZ+TiXMztFarOOQ7KeTWZ18Iyh4y13XX8X3x65lor2P1Sc3ubd4+26ITKlV4nMQVybFkSmBsrtPcATtFhp7F7KHnADLtj/qgKbT5nqqysF2fW6oNcTimQ0pi2u1bv4wCK0o5DIP2mi3wnCHo1awLu5454oZQHWVhxzNI2amKAcsNhW5OFxuIRWCsUxX8xjlTbnvrRbZzm1myL8HJRJZCATvUMubX2MDOXegyL+OIORG7dci+y7vMkTjifA36SBcnl88Kv3XDx1QQZ7DvisnFZyayJIN/g2i1HjGh+YMeY8TmNOiYUMChExdVr0ShnYxPEUV5cMcLHz52fjSpBAKzTWlydHBB14Qz0LQ/AV8WiRObwLBzGT22yFaROWPTm9WfT/5OqegDdBhcERLI6Oi6TiaC7vdeWYJF93kv+LVlTYo4WcC9BCa/nk56OUCLLf+we2xfE4t1uwpGLnyiVESIdSJzxiAzOTPwSZfYcfm8xUfBdcDJftDpK3JH522VZCsmrI1BwBxNZJ8IhHZ0wzr+3AX5iwL/35f+TbDMM5rhJl/vW0fniLUksV3lbNRuexmb5mSZ8elPIzgMnZ9K0rZmOO+qSYuva5IV4WtbPoqQOSmYZ9DDDi2uqW0J61aAHsR+LBhfnyui91FMzybnY2SOmTVhGaAspG8rCqe6yO+7V3o5xRNqE7FvuMTOdkGpiBgbLJmTnXzkTOReUypCgsOgeamDlYRO5mkWXBcFC5CXPHTzKA7RE1kQ2uqr0+KQcxGFIqZn65bObVEQBA9gLuLr1F1fx9eqSy9XldPL2Ugs62AyeADCjTjiFJNcJ8tMHrtw+Z1c1Aehi2nW9qVC0yFcr7jZcSiX79VWP27wMOncpOe2r8f71/k6mOYecd2vZ3o5W0hEYPAkMWks0fZJiMwZO3wvM/X0t6I4AH0YENbtmOg8+S0JC9prGmucWhLLyVH1skxgm0qFAZIYLjrjR86RuPbBc+GX5CUH/J+XDdX5YYlZMHhyZrNRh4dIXJbMGX9q88/vPv2CUjHiSEHGPD5yRhjy9j3/SwuJZpVCh4dRt71ILJasHeA7/aZSTgCK51XBadGZH2LM5NDlFknUgsGTA/r+qVQYxKQly0zkPr38y2PfVSqIfYhrcDpHyLCQuMDgschW4j4F04jInGwzO/2NOcrUS3BsSTx6Nu4kOSaGi5mJ3IckLkLECoHFEaeoI0qROdnJHWf8SOzvgbAba1JnY5ziNaXCMFGJzJnIvUNueULGttz0iViAg4rMGTt08/Ivpn+jVBAjj1UCQ7f9OaUiBgYWmZNpOWPT31fKiZEHbDxdBSM8jAcD6xhIZE527fLbT32mlBMjD9h6fFHVy55JhSVznH9Ac0+JqyOITn+y9ZNAS/ZSnJEenD5F9jm0Wj/66FfHybFBdMWKheZeYMwis2qno05iGkSXxegvAeD3LMcIiYvoRSoEJoPhVbEE0zbu/Uv89yqJighDKgVGEGkhtWc0E0QaIIERhEFIYARhEBIYQRiEBEYQBiGBEYRBSGAEYRASGEEYhARGEAYhgRGEQUhgBGEQEhhBGIQERhAGIYERhEFIYARhEBIYQRiEBEYQBiGBEYRBSGAEYQoA+D/xI9I4pvXoTAAAAABJRU5ErkJggg==;container=0;" parent="1" vertex="1">
          <mxGeometry x="547.0024999999999" y="580.5" width="178" height="89" as="geometry" />
        </mxCell>
        <mxCell id="WauHK1ZiTlTc2SndrFiC-41" value="&lt;div style=&quot;font-size: 23px;&quot;&gt;Cloud&lt;/div&gt;" style="text;html=1;align=center;verticalAlign=middle;resizable=0;points=[];autosize=1;strokeColor=none;fillColor=none;fontSize=23;fontFamily=Lucida Console;fontStyle=0;container=0;" parent="1" vertex="1">
          <mxGeometry x="250" y="580.5" width="90" height="40" as="geometry" />
        </mxCell>
        <mxCell id="WauHK1ZiTlTc2SndrFiC-60" value="" style="group" parent="1" vertex="1" connectable="0">
          <mxGeometry x="260" y="180" width="410" height="160" as="geometry" />
        </mxCell>
        <mxCell id="WauHK1ZiTlTc2SndrFiC-18" value="" style="rounded=1;whiteSpace=wrap;html=1;fillColor=#fff2cc;fillStyle=solid;strokeWidth=2;strokeColor=#d6b656;dashed=1;" parent="WauHK1ZiTlTc2SndrFiC-60" vertex="1">
          <mxGeometry width="410" height="160" as="geometry" />
        </mxCell>
        <mxCell id="WauHK1ZiTlTc2SndrFiC-20" value="Data analysis" style="text;html=1;align=center;verticalAlign=middle;resizable=0;points=[];autosize=1;strokeColor=none;fillColor=none;fontSize=23;fontFamily=Lucida Console;fontStyle=0" parent="WauHK1ZiTlTc2SndrFiC-60" vertex="1">
          <mxGeometry x="10" y="10" width="200" height="40" as="geometry" />
        </mxCell>
        <mxCell id="WauHK1ZiTlTc2SndrFiC-23" value="" style="shape=image;verticalLabelPosition=bottom;labelBackgroundColor=default;verticalAlign=top;aspect=fixed;imageAspect=0;image=data:image/png,iVBORw0KGgoAAAANSUhEUgAAAwAAAAE3CAYAAAAdYSayAAAABGdBTUEAALGPC/xhBQAAACBjSFJNAAB6JgAAgIQAAPoAAACA6AAAdTAAAOpgAAA6mAAAF3CculE8AAAABmJLR0QA/wD/AP+gvaeTAAAAB3RJTUUH6AcPFigorMMmmwAANwtJREFUeNrt3XmcHFW5//HvUz3T1ZNkkkz3hCCgrLIvAiquiKJAxCDJdMsmiBu43Yv+xN3rjYper9d9xR3ZsWcCAgooKiKKCqhAWAz7KiHTPVmZrp7pen5/JCBbIJOpnq6e+bxfL+/lBdOnTj116tR5qk6dkgAAAAAAAAAAAAAAAAAAAAAAAAAAAAAAAAAAAAAAAAAAAAAAAAAAAAAAAAAAAAAAAAAAAAAAAAAAAAAAAAAAAAAAAAAAAAAAAAAAAAAAAAAAAAAAAAAAAAAAAAAAAAAAAAAAAAAAAAAAAAAAAAAAAAAAAAAAAAAAAAAAAAAAAAAAAAAAAAAAAAAAAAAAAAAAAAAAAAAAAAAAAAAAAAAAAAAAAAAAAAAAAAAAAAAAAAAAAAAAAAAAAAAAAAAAAAAAAAAAAAAAAAAAAAAAAAAAAAAAAAAAAAAAAAAAAAAAAAAAAAAAQAsYIcDYndC5lYY6ki61Q9P9bp1WI74AAADN00EIMFb5XPWnw66jki95zVpFmkGEAQAAmicgBAAAAAAJAAAAAAASAAAAAAAkAAAAAABIAAAAAACQAAAAAAAgAQAAAABAAgAAAACABAAAAAAACQAAAAAAEgAAAAAAktRBCJ5eb9j3w1jBC5Mu1+R3V6L+w4kwAAAASABSxGU7mHyvJpTcRXQBAADQKkwBAgAAAEgAAAAAAJAAAAAAACABAAAAAEACAAAAAIAEAAAAAAAJAAAAAAASAAAAAAAkAAAAAABIAAAAAACQAAAAAAAgAQAAAABIAAAAAACQAAAAAAAgAQAAAABAAgAAAACABAAAAAAACQAAAAAAEgAAAAAACesgBAAAIG0K2eLHFWhhEmWZ++8Ho4EPElWABAAAAKSUm55nrn0TKUt2PxEF/o0pQAAAAAAJAAAAAAASAAAAAAAkAAAAAABIAAAAAACQAAAAAAAgAQAAAABAAgAAAACABAAAAAAACQAAAAAAEgAAAAAAJAAAAAAACQAAAAAAEgAAAAAAJAAAAAAA2khHOqqxKMh3LXlJM0qOPX5gRW3xPe18kLbR8blV2dXbN6PsRj18cKXOHuJUAAAAIAGYMHN007Q41h+bs4P2FUkfbOeDtKZz1a5mwXXNKLszjN6tSKdyKgAAAEwNTAECAAAASAAAAAAAkAAAAAAAIAEAAAAAQAIAAAAAgAQAAAAAAAkAAAAAgKbrIARPr7PTSvVGJpd0uZmgMaKI+KJ99E5b+Jy4kdldincPZLu6tLVcM2U+U7KZko9IwRq51rh5JZCWyvyWhgW3TB/WdferPDxVYzdbh8/uyAV7u2d2luJdTba9pO5YmiFppkmxTCvlWiFppaTbZbrJGvGS3Ejmlqkcuwlt4zqsW7nsvnK90F27yCwveY+kvEvTJVtt5pFcK+W6T9LtLrstDhrXtPuHJp+57Xa8QO47u2wXybaVNEPmM+WaJSmSaa3cVpl51eW3SbrVGrp1xkj3krt1Wo2W9ey6uxcUwhHb89E+QrLnrouzZss1Q9IjklZJtkoer5CCm83im0YsWLKyVr5bkhPFp7eF5k+LurJ7WGwvcGlXSVvJtaXMt5DZDLk6ta4vHpVptdxXSsEal6rmfrtkt7ni26Tglmp9t1ulRTEJwBTw0JrycqKAqWgbHZ9bFa7ZP5DmuTTPG9rJ5JLs31cae+z/rP//Ltlj/3So3BS4azhUraDSVSb9Sgp+Phidt3Syx6/Q1befuR3qsb1O5i9yV0ZPip89/gdPvny75EGg4dDrBRWvMumS2O2X1Xr5ZlpngoP+ztK+cRAfYdIbXLaTfP0TcXviQbHHDsoTD57JlfFAvWHxLsl/G8t+Vo12v7yNBwnW07XwZYEHh0g6SK5917Vde2JD9Se3XZf74yIVSKvDNcMFFa+S6zeB22XLR8r/oMU9alHQm7vhVa7gYLm9TnV/gUvBo33EBvsFuWTreliXqcNdhWyx4oF+ZfJfdnYElzFukQqdpRe7+TyTHRKZv0ixMk8I5aPXLn/SWNjVI1mP5I/+yf7r/nldzAvhkhWm4tWx6+pMEP9+eS3zR6ncaOdYWRoqMUelGXHoq5uzg/6VwWigrb8E3Nu5cB8PmvMlYJO/ezAaGNOXgPO54tnmOqoJ1VlbifpnTNWOawfNC4dy0/817oJcn6xE/d8Zc8eZ7dtZZu+RdJykWU3YRZd0pcx/2F3r7p9MdwhnqpTvCP04k96pdXeamuFWSd+JIzt9SOWVYz6+YfHbLh0yzgvGHZWo/6BN7styxfNi1wvHVQfXQ5V6/8s35bdzZyzYrDEavNfdjpL0/CYco3vl9n2rR98Y1IWr26HtztLRPZ25kZK7/kPy3ZuzFb9Fbj/tyDZ+smzN+Q9v9LUmLJ5q0okJVeLnlaj/8FbFOd+1cCs1grea6e2Stm7CJmJJl8v1nUrdLt6UwWlvWLoqlj9nPJUIzM8crA3894SOIaeXNo9H/K0yP16yHSdo9FxVrEtcfmGuXr/4QV30SLtdt3gCAKSJq2fc/ZJpszENDHPFA+X6mKTXNPmmgEl6ldxetTpc88WC+j5XiYIfSOV6Ow/8O3Pxh+T+H5KmN3lzO0v6RhD65/MqnuWBfX5ouHzvGH7/fJO2G2cDjcbZvrcYdx1Mc8Y8sJm28DlqBB8aHdGJkqY18Rg9T+aneJg9Ka/S56rR8m9LV4ymse1uNv2ouY3R+sek+rvcFTZ5tLSLTF8YHcl8Jh8Wf6IgPqU6vPj+qdCl93SVnpeJ4095bG+RNXXMFUg6SKaDCqHfIy9+N6xH3xzLwNTlu9s4b/64W+9ExbZ32pFbeGPkw/GonyBT14Te03blZTrGZMdEYbi64H0DFvjpg7XFV6hNpmXxEjAw+ZKIjerAC9kjdimExYvkulzSgZrYJ4LPkexbhTD+Zz5bLLVfkE/oLGSLH+sM/U65fXQCBv+PN8OkE4PY/1nIFT+f1zEzN3LgPGuStPAZ0gEbNZDaRsfnCrm+//FGcIdLH2jy4P/x5pj8a4Vs75Vzc33bpSl4W6nUVcj1ndIYHblDspOkZg/+nyBr0okWB7cVwr6vdXcf1atJqkelWYWw+PUg9qUue7sm9obr1jJ9IQrDpYVc6Xhp0UaM9RYFkrrbI7oHdOTDvg94Y/Sf69twV4sr1C2z492D3xbC4s2FsO+9c1RK/WwGEgBgso3/nyUB2EbH53rD4ldljRskvaG1tbVtzPSzQljqnztjwWbtEN+ebN+ehbD6F5k+L7V0UJ2T62MWRkt7s8VjkkoM24B1d/c8677ku4ovWx2u+cf6BK01AwTTS0fd/jEn7Ht9GgKX71r4kuHQ/ya3T0xw0vrUtis7KVsfuSmf7eubbH1wPuw7OAjjGyX95wQnWE+2pdx/UgiXXNvbWdr3mROWm7rbYUw4O7dw60Juzp9M9pV1NwNSZ2fJvuWh31XIFj8yV8dOT2ssSQCAyeYZ7vQWsn07rwrX/tml9ytVUwC9b3QksyQflg5Jc2h7w+LJgdk1kvZOUbXmuunMQrZ42rPcdZo5WZp4Vz07e8P/tZTJh8X/s1h/kLRTCqrbHcsuKOT63ty6KiwKCrm+UywOrlo3QEmNzcysv5DrO2uWju5p/5ZZyhbCvu+Y7JL1q/mkxd4e+B/zYekkbehJb1f6bxD05ooHdHhwrdxflPa6utQr0xdGw+E7Z3cu2IsEAMBEZABPO9Ar5PreLLNrTb5XSis+x+QX58Pi+9NWsR00Lyxkiz916f8kZVOa+L0lDv3anmxpjw38xWR5AqA4jp82AZirY6cXQr/ApJNTdn3rlNvpvdnikRN+Uqk0oxDeNLD+rn8mnaMlO7ojrP+1Nzxix3Ztk5vPKM3Jh365ZO9WShZYeZLQ5F8rhKWfz1Qp/5T/2kh3/9ATFue56xKX2m3a2GaZjo5BEgAAEzEQfEpHng9L/09up6u1j/03Rsakr+bD4qkbN2+1+Wbp6J6h7PTfyXRcGxz9nQLzK/NdpZc+8V+f0KmJm//e/PFixp+SAMyZXtp8NDf8e7V8WtuGz0w3/bjQ1bffRG2w0FXaMg79T5If3gaHdQdX4w9Pbbvp1xuWdhoZif9q0ivb4OyZ3xn6FZtNP2ruE3ve9CYAhVzxwEC6QFJO7ee2ynD5ARIAABPQv8dP6MgL2eJHTP5lpfOu1AZyGJ1YyC75YauTgB6VZnXk6pfK1E6DktkW+68Lub7XPvovurtXz5pcTfyJCcDcGQs2i0fjq+TaN+VV71Ksc3t1WNNftpwzvbS5Yv+NpD3a6NBuZrH/Zk5u4f7tUuE5YWkHl/9Wsm3aKM57NEbrV+a7jnxsmlImTmcCMCtX2tZc5yqtT16fra+S/y6tdSMBACYde6wjz2eL/yXTF9pzN/TWQrjk261KXHp1WHeQ1aVyvbgNozddbhf25ooHSFJXPZ5UCYCC4LEEYCuVukbrmQu07ivL7dCwt/Ew+8VmbmHzGaU58ahfrnS8AzHmJCn24KI5naUXpL2ic3N928WKfytpizbsYHcM4tHf9047cov1I9UU9hGLgo7Yz2rDaT//7qo8+D0JAICJMkuSesO++WZa1Ob78q5CtvjRVlx4PMyeLfOXtHHsulwamJUrbRvHI5MqAQj80ScAi4Lh0M9ssyc0knRiobPUlMRyB80LR+q6UNJubXyIZ8aBXxxIz0trBXt1WPeo20Upe9l3TFza1kcbAztoXugpXCa4N1zygTY8t5+oI3MFCQCAiZLLZ/t2c9kZk+IcN53SG5YOnchNFnJLPqv0ziUfyxU+n3FfrCDznMnUwN00W5IK2SUfl7SwLVt1oM81o+AV4fRvtXni+qgtXZqXzqqtv0HQvK9+T2BL9JcMhdO+KvdUrRLWo9IsN32izXuqpYOPnPtganMTxkobOGzXaQc1mrDGbKCavVC3EmE0NbM3u8gnz6ovgcvPnJvr23dZbeDOpg/+s32Hr/8y8qRg0gtc/rXJ1UH77DmdfXvHpk+18U68dk5u4f7La4uvTKrE3rDvXS69gx6wuXpzSxa5T4IbBP/uJd4t81vS9JqYZXWSXEkvDXurpN9KdkssvyMT28OxxbXOQMNxI5g52tGYnokt77JtXP5ck+0i+V6b+pTHZb9P81EnAdiQhn4o6VWJlxtrqdpzXibaaWghbTvO399p0vWSbpOraqYVLu+Q2wyZtpS0k0n7TODczNmjHvxQ675Y3LTPrHd3H9Wr+sj3NLFXwnslu97l/zTXoEyrJWXkmibTcyXtaNLe44z1DpOrgdtsD/QNSZ3tfZ4G75WUSAIwN9e33ajblyZ4D+4z2RKXL5XboJlq7soo0AzF2sLMdnL5C5T+1cc2/gZB58IX+YTfIPC7XXZTIN0Wu1aYVJPMZN4j860k21GuPTWuF2Vtl/REuZQx8xMSKiyS/MeBgq8sj8q3P+Nfjmz4upCNRvaX6QDJD5Zso5arDdyuIAEA0A6jkavN/PRGEPxyaLh878ZcMXqyfXtkAlso13HjTTo2ooKv7g2LJwxG/d9r1hayI/WvS9b8LxKbrpXr9A7zX2zkUw3ryfbtYbIFZn5s+7zw2rT4Hebj/7DZMsludvOH5L7aTDPMLe+mXrl21gR8ZdRdh282/ai5D689Z9l4IzLq9v0JGWibXSPX6RkFlzwcnXfHs//ghM6erqH9MrH3uXS0pM3at+GVsgr8RxMwdnKT/iizMxqmS4eG+5+1P95C86fVwvAVgfxNLiupjT/8lw/9QElbJlDU7bHbwqF6/43jKWT16nMGJS1e/z/1ZBfsbsr0yXScSdtteISduUJ1EgAA6XWhxf7ZwZGBa8d6kRqqD9wg6QZp0Wfy2RsXBGafcmnP5uUo+uKc6aWfL19bfijpsnvC4jy5jm7uuFWXxoF9pjpcvnrTY63PFLKlw938Uya9YIq22ZmbFn/7o8vPzihz2TMPXkuZQqf2tSA+wmVvV/Om02Ubo/UjJH1jXAOmXPF4uQ5scswvVhx/pjKy+Jqx/ez7I0PDukrSVVLpI/mcHxe4Pt78GwbJK2T9w2rusqqxmZcbcXzKUP38JWP54YO66BFF+pWkX81R6f0e+rtc+lA7JlyBNG+8j3lNGoyD+NVDw4vvT7p+64/NEmnRZ/PhTQea9B7JD9MT3rlL9/x/iZeAgSnM73b5IZWo/42bMPh/kkVxtT4wMBjZPi7/f5LWNmvgF4/6J5MvdlGQUVOXS73f5IcNRv3zNmHw/5QDV6mXz69Gu+8r+UmS1tCWn1FDrjNjtz0Ho/IrKlH/d579znW5URkp/3UwGvhgIxrdRtKpatrUs2D+eH69jY7Pmfunm5i03rW+n5g/9sH/U+Jar9b6fzgjmrGrmT4tpfn+6BN1dx/VK9OHmriJ28x04GBt4MixDv6fbLnKawaj/i/Fke24PrmM2+mEjaUDxt9w/ePVJgz+n3Ldi8q/rkTlBfLM7nKdLqkhpX/+PwkAMFWH/rJfNqLG3tVo4LJkSy43qtHAV02ZfSTd3KTqnzA317ddkgX2Zpcc1bwnF3bZSGR7DUYDFyV98alEA98I5PtIuolW/bQN/eog9hdV6v3HDtXLmzQNYIUuWFGJ+t8ts7dIGm1CJffvUWmTnzCsCde8r4lLUV7ciCzxfuJunVYbrPUvstheJunedmhKYX3k42rWtBrXmV2R7TVY678iyWKHVF5ZifpPCuTzZRpqj5P2gA4b/+pKdasF50xkrSv1826p1PvfErvtLdllaZ//TwIATE3frEblN6zQBSuatYHB6LyljWj05XL9qQnFd47G+q/kiitl3JpzB9WlH1QiHbpK5WqzYr08GrjNo/BlLruSpv2YUbk+UanbK5ePDPw9kQt8rXyGmb+nCXXNWrhpa5336rBud320SW33y5Wo/7AhlVc2rZ8YKV9nmY6XNvFmQSIKXaUtXXp3U24PyD5cqfcfe7/Kw03sI36p2F8m6YG0n7hzwjnbaJxf/XXp/uUqt+TJ6FC9fGMlKh8yWNd5JAAAUsS/VYn6T1ITV9J51ApdsMLq9UPkujrxws2O2nxGaU4iF/esv6EZL9Wa9MNq1H+iVG40O9ZVnbWqM8q93qU/0Ma10qVDK/X+zycd+8HawA/M9LPEL8SbuG6/h+GbZSo0YfD/pWrUf/JE9BODj5z7YEdn49VpTgLM/URJuSb0EScPRuX/m4h9qNQHbg1kB0hK9bz0RqA544+rj7Z+T5rf75MAANjYbvGyShS8fyIu6o9d3HXh6nrYmO9S0uv3hyN1vT2hZKIJd/bs8sFo8N0TGetlOmPtaGSHS7p96jZxVS2OX1ON+n/VrE3E1nGypFrCI+79NvGH72zCLi6uRrt/ZCIP27I15z/csI5DJS1PX6M6odM9ob7mib49GPV/eSL3ZHlUvj2I/Q2SHkntORwnsfqWbS0dwCI3JAAAJN3jUfZNrbgrsXr1+ZUg9iOU9Pxpi0+USpnxFLFZeMT2kr8u4V1+cCTSEdIVE34XapXK1SC2ktro5coErbWGHTQ4svhvzdxIdfjc+1x+erLj/7HPee7pWvhySXsnvHv/7Ii6jpMWTfhLoytq597tsuMmMmneGPls9XBJWySc8F1diQbf34r9WT4y8Hc3+89J3heEvdlCics+CQAw1bnLT6zqrFWtqsDgyMC1Mv/fZEu1bebk/GXjKWHUG0cn3g+6v7eZc/6f/QJf/oe7Pj/V2rhcxw2OlK+biI1Z7D9MuMittlKpa0wX7zh4c8J1iOPA3rFMZ6xt1UGsRuVLTf7jNDUsMzs24SIjl72jFTcIHotzrfwjky5J56jUE2l/blo0W4fP5vJPAgBMZQPJr/Yzdt217lMkvy/ZsbYfPq6Le6DDkh2F6heV+sAFrY51tW7/Y9JdU6iNf69S7188URurjCy+VlKSSwwGa7Nj+lqzSZqf5D6Z/CdDw+WrWn0g61HwYUkr09CottD8aZK/NtmMwr9UrZdb/r5Dxvx92uC3b1un0z2hb7zYjpmwczFJAAkAMFWNmuyTaajI3TqtZqbPJjzgfuOm/rbQVdpSrn0TrE6cidMRa6lcd9OiKdLGHwwi+9AEb9Pl+nWi40Lz52x82+17sZL5UuqjanHQ+ek0HMxVKlfl+lIa6hJlw0MkdSV3kDU0Wgu/nIZ9W/cF8sSfZCVQr8J9Smy6qL+6I+z425zcwv0ZCpAAAFPNhYNR+Z9pqcxgLfippAS/4mvbF7JH7LJJv4zj+Vp3JzWhEaFdunyk/I+0xLpSGzxbyd6lTiU3+1Qrlvxz8xuTLC/wjV/9xNwOTTT5kJ9VHT73vrQc07hu31TzPiY4FocmXN63V+rs1KzH37DOLyp1Hwn7/oikxM4tl7aNPfh9Piz9Yk6u+EqGBCQAwJTgslPTVaNyXaZE5/h6MLpJa6i728uT7UzjlMX6ilF3+8Ekb+IPVms9p7do24lO44ht4xMAdyXadhUrVW13SOWVJp3T8opYonGOG4pTdcd9/YvXl6bwvP5T8ofSXx+7riyExVsK2dInejsX7qMEbwCRAABIk39Vo91+k7ZKmVuyAza3l2xaRfSiBDOtymBUSd1LdY1AZ0zmBm6mH6y/Y9iCq2dnsvO4Xd0b94eLAkkvTHDDtwyODFybwmN7eiu3v37u+I5JZuQraovvSd0g0D11fYTLL2pi8TvL/BQPgusKYfFfhWzxtN5s8cju7gUFTTEkAMAkta4TXRSnrV7rpiT50gQ7sTGvoT5TpXzCF/eLW7mqx4asrJXvUoKP01OX4MS+uFXbrg6fe7+kxL7eaoGHG/N3+eyNu0iameBI+4I0HtvlNfuTSYMtGxyFHS9WsneIUxnnRt0uUcqWDa5Gwe8kPTwBm5or01vcdE62nlleCItL8mHx1EKudGzvtIXP0SRHAgBMUuZ2WYprl9hj53VrqJ/QOZbfZHPaI8mLu8lTG2uXXzpJm/iyofrADS0NrbQ6scLcNioBCBTslewgIE5p+yg3ZN6yJ5iBLOE4WyqX3RxSeaXL/pyyY1+X+URPXzRJu5l0otxP90bwQCEsXVfI9Z3S21naV5MQCQAwWROAjo4/p7Zubn9JsLiOWbmhrcY4cts2yf0ZCYLUxlquv0zSJn5960OrxF4+DqSOjdumb5fgLjSC2vTr0nqA4xa2XVecXB9hqi6Pynektj+Wp67/6uiIv5Fkgr1pCYHvI7dPeODXFsK+f/bm+j49K1faVpMECQAwOf1r8JFzH0ztBcfiaxK9WIxxQG/ybRIcKVRW1sp3p3b8nwmumYwN3OUtj3mQYAKw8eeOtk6wuJtb+eGvZz3GQevarskS7CPsGqXsC8dPqJ4rde+ALFtz/sNyfTFFV60d3e1THe63F8LiRfmweBAJAIAUDo7stjTXb3lUuUuJrfUsueIxXaw9TvQJwO1pvrgPDZfvk1SbfK3cVrX8PPOJTwCSfXplS9N8hDuDjpb1Y8nG2f+Z5jhnPJ3Xi0rdvuiy61NWrUDSG0y6rJAr/bU37Et0OWkSAADju6x7fE+6a3jFqKTEnlBYHGw2pr83bZbYtgOlPNZySfdNujZuKXhx0ZJ7CXgMkmu7Snc/8fDacx6WWhJjKck+Qro3zXGuj3SmtB2U6+6jb1ZrpwI90x2AF7nswnxYuqIn27cnCcDkMax1HyJpxv+AZo+O/pX6OroeSK4n8+lj+fNYNi3B/XiwDVrEA5wUk4Un13ZlaW+77lJr+jJXkn1Eqs+/9R8nG05j3Ybq5y8x+TGSGqm93Mr3D8z+lg/7vriD5oVqEx3C0x/QF2seUUDbDhFcj7RBkrI2qZkz5mMbFJn5tKQm7bh56pN6l9Yap8VkuTpNT7BlpL7tWktumpUykueS24n2iLNLXWms22A0cFEh13e83E6TlElpCDMm+9CKcPrBvSq9ad1y1+nGEwBgEgrM0p8AyBOrYzzWQVGSd/fiYDj97aENEkJsrMTarrdDP9GCmxm9iqYlugum4fSHOd19RKU2cKa7H6GU19OlPV3+53Z4SZgnAG3AAlsdS39oTtYfPEiE0fbnyJgfJbhN8a/Ao62bO9rskHkbVDL1dazWBwbmdPbdGQd2vpToalhJm23SL/LZ0lHVermfBACbbHk0cJuk/YkENlbsPi39tbRpiU0BGuvTBLO1iV3ugrgr/e1B0xg1ThprJXUnMyxtg37CNOF1HFT4SCHB8bC5utIfZk1vhyxl+cjA33tU2ivI+ldlemuKq9ph5uf0hqX6YFS+MI0VZAoQMBmZT099HT3BOpqtHdumk5v6YG6pH0SZNJ2TYnJIcqpGrGBaG+xvC9puuSEpSi4Bd+KcoCGVV1bq/W+T+etMuiHFVe1w+VlpXSGIBACYlON/e076K6ktErt4xWN7UTBI8v0DU/pjLd+Cs2KSnNtKct6+p73tmkmbtyjQycXZglTHebYOny2l/ynFk1VqA5cPRraPm94mKa0v3c4IzH62lUqpiy8JADAJuaV6fqTWrbKhLRPb30APj+nvfWx//4zX9jjtsZZJ9lzOikljeWIDgJT3E3NnLJgjqTV3z92Ti7Pi56W6RXXa1u17OpQb1Vr/TyrR7rvKbaGkX0uKU1bJnYZDX0QCAGAiRnzPT3P95oTaVgm+gxQovntM8Ql0V2KxtnTHOt915FZqw7t72ODANLG2G3u62+5II7NDC4dHicXZFaQ6zoF1PL/9T4xFcaVePr8S9R8UB7atuz4l6e8pquBJPV2lVCWCJADA5LR5vmvhVukdw+jFSZY3quyYLtaxkvt6r0u9s3NHbpPaltAYeTGnwyQa/0t3J1WWSbuncWrC4zKU/VoXZ787wdJelOY2ZZbu+o3V0HD53mq9/7OVqH+fhsXbSP4+yQaU4NOzTRAGsX+YBADABAz8bL+0Vs0tTnJQOrqi9tD9Y+v47M5EO9K4kdpYmxkJwCRiQXJPACR1rO1q7JPikWnLBqbmSjLOm6ft7u+T7DdZz5cVtcX3VKKBb1eicrES9c91990l/aekn0taMcHVOSZNCTcJADBJBWaHpLh6SX5p+0bpitExZQy1keuV4LrXpniqxBotFsfB9UmWl/Hg4HTuaSkTuF7Xqq27WcJxVir7iLyOmSnppVPk9PFqfeCmStT/zUrUf3glsl7Ftp9cH5f0G0m1Jm9/di1sXZsmAQCmSk8nvUFalLpzvDc8YkfJdkxwP/861t+s0AUrJC1NbKfMDl3/YnOqzM4t3FrSHpwNk8dQXTdLWp1YQuF2WBr3s6dLL3Wpt1XbH8mOXpPkTQJ3n5/KBpWtHSIpOzXPpnKjMlL+a6Xe/z+VqP+1HoVzZXqLy36pJr1I7PIDSQAANNvm+XDJa1OXmFjj2CTLM7M/b2JP/JcEqzGnJ/TUffo9iIPjOA0m36BFsmsTO3/ke83p7Ns7bXtpcXxsK7e/evX5FUm3J1jkQZtNP2pu6uJsdizn1DpVnbWqUus/vRqVD80os6Ok7yjB70Gsu+woNecaXwLegEK273BZcssUPnayeTA0WC+fTYQxIZ277N2SfpWeGp3QKa++PdlzSldv2oXPr3ZZYgPkYF2sL0lPrEsZs/idEt8Annwntl8t16uTKi4O9E5J70nL7uV1zExTdHTr71boaiW3yle2MTL6VklfSEucZ+cWbi1niuDTeTg67w5J781n+75jsh/JknlPIk0r9JEAbHh08H5Jr0q8P7F4qSQSAEzUFWx+IXvELpX6ebek4sKeGzpOnuiHs24bjMqb9AGYOPCLLbbvKLERsr++J7tg96H6+UtScRMjp6PlrP8/Kc9qs4vN/eMJXvCOmzO99Jnla8sPpeLym43eK2lG68f/utik5J6imb9vK5W+fr/Kw2mIc8btZEkZzqgNq9YHbpJK++dDnW/y1ydQZE9a9o0pQMDklpE1TklHVUrZwP0TyV6g/YJN7tiHF98v03VJxjqwTEpifUKnPP5vmv8kHZQM7/YXSf9KsMjp8ah/Mg37NluHz1agk1PRedbtEiX7YuiWw1n/j1TEObdwa8neydm0Mcr1zij3JkkPJlBYmJZ383gC0Abu0ylbdnR0fqAZZZupf/ORj/yZKE9qC/Nh6ZBqVL60lZUo5Py/3LVtoglA4D8fVwGxfi7TCxOs0hsL2eIbK/X+n7cy1vls9aOSbU/Tn6wWxa6+i0x2QoKFntjb2Xfa4MjAta3csyDM/K9c+TREebnKa/Iq/TahO7/rL7r6RE9X6dyh4fK9LU1uPPM1yUPOpY2zTGeszavvSyb7yjiLqkmLUvGlYhKANpDpzM6Vxx9sRtmx/HZJJACTnMm/16PSnkMqr2zF9ns7S/u6+0cSHfxLdw4N73m1tHjTO8DAzx51+7SSfBpq+vYsHX3lSp091IpY92T79jTTJ2n1k/y6YH5W7IkmAB0K7Ec7aN6Lb9clUSv2KR+WXmfyVN2VDtzPdtPrEyxyZhDr+1q3PK+3Yp8Kub63yP1wzqIxdu2xX6VgfDNGTVqTmrbNIQWmhOcFoc5rxVKV3d0LCnHgP5PUmWznZaeO907KstrAnSZdlvAub9kR1s+TDpjwGyyzdHRPYDagKbus39SxvLb4Skk3JpxU7zmUnf79VuzP7NzCrU1+plL21vpg3cqSHk62VD+4N1dsyRS92Z0L9pLbt9PctnfQvFQ+mQiymfsSOMcGSQAATDA/uBDGX5vIC+xcHTs9rGcuMGm7hIuuRdmOnyQUl+82YddfVwh7vzmRsd5C86d1hCMDknagrU+Zc/p7iRdpOq6QLX58Iveiu3tBocODCyVtlr4Yl+sy/3HiR871qUKuOKHL9M7OLdw6E2QulDQ9za16RTj9fYWw9Os5naUXpKleI/XRBJZxtdtIAAC0gL2vEPZ9YyJeQsrrmJmNcPhSl16R/BhFZ65efU4id1IGo+CXkprRKb+rEBa/MxGxnqPSjCgMfyH5q2njU2j4H+XOkKnahCTgc4VscUKmkW02/ai5YT3zW5f2TGucG/JTJdUTj7Lrx/lc8a0TEufwiO0zHvxe0vNS366lV0r+2jjw6wrZ4o8KXaUt01CvwDqeP/6DHpMAAGhdEtAbLrl4tg6f3bQBadj3fAujq5sx+JdUHzH7fHLFlRvm+lSTQvGu3nDJL2bp6J7mxbq0QxzqakkH0LanlqrOWqVYX2xON6HPFnJ9Z22h+dOa1nY7+/ZujNb/nObBvyStqC2+R9IPmlB0xlw/zod932vmlMHeXOlVDTX+JGnrdrhAmfTyx8aoprcp9qWFXN8p3d0LCi2u2DHjLSP24K9pCTQJADAFuTQvE2b+ng9LhyRbcimTD0snxbK/Sdq1SdU/dWWtfFeSBQ7Wd/+ZS/9oUqwP6Qjr/+gNS4cmW/KioBCW3hfLr5N8d1r11BTWo28qmeUJn6bx2tFRGF6T7yq+LOF+IpvPFv8rDuxqybZphzgHHXaKpLXNybXshEK298qe7IJEz+M5Ks3oDYtfdfffKJXTq54qny3t4lLvk/71NLl9IlvP3N0bFr+S71q41UTXa93Xsv0N4z2jMp36PQkAgBazbUx+SSEsXdjbWdp3vIUVsn2H50NdZ/KvqXkf8VmR6ej8fPLFLoolfaSJwX6eyy/Oh8WLC52lF4831r1h6bBCeNM1kn9T0kza8tT1oC56xMwXNXETu1qsPxRyfWcVskfsMt4bBIVc35sLYXyjmT4jqW2WoVy+tvyQTF9tXneslwaW+VshLH533Rr9m24HzQsLYfE9cei3uPR+tdHHvoLgGZ8az3DpAxYHdxXC4uJ82HfwREyxnDtjwWZxoMUa58qZLrshLR/bk1gGFIB8vgeaX8gWr5bZGXGgX2zkGtXWky3tbtICMz9W0g7W5FXt3Ozkh9ees6wZZVej/l8Vsn1nyOzY5l3jdagCP7SQLf5F5mc0zC9eP73gWX+az/btarIFMj/W5TvSbvGowdrADwth8Rg14ev1j47L5Ha0rHFkISxeIbMzgowu3bjBzKKgt/OmvT3jffL4ze38deru2ozPrQ7XFCXt3KRNdEp6V8aDtxfC0qXu8Zmj9eDyVSpvxHseB3T0dOX3C+LgTUPSUZLmtOXVKPZXbsTSCR2SFphsQSFcco+rWFYQD1SHF/9FCS+t2psrvWp0xM+StGUCJ9GZaYo1CQCAR0enL5X8pUEsFcK+OyS7XuZLza0is1VyN3fNNtPmknZyaV/JJ/Cxsl1erZV/3Mwt1MP4A9l65iBJc5sc6/0k2y/j9q3esHiXS/+Qaam5BmW2av2FsMdMcyXt7NI+/66T0VbxlHFTIH9nLLteUlcTtxNIeo3cXxOPSoWweLOZlrj8NvegGpjWyOPA3WbJ9FxJz5cteaG78uuGZe3ddu/WabWeYOE7gji4Us2dQdEp+Xwzm98ZepxX6UaZ3xxIS2PXisDsEXfvkGuWTM+TbCfJX6S4aU9eJ/I69Mox/mJrk05WHJxcCIsPyHW5B35lxvWH5dHAJr1wu4PmhZVw+msC6f3u/rqEGu6IMvFZJAAA0t4Lby9pe/n6e/ruj409W/LlGlO1ocw71eTNr159fqU3LJ3g8gsmarTi0raStpWrabE26a7128EktTwauK0QFj8i6RsTuNld3bWrZDL5+qZrTzxzxt+I71GKXl4dGl78x3xY/IpJJ0/QJgOT7yXXXr6+U/LH9RFJBVny+6TWPp3Jdx35XMWj4znWW8r0FnN7SyypNywOSrrVXUslLTXpfpfWKNAaa9gKSVLGu2O3XCDfOpZvH8j2GJL2D6REX3436aeDjyz+FwkAAGy8OHa9eUV07t0TsbHBqHxhb67vs+72qckQPJddb/JPSrqIpjS5VaL+bxayxRfI9LZJsku/cdO55k1ZgWeTVSP7aG/ou7t0yCSJ8/lyu1amz7WyEkGj8UpP8LbL+peJXyFb916BP+4/eOCP/bPJtS65atok1pFkV65LKN50mcAk5TpdLbphn/B+fHwo6r9kIjc5WBtYJNlA28fOVO20eKHi+EFOiKmhuz7jvTK7ZhLsyr2dnXaUxVZJX9XKjXpkx0h+xySI860ehcfLtKLlXb35KyfjOWmmzye9ch0JAIBn6EztTLk+2uZ78a1Kvf+LLQlfFL1Vrj+1cfAiyY9YVhu4Mwg6V3JGTA1367SaBZnD1ZyP202UVRbHCx5aU16uQKlsu6tUrso75kt6uI3j/HAgm1/VWavMUxHnSZcAmHTDYC19d/9JAIBJbt3g2b/eptU/tRIN/Kda9BRjUBeu9no4T66/tGHsHnHpsEpt4HJJCjrjVZwNU8fgI+c+6EH8mra8Q20aUuAHDY4s/pskWUOpTV4r9fNukfurJC1rw2byUOyNA5dH5dvXx72lcZ6pUl7SLpPsVFzV8MYxUrmexsqRAACTPQmIBj7grkVqr+lA36xE/e9pdZ2rOmtVoz56iElXtVHsVgcWz6tG/b967Eq/RjwBmGKqw4vvj4PgNZJubaNqL4tjP6AyPPBY0m1ButtupT5wayNuHCzpX20U53syyrxiqH7+ksfi3OIEIBvGL59kY9IRmfc9PsYkAAAmmlfr/Z929yMl1VJe11HJT6pE/S278/9kK3TBisHIDpTrJ21wqO+wOD5geW3xlU/89+W6pGFOhallaLh8byMafalkl6W9ribdYMrsP1QfuOHx/z7Tmf7kdcXI+dcrsBfJdF36uwj7swcdr3w4Ou8JT4dGY29pnOOg8x9mKmsyvLcm1Uze9+gTWBIAAC1VrQ/8zAN7jdI7N/ghmR1ciQa+kb6qleuVev/bXPqApCid13Wd41Fun0enTjwNngJMQSt0wYpKpENN/pUUD66+MyOasd9gdN7Sp3QKbfL0qjJcfiCsRfvLdVZKqxjL9L+Ves/+1eFz73tK/xG0NgGoDp9732Ct/00e6BVtOu3y0Ux2SGaHDkYDqV91jQQAmEpJwHD56q7I9pLpfyU1UtNnmsr1bOcelVr5t6mOX9T/tdgbL5Tp2vSM/FVx09uqtf6jqzrrmeb6kwBMWeXGYDTwQTO9xqU7U1SxB+W2sBL1v/dunVbbUPKtNnl69aAueqRS73+zuxeVrpeD73FpXqXW/1Hp+yNP+xe1OBX9Q3W4/0+Vev9L4sBeKek3bTb4v7ZD/sK0X8dIAIAp6n6Vhyu1/o/6ug729y0evS412RsHa/1vWr36nMF2iN9Q/fwlldrgS032YZmGWliVuktfHq1nn1+t9T/79CQjAZjqBmv9V3RGXXu69GW1djrgI2b+mY6oa8dKvXz+Rvx9W7Xdan1goLPTdl8/bbCVN1pWye1j3dGMnR//TtDTWaHO1UrRE6Kh4fJVlaj/tYFpf0kXKkU3rJ7GGrk+UqnlX7asNnBnu7RTEgBgiqoOl6+uRP0HyPx1cvvzBA/873PTOytRZbfBqHxh+0XvitHBqPx/jdrodjJ9XtLaCdz4sFw/ySizazXqP3mlzt64JMRJACAt0xlrq1H/yR507GjSDyWNTuhASTrVg3inwdrAfy/TGRt73rRd231oTXl5pd7/Nnlmj/XfFJnIwfVKk77W0dl4fqVe/sKGn648Xrmx/vikyvJa/x8qUf8bFdjWcv2XSWlaT79u8h8psJ3Xrbi3gacrKcWXgIEpbv2LSpfns327WWDHmuvt67+gmLRYst/K/IyuWlC+X+W2fyl1hS5YoZo+MUtHf6kjjI6V7B2S9mjS5m4z6Xv1yH6ySuXq2HMuPahgnE8sYhvvcqKrk3pq4nEqXmhfk9j+TPA0l/XzwN/Z01X6bMb9be7+Nsme26TN3SzZdz3Knv4s09Q25AGZNhtnhNe2ooFU6ufdIqlYyB6xi9noOyQ7rkn9qyT93cy/m6lNO3uZzli7CW8r3SvTFuOKsuuRpsRxuPyApFMkfS7ftXA/xbZQsj6TtmtFfifpdAX2jcHh/gfa9fplaajEHJVmxKGvbs4O+lcGo4EPjvV3hbB4haRXJV8jX1qJBnYaW893ynMzmY5PNCM+sQVnbTH64T+M5Tf5XPFscx3VhOqsrUT9M6bqQHwHzQuHwumJDWpcdlA1Kv96rL/bRsfn1oSrX+ey10p6raRdxzVAkq6Q9KuGxReuqC2+Z7Ifx97OvhcqY2/wWAfJ9GJJmU0satRlfzL3X8byS568OgqQrEVBPrzpwEA+z6WDJO02jsJGJLvKpEsaPnpJmpdCbEk/n53xejc/OJAOcmnbcRQXSbrS5ZcECn45GJX/OdXimc/27WYWvFryV0naXxpvovgMyZHrcjcrVyP9ev0Tk7ZGAtAGCUDqTjgSgEmdADzl/Jxe2rwxqj1MvrPku5hsW8m6Y2mG5N0md5mtkNsqSStl8a2S3aJGfEtlJHN9Wj+CMhF6VJqVyTX2cc/sLMW7mmx7yWZKvj5+kslWSL5K0kqXbpPpZmvES4KRzC3LVV4joAUKXaUtLfa9JdvF3XeW2bYynyn32ZLNWDf4tFUmrYyllYHiW2MLbraGbuwYyd00huk9U9pm4RHbj/roC0zBzh74boHb8x7rW009cq2VtFKuVW6qSrrl0T4iHBm56UFd9AhR/Le5ub7tRmPbQ9IeFmhPl20j960kbb6RY966pIckW2qKb3ALbgw8/uPyaOC2yRYrpgABeEbL15YfWtch6tdEY2yGVF6pmn4n6XdEA+1k/ZSLByRdTDSaZ/16/HcQiWSsfwn3Tkk/f+J/OaEz37VqczUa3YGryzOaJcWByRtqZFY1LB7p7Mwue3jtOcumSqxIAAAAADCJfX+kOqx/f//g6V7XnWLPqlkFCAAAACABAAAAAEACAAAAAIAEAAAAAAAJAAAAAAASAAAAAAAkAAAAAABIAAAAAACQAAAAAAAgAQAAAADwTDoIQfrNzfVtN+r29WaU7bJvV6PypUQZAACABAAp0Wj4bAX2hmaUHSj+BREGAACYOpgCBAAAAJAAAAAAACABAAAAAEACAAAAAIAEAAAAAAAJAAAAAIBWYRnQDXDz0032h8TL9WCw3WNjsYZlWtOEotfQ8gAAAEgAWqJaG/gxUXh6lXr/2yW9nUgAAAC0H6YAAQAAACQAAAAAAEgAAAAAAJAAAAAAACABAAAAAEACAAAAAIAEAAAAAAAJAAAAAIDk8CEwICVu134jeV/ypsRO7s6OGxQRVwAAQAIApNSiuFpXObHi6kQUAAA8FVOAAAAAABIAAAAAACQAAAAAAEgAAAAAAJAAAAAAACABAAAAAEACAAAAAIAEAAAAAAAJAAAAAAASAAAAAAAkAAAAAABIAAAAAAASAAAAAAAkAAAAAABIAAAAAACQAAAAAAAgAQAAAABAAgAAAACABAAAAAAACQAAAAAAEgAAAAAAJAAAAAAASAAAAAAAEgAAAAAAJAAAAAAASAAAAAAAkAAAAAAASK0OQpB+mZHp/xzpGn55U8oOsncoIsYAAAAkAEiNZTpjrYb1JyIBAACA8WIKEAAAAEACAAAAAIAEAAAAAAAJAAAAAAASAAAAAAAkAAAAAABIAAAAAACQAAAAAAAgAQAAAABAAgAAAADgmXSkoRKh1KhJVzWjbJfu5DADAAAAAAAAAAAAAAAAAAAAAAAAAAAAAAAAAAAAAAAAAAAAAAAAAAAAAAAAAAAAAAAAAAAAAAAAAAAAAAAAAAAAAAAAAAAAAAAAAAAAAAAAAAAAAAAAAAAAAAAAAAAAAAAAAAAAAAAAAAAAAAAAAAAAAAAAAAAAAAAAAAAAAAAAAAAAAAAAAAAAAAAAAAAAAAAAAAAAAAAAAAAAAAAAAAAAAAAAAAAAAAAAAAAAAAAAAAAAAAAAAAAAAAAAAAAAAAAAAAAAAAAAAAAAAAAAAAAAAAAAAAAAAAAAAAAAAAAAAAAAAAAAAAAAAAAAACbC/wco7iNPr0v6rwAAACV0RVh0ZGF0ZTpjcmVhdGUAMjAyNC0wNy0xNVQyMjo0MDo0MCswMDowMFJdZHIAAAAldEVYdGRhdGU6bW9kaWZ5ADIwMjQtMDctMTVUMjI6NDA6NDArMDA6MDAjANzOAAAAAElFTkSuQmCC;" parent="WauHK1ZiTlTc2SndrFiC-60" vertex="1">
          <mxGeometry x="29.460000000000036" y="70" width="148.17" height="60" as="geometry" />
        </mxCell>
        <mxCell id="WauHK1ZiTlTc2SndrFiC-24" value="" style="shape=image;verticalLabelPosition=bottom;labelBackgroundColor=default;verticalAlign=top;aspect=fixed;imageAspect=0;image=data:image/svg+xml,PHN2ZyBzdHJva2UtbWl0ZXJsaW1pdD0iMTAwMDAwIiBzdHJva2UtbGluZWpvaW49InJvdW5kIiBzdHJva2UtbGluZWNhcD0iYnV0dCIgd2lkdGg9IjEyMDAiIHZpZXdCb3g9IjAgMCA5MDAgMjE2IiBoZWlnaHQ9IjI4OCIgeG1sbnM6eGxpbms9Imh0dHA6Ly93d3cudzMub3JnLzE5OTkveGxpbmsiIHhtbG5zPSJodHRwOi8vd3d3LnczLm9yZy8yMDAwL3N2ZyI+PHN0eWxlPi5Ce2NsaXAtcGF0aDp1cmwoI0wpfS5De29wYWNpdHk6LjU2fS5Ee29wYWNpdHk6LjZ9LkV7Y2xpcC1wYXRoOnVybCgjQSl9LkZ7b3BhY2l0eTouOX0uR3tzdHJva2UtbWl0ZXJsaW1pdDoxMDB9Lkh7c3Ryb2tlLWRhc2hhcnJheTowLjIwNDA4NTE3LCAwLjQwODE3MDM1fTwvc3R5bGU+PGRlZnM+PGNsaXBQYXRoIGlkPSJBIj48cGF0aCBkPSJNNTQgNzMuMjZjOC45MyAwIDE3LjUtMy41NSAyMy44LTkuODZzOS44Ni0xNC44NyA5Ljg2LTIzLjgtMy41NS0xNy41LTkuODYtMjMuOFM2Mi45MyA1Ljk0IDU0IDUuOTQgMzYuNSA5LjUgMzAuMiAxNS44cy05Ljg2IDE0Ljg3LTkuODYgMjMuOCAzLjU1IDE3LjUgOS44NiAyMy44IDE0Ljg3IDkuODYgMjMuOCA5Ljg2eiIvPjwvY2xpcFBhdGg+PHBhdGggZD0iTTMzNSAxNDkuM3EtLjMgNC4xMi0xLjAzIDYuMzYtLjYzIDIuMTUtMS41NCAzLjEtLjkuODQtMi42NSAxLjYtMS42NC42Ni0zLjkyIDEuMTItMi4yLjU2LTQuODQuODQtMi41NS4yOC01LjE3LjI4LTcuMDIgMC0xMi4wMy0xLjc4LTUtMS43OC04LjEtNS40My0zLjEtMy43NC00LjI2LTkuMzYtMS4xNy01LjYyLS42LTEzLjNsMy4xOC00Mi43N2gtMTBxLTEuNzggMC0yLjU1LTIuMTUtLjc3LTIuMjUtLjQtNy40LjItMi43LjUzLTQuNi40Mi0xLjg3Ljk2LTIuOS41NS0xLjEyIDEuMjQtMS42Ljc4LS40NyAxLjcyLS40N2g5LjkybDEuNC0xOC42MnEuMDctLjk0LjYtMS42OC42Mi0uNzUgMS45Ni0xLjIyIDEuNDUtLjU2IDMuNy0uNzUgMi4zNi0uMjggNS43My0uMjggMy40NiAwIDUuNy4yOCAyLjMzLjIgMy42Ljc1IDEuMjguNDcgMS43OCAxLjIyLjUuNzUuNDQgMS42OGwtMS40IDE4LjYyaDE4LjE2cS45NCAwIDEuNTYuNDcuNy40NyAxLjEgMS42LjQgMS4wMy40NCAyLjkuMTQgMS44Ny0uMDYgNC42LS4zOCA1LjE1LTEuNSA3LjQtMS4xIDIuMTUtMi44NyAyLjE1aC0xOC4yNWwtMi45MiAzOS4ycS0uNSA2LjgzIDEuNCAxMC4zIDEuOSAzLjM3IDcuNDIgMy4zNyAxLjg3IDAgMy40LS4yOCAxLjUzLS4zNyAyLjY4LS43NSAxLjI1LS40NyAyLjAyLS43NS44Ny0uMzcgMS41My0uMzcuNTYgMCAxIC4zNy41NC4yOC43NCAxLjMuMi45NC4yNyAyLjYyLjE2IDEuNjgtLjA0IDQuM3oiIGlkPSJCIi8+PHBhdGggZD0iTTQ3OC4xNSAxNTcuNTNxLS4wNy45NC0uNyAxLjY4LS42LjY2LTIuMDUgMS4xMi0xLjM1LjQ3LTMuNi42Ni0yLjI3LjI4LTUuNzMuMjgtMy40NiAwLTUuNy0uMjgtMi4yMy0uMi0zLjYtLjY2LTEuMjgtLjQ3LTEuOC0xLjEyLS41LS43NS0uNDQtMS42OGw5LjE2LTEyMy4wN3EuMDctLjk0LjctMS42OC42Mi0uNzUgMS45Ni0xLjIyIDEuNDUtLjU2IDMuNy0uODQgMi4yNy0uMjggNS43My0uMjggMy40NiAwIDUuNy4yOCAyLjIzLjI4IDMuNS44NCAxLjM3LjQ3IDEuODcgMS4yMi41Ljc1LjQ0IDEuNjhsLTkuMTYgMTIzLjA3eiIgaWQ9IkMiLz48cGF0aCBkPSJNNTQ1LjUgMTg0LjZhNzAuOCA3MC44IDAgMCAwIDcwLjgtNzAuOCA3MC44IDcwLjggMCAwIDAtNzAuOC03MC44IDcwLjggNzAuOCAwIDAgMC03MC44IDcwLjggNzAuOCA3MC44IDAgMCAwIDcwLjggNzAuOHoiIGlkPSJEIi8+PHBhdGggZD0iTTU0IDM5LjZsNy4xMy0yLjI3LjAxLjAyLjAzLjEuMDEuMDUuMDMuMS4wMS4wNS4wMy4xLjA0LjE2LjAzLjE0LjAzLjE2LjAyLjEyLjAxLjA1LjAxLjF2LjA1bC4wMi4xMnYuMDVsLjAxLjEuMDEuMDUuMDEuMS4wMS4wN3YuMDdsLjAxLjF2LjA1LjEuMDcuMDcuMDcuMWgtNy40eiIgaWQ9IkUiLz48cGF0aCBkPSJNNTQgMzkuNmw4LjAyLTIwLjk2LjQuMTUuNC4xNi4wNi4wMy4zMi4xNC4wNi4wMy4zOC4xOC40NC4yMi4zLjE2LjEyLjA3LjI1LjEzLjEyLjA3LjMuMTcuMDYuMDQuMzYuMjIuMzYuMjIuMDYuMDQuMy4yLjA2LjA0LjM1LjI0LjM1LjI0LjA2LjA0LjI4LjIuMS4wOC4yMi4xNy4xLjEuMS4xLTEzLjg1IDE3LjM3eiIgaWQ9IkYiLz48cGF0aCBkPSJNNTQgMzkuNkwzNC44MyAxNi42M2wuNDQtLjM2LjU1LS40NC4zNC0uMjUuMS0uMDguMzQtLjI1LjIzLS4xNi4yMy0uMTYuMjMtLjE2LjIzLS4xNi4zNS0uMjMuMTItLjA4LjM2LS4yMi4xMi0uMDcuNS0uMy41LS4yOC42Mi0uMzQuMzgtLjIuMTMtLjA2LjUtLjI1LjUtLjI0LjY1LS4yOC40LS4xNi4xMy0uMDUuNTItLjIuNTMtLjIuNjctLjIzLjQtLjEzLjEzLS4wNC41NC0uMTYuNTQtLjE1LjY4LS4xOC40LS4xLjE0LS4wMyA2LjYgMjguODh6IiBpZD0iRyIvPjxwYXRoIGQ9Ik01NCAzOS42bC0yNS43NiA0LjY3LS4wMy0uMTYtLjA1LS4zMi0uMDUtLjMzLS4wMi0uMTYtLjA0LS4zMy0uMDItLjE2LS4wNC0uMzMtLjAyLS4xNi0uMDUtLjUtLjA0LS41LS4wMy0uNS0uMDEtLjE2LS4wMS0uMzN2LS4xNmwtLjAxLS4zM3YtLjE2LS4zMy0uMzMtLjE2bC4wMS0uMzMuMDEtLjE2LjAyLS4zMy4wMi0uMzN2LS4xNmwuMDMtLjMzLjAyLS4xNi4wMy0uMzMuMDQtLjMzLjAyLS4xNi4wNC0uMzMuMDItLjE2LjA1LS4zMy4wMy0uMTYuMS0uNS4xLS40OC4xLS40OC4wNC0uMTYuMDgtLjMyLjA0LS4xNi4wOC0uMzIuMDQtLjE2LjEtLjMyLjEtLjMyLjA1LS4xNi4xLS4zLjA1LS4xNi4xLS4zLjEtLjMuMDYtLjE1LjEtLjMuMDYtLjE1LjEyLS4zLjA2LS4xNS4yLS40Ni4yLS40NS4yLS40NS4wNy0uMTVMNTMuNzYgMzkuNXoiIGlkPSJIIi8+PHBhdGggZD0iTTU0IDM5LjZsLTEyLjM2IDguNDItLjA1LS4wOC0uMTItLjE4LS4wNS0uMDgtLjEtLjE2LS4wNi0uMS0uMS0uMTYtLjA2LS4xLS4wOC0uMTQtLjA3LS4xMi0uMDgtLjE0LS4wNy0uMTItLjA3LS4xMi0uMDgtLjE1LS4wNi0uMTMtLjA3LS4xNSAxMy4zNC02LjQzeiIgaWQ9IkkiLz48cGF0aCBkPSJNNTQgMzkuNmwzLjEzIDE4LjQ0LS4zNi4wNmgtLjA3bC0uMy4wNC0uMDcuMDEtLjMuMDNoLS4wN2wtLjMuMDMtLjA3LjAxLS4zLjAyaC0uMDdsLS4zLjAyaC0uMTVsLS4yMi4wMWgtLjA3LS4zNy0uMjItLjA3LS4zLS4wN2wtLjMtLjAxaC0uMDdsLS4zLS4wMmgtLjA3bC0uMy0uMDItLjE1LS4wMS0uMTUtLjAxaC0uMjJsLS4yMi0uMDMtLjE1LS4wMi0uMjItLjAzaC0uMTVsLS4yMi0uMDMtLjE0LS4wMi0uMjItLjA0LS4xNC0uMDMtLjIyLS4wNC0uMTQtLjAzLS4zLS4wNiA0LjEyLTE4LjA1eiIgaWQ9IkoiLz48cGF0aCBkPSJNNTQgMzkuNmwyMy41NiAxOC40NS0uMzUuNDQtLjQuNS0uMzcuNDMtLjQyLjQ3LS40LjQtLjQ0LjQ1LS40LjQtLjQ2LjQ0LS40Mi4zOC0uNDguNDItLjQzLjM2LS4zMy4yN0w1NC4yIDM5LjgzeiIgaWQ9IksiLz48Y2xpcFBhdGggaWQ9IkwiPjxwYXRoIGQ9Ik01NCA3My4yNmM4LjkzIDAgMTcuNS0zLjU1IDIzLjgtOS44NnM5Ljg2LTE0Ljg3IDkuODYtMjMuOC0zLjU1LTE3LjUtOS44Ni0yMy44UzYyLjkzIDUuOTQgNTQgNS45NCAzNi41IDkuNSAzMC4yIDE1LjhzLTkuODYgMTQuODctOS44NiAyMy44IDMuNTUgMTcuNSA5Ljg2IDIzLjggMTQuODcgOS44NiAyMy44IDkuODZ6Ii8+PC9jbGlwUGF0aD48L2RlZnM+PGcgZmlsbD0iIzExNTU3YyI+PHBhdGggZD0iTTE2OC44NCAxNTcuNTNxLS4wNy45NC0uNyAxLjY4LS42LjY2LTEuOTYgMS4xMi0xLjM1LjQ3LTMuNi42Ni0yLjI3LjI4LTUuNzMuMjgtMy41NiAwLTUuNzgtLjI4LTIuMjMtLjItMy42LS42Ni0xLjI4LS40Ny0xLjgtMS4xMi0uNC0uNzUtLjM0LTEuNjhsMy42OC00OS41cS4zLTQuMi0uMjctNy42Ny0uNS0zLjQ2LTItNS45LTEuNC0yLjUzLTMuODMtMy44NC0yLjMzLTEuNC01LjgtMS40LTQuMiAwLTguNzYgMy4yOC00LjU1IDMuMjgtMTAuMDcgOS41NWwtNC4xMyA1NS41cS0uMDcuOTQtLjcgMS42OC0uNi42Ni0yLjA1IDEuMTItMS4zNS40Ny0zLjYuNjYtMi4yNy4yOC01LjY0LjI4LTMuNDYgMC01LjctLjI4LTIuMjMtLjItMy42LS42Ni0xLjI4LS40Ny0xLjgtMS4xMi0uNS0uNzUtLjQ0LTEuNjhsMy42OC00OS41cS4zLTQuMi0uMjctNy42Ny0uNS0zLjQ2LTEuOS01LjktMS40LTIuNTMtMy44My0zLjg0LTIuNDItMS40LTUuOC0xLjQtNC4zIDAtOC44NSAzLjI4LTQuNTUgMy4yOC05Ljk4IDkuNTVsLTQuMTMgNTUuNXEtLjA3Ljk0LS43IDEuNjgtLjYuNjYtMi4wNSAxLjEyLTEuMzUuNDctMy42LjY2LTIuMjcuMjgtNS43My4yOC0zLjQ2IDAtNS43LS4yOC0yLjIzLS4yLTMuNi0uNjYtMS4yOC0uNDctMS44LTEuMTItLjUtLjc1LS40NC0xLjY4bDYuMi04My40OHEuMDctLjk0LjYtMS42LjUyLS43NSAxLjc4LTEuMjIgMS4yNS0uNDcgMy4xNC0uNjYgMi0uMjggNC45LS4yOCAzIDAgNC45NC4yOCAxLjk1LjIgMi45NS42NiAxLjEuNDcgMS41IDEuMjIuNDIuNjYuMzUgMS42bC0uNzIgOS42NHE3LjQ4LTcuNSAxNC42LTExLjIzIDcuMi0zLjc0IDE0LjctMy43NCA1LjE1IDAgOS4xOCAxLjEyIDQuMDQgMS4wMyA3LjA3IDMuMSAzLjEzIDEuOTcgNS4yNiA0Ljc3IDIuMTMgMi44IDMuNDYgNi4yNyA0LjA0LTQuMDIgNy44Mi02LjkzIDMuODctMi45IDcuNDYtNC42OCAzLjctMS44NyA3LjIyLTIuNyAzLjYzLS45NCA3LjI4LS45NCA4LjMzIDAgMTMuODMgMi44IDUuNSAyLjggOC42IDcuNjcgMy4yIDQuNzcgNC4yMiAxMS4yMyAxLjAyIDYuNDYuNDggMTMuNjZsLTMuOTggNTMuNDR6bTk0LjQuMjdxLS4xIDEuMy0xLjEgMi4wNi0xIC43NS0zLjA3IDEuMDMtMiAuMzctNS45Mi4zNy00LjIgMC02LjE1LS4zNy0xLjg1LS4yOC0yLjY0LTEuMDMtLjctLjc1LS42LTIuMDZsLjUtNi42NHEtNS41NiA1LjUyLTEyLjQzIDguNi02Ljc4IDMuMS0xNC44MyAzLjEtNi42NCAwLTEyLjEzLTEuNzgtNS40LTEuNjgtOS4yNi01LjA1LTMuNzctMy40Ni01LjY0LTguNTItMS44Ny01LjA1LTEuMzctMTEuOC41NC03LjMgMy43NS0xMi42MyAzLjMtNS40MyA5LjE4LTguOSA1Ljk3LTMuNTYgMTQuNTItNS4yNCA4LjU1LTEuNjggMTkuNjgtMS42OGg4LjE0bC4zOC01LjA1cS4zLTMuOTMtLjMzLTYuODMtLjUzLTMtMi4yNS00Ljk2LTEuNjMtMS45Ny00LjY1LTIuOS0yLjkzLS45NC03LjQyLS45NC01LjkgMC0xMC42NyAxLjMtNC42OCAxLjMtOC4zNiAyLjktMy42NyAxLjYtNi4yIDIuOS0yLjQ0IDEuMy0zLjkzIDEuMy0xLjAzIDAtMS44Mi0uNjYtLjctLjY2LTEuMTctMS44Ny0uMzgtMS4yMi0uNTMtMy0uMTUtMS43OC4wMS0zLjkzLjIyLTIuOS44LTQuNi42LTEuNjggMi0zIDEuNC0xLjQgNC44LTMgMy40LTEuNjggNy45LTMuMSA0LjUtMS40IDkuNy0yLjI1IDUuMy0uOTQgMTAuODMtLjk0IDkuODMgMCAxNi42IDEuOTcgNi44OCAxLjg3IDExLjA3IDUuOSA0LjIgMy45MyA1LjggMTAuMiAxLjYgNi4yNy45NSAxNC44OGwtNC4xOCA1Ni4xNXptLTIwLjQ2LTM1Ljc1aC04Ljk4cS01LjcgMC05LjguODQtNC4xLjg0LTYuNzQgMi41My0yLjY1IDEuNjgtNC4wNSA0LjEyLTEuMyAyLjM0LTEuNTMgNS40My0uNCA1LjI0IDIuNjYgOC4yNCAzLjE1IDMgOS4wNCAzIDQuOTYgMCA5LjI3LTIuNTMgNC40LTIuNTMgOS4wNy03LjRsMS4wNi0xNC4yM3oiLz48dXNlIHhsaW5rOmhyZWY9IiNCIi8+PHBhdGggZD0iTTQzOC44NSAxMTQuNTdxLS44MyAxMS4xNC0zLjkzIDIwLjEyLTMgOC45LTguMDUgMTUuMTYtNS4wNSA2LjI3LTEyLjEzIDkuNjQtNy4wOCAzLjM3LTE1Ljg4IDMuMzctMy42NSAwLTYuNjgtLjc1LTIuOTUtLjY2LTUuNzQtMi4wNi0yLjctMS41LTUuMzQtMy42NS0yLjY1LTIuMTUtNS40My01LjA1bC0yLjkyIDM5LjNxLS4wNy45NC0uNyAxLjY4LS42Mi43NS0yLjA2IDEuMjItMS4zNS41Ni0zLjYyLjg0LTIuMjcuMjgtNS43My4yOC0zLjQ2IDAtNS43LS4yOC0yLjIzLS4yOC0zLjYtLjg0LTEuMjgtLjQ3LTEuNzgtMS4yMi0uNS0uNzUtLjQ0LTEuNjhsOC42OC0xMTYuNnEuMDctLjk0LjYtMS42LjUyLS43NSAxLjY4LTEuMjIgMS4yNS0uNDcgMy4xNC0uNjYgMi0uMjggNC45LS4yOCAyLjggMCA0LjY2LjI4IDEuOTUuMiAzLjA0LjY2IDEuMTguNDcgMS42IDEuMjIuNDIuNjYuMzUgMS42bC0uNzMgOS44M3EzLjkzLTMuNzQgNy42LTYuNTUgMy43Ny0yLjkgNy41Ni00Ljc3IDMuOC0xLjk3IDcuNy0yLjkgNC0uOTQgOC40LS45NCA5LjE3IDAgMTUuMzYgMy42NSA2LjIgMy41NiA5Ljc1IDkuODMgMy42NSA2LjI3IDQuOSAxNC42IDEuMjUgOC4zMy41NSAxNy43OHptLTI0LjY1IDEuNjhxLjQtNS4zMy0uMDgtMTAuMi0uMzgtNC45Ni0yLjA2LTguOC0xLjYtMy44NC00LjYtNi4wOC0yLjktMi4zNC03LjYtMi4zNC0yLjM0IDAtNC43NC43NS0yLjMuNjYtNC44NSAyLjI1LTIuNDYgMS42LTUuMTcgNC4xMi0yLjcgMi41My01LjggNi4yN2wtMi4wNSAyNy41cTQuNSA2LjI3IDguNzMgOS43MyA0LjI0IDMuMzcgOS4xIDMuMzcgNC42IDAgNy45NC0yLjM0IDMuNDUtMi4zNCA1LjgtNi4wOCAyLjM0LTMuODQgMy42NC04LjYgMS4zOC00Ljc3IDEuNzQtOS41NXoiLz48dXNlIHhsaW5rOmhyZWY9IiNDIi8+PHBhdGggZD0iTTU4OS4zIDExNC45NXEtLjggMTAuNjctNC4yNiAxOS40Ny0zLjQ2IDguOC05LjY0IDE1LjE2LTYuMTggNi4zNi0xNS4wNSA5LjgzLTguODcgMy40Ni0yMC4zOCAzLjQ2LTExLjE0IDAtMTkuMTQtMy4xLTgtMy4xLTEzLTguOTgtNS01LjktNi45Ny0xNC41LTEuOTgtOC42LTEuMTYtMTkuNjUuOC0xMC42NyA0LjI2LTE5LjQ3IDMuNTYtOC45IDkuNzQtMTUuMTYgNi4xOC02LjM2IDE0Ljk2LTkuODMgOC44Ny0zLjQ2IDIwLjM4LTMuNDYgMTEuMjMgMCAxOS4yNCAzLjEgOCAzIDEyLjkgOC45IDUgNS45IDYuOTcgMTQuNSAxLjk4IDguNiAxLjE1IDE5Ljc1em0tMjQuMy45NHEuNDYtNi4xOC0uMi0xMS4zMi0uNTUtNS4yNC0yLjYtOS4wOC0yLjA1LTMuODQtNS44Mi02LTMuNjgtMi4xNS05LjU3LTIuMTUtNS4yNCAwLTkuMzIgMS45Ny00LjA3IDEuODctNi44OCA1LjYyLTIuOCAzLjY1LTQuNSA4LjktMS42IDUuMTUtMi4xIDExLjgtLjQ2IDYuMTguMTggMTEuNDIuNjUgNS4xNSAyLjYgOC45OCAyLjA1IDMuODQgNS44MiA2IDMuNzggMi4wNiA5LjU4IDIuMDYgNS4zMyAwIDkuNC0xLjg3IDQuMDgtMS45NyA2Ljg4LTUuNjIgMi44LTMuNjUgNC40LTguOCAxLjYtNS4yNCAyLjEtMTEuOXoiLz48dXNlIHg9IjMxOS43IiB4bGluazpocmVmPSIjQiIvPjx1c2UgeD0iMjE2Ljc1IiB4bGluazpocmVmPSIjQyIvPjxwYXRoIGQ9Ik03NDIuMDYgMTU3LjUzcS0uMDcuOTQtLjcgMS42OC0uNi42Ni0yLjA1IDEuMTItMS4zNS40Ny0zLjYuNjYtMi4yNy4yOC01LjczLjI4LTMuNDYgMC01LjctLjI4LTIuMjMtLjItMy42LS42Ni0xLjI4LS40Ny0xLjgtMS4xMi0uNS0uNzUtLjQ0LTEuNjhsNi4yLTgzLjNxLjA3LS45NC42OC0xLjYuNjItLjc1IDEuOTYtMS4yMiAxLjQ1LS41NiAzLjctLjg0IDIuMjctLjI4IDUuNzMtLjI4IDMuNDYgMCA1LjcuMjggMi4yMy4yOCAzLjUuODQgMS4zNy40NyAxLjg3IDEuMjIuNS42Ni40NCAxLjZsLTYuMiA4My4zem0xMC4xLTExMS43NHEtLjUzIDcuMS0zLjYzIDkuODMtMy4xIDIuNy0xMC45NiAyLjctNy45NSAwLTEwLjU3LTIuNjItMi41Mi0yLjYyLTItOS40NS41My03LjEgMy41NC05LjgzIDMuMS0yLjggMTEuMDYtMi44IDcuODYgMCAxMC40NyAyLjcgMi42IDIuNjIgMi4xIDkuNDV6bTEwMC43IDY4Ljg4cS0uODMgMTEuMTQtMy45MiAyMC4wMy0zLjEgOC45LTguMTUgMTUuMTYtNS4wNSA2LjI3LTEyLjA0IDkuNjQtNi45IDMuMzctMTUuNCAzLjM3LTQuMiAwLTcuOC0uODQtMy42LS43NS02LjgzLTIuNTMtMy4xNC0xLjc4LTYuMjItNC41LTIuOTgtMi43LTYuMDYtNi41NWwtLjY4IDkuMDhxLS4wOCAxLjAzLS43IDEuNzgtLjUyLjY2LTEuNzcgMS4xMi0xLjE2LjQ3LTMuMTQuNjYtMS45OC4yLTQuOC4yLTIuOSAwLTQuODUtLjItMS44Ni0uMi0zLjA0LS42Ni0xLjEtLjQ3LTEuNS0xLjEyLS40LS43NS0uMzQtMS43OGw5LjE2LTEyMy4wN3EuMDctLjk0LjctMS42OC42Mi0uNzUgMS45Ni0xLjIyIDEuNDUtLjU2IDMuNy0uODQgMi4yNy0uMjggNS43My0uMjggMy40NiAwIDUuNy4yOCAyLjIzLjI4IDMuNS44NCAxLjM3LjQ3IDEuODcgMS4yMi41Ljc1LjQ0IDEuNjhsLTMuNDMgNDYuMTRxMy40Mi0zLjE4IDYuNzctNS40MyAzLjM1LTIuMjUgNi42NC0zLjY1IDMuMy0xLjUgNi43LTIuMTUgMy40Mi0uNjYgNy4xNi0uNjYgOS4yNyAwIDE1LjQ0IDMuNzQgNi4yIDMuNjUgOS43NCA5LjkyIDMuNjUgNi4yNyA0LjkgMTQuNyAxLjI1IDguMzMuNTYgMTcuNnptLTI0LjU1IDEuNjhxLjQtNS4zMy0uMDgtMTAuMy0uMzgtNC45Ni0yLjA2LTguOC0xLjY4LTMuODQtNC43LTYuMDgtMi45LTIuMzQtNy43LTIuMzQtMi4zNCAwLTQuNjMuNjYtMi4zLjY2LTQuODUgMi4yNS0yLjQ2IDEuNi01LjE3IDQuMTItMi43IDIuNTMtNS44IDYuMjdsLTIuMDYgMjcuN3E0LjUgNi4zNiA4LjczIDkuNzMgNC4zNCAzLjI4IDkuMyAzLjI4IDQuNiAwIDcuOTQtMi4zNCAzLjM2LTIuMzQgNS43LTYuMDggMi40My0zLjc0IDMuNzItOC41MiAxLjMtNC43NyAxLjY1LTkuNTV6Ii8+PC9nPjxnIHRyYW5zZm9ybT0ibWF0cml4KC45NDgxIDAgMCAuOTQ4MSAyOC4zNjQ2IDUuOTM3MSkiPjxnIGZpbGw9IiNmZmYiPjxjaXJjbGUgc3Ryb2tlLXdpZHRoPSI0LjgiIHN0cm9rZT0iI2ZmZiIgY3g9IjU0Ni4wMiIgY3k9IjExNC4yOSIgcj0iNzQuNiIvPjx1c2Ugb3BhY2l0eT0iLjA1IiB4bGluazpocmVmPSIjRCIvPjwvZz48ZyB0cmFuc2Zvcm09Im1hdHJpeCgyLjEwMzMgMCAwIDIuMTAzMyA0MzEuOTI4MSAzMC41MTEzKSI+PGcgY2xhc3M9IkgiIHN0cm9rZS13aWR0aD0iLjIiIHN0cm9rZS1taXRlcmxpbWl0PSI0IiBzdHJva2UtbGluZWNhcD0icm91bmQiIGZpbGw9Im5vbmUiIHN0cm9rZT0iIzg1ODU4NSI+PHBhdGggY2xhc3M9IkIgRiIgZD0iTTU0IDM5LjZoMzMuNjZNNTQgMzkuNmwyMy44LTIzLjhNNTQgMzkuNlY1Ljk0bTAgMzMuNjZMMzAuMiAxNS44TTU0IDM5LjZIMjAuMzQiLz48cGF0aCBjbGFzcz0iQiBGIiBkPSJNNTQgMzkuNkwzMC4yIDYzLjRNNTQgMzkuNnYzMy42Nm0wLTMzLjY2bDIzLjggMjMuOCIvPjwvZz48ZyBjbGFzcz0iRyBIIiBzdHJva2Utd2lkdGg9Ii4yIiBzdHJva2UtbGluZWNhcD0ic3F1YXJlIiBzdHJva2U9IiM4MTgxODEiIGZpbGw9Im5vbmUiPjxwYXRoIGNsYXNzPSJCIEYiIGQ9Ik01Ny43NCAzOS42bC0uMS0uOS0uMzMtLjg1LS41Mi0uNzUtLjctLjYtLjgtLjQtLjktLjItLjkuMDItLjg4LjI0LS44LjQ0LS42Ny42Mi0uNS43Ni0uMy44Ni0uMDguOS4xNC45LjM2Ljg0LjU1LjczLjcuNTcuODMuNC45LjE3LjktLjA1Ljg3LS4yNy43OC0uNDcuNjQtLjY0LjQ3LS43OC4yNy0uODcuMDYtLjY1Ii8+PHBhdGggY2xhc3M9IkIgRiIgZD0iTTY1LjIyIDM5LjZsLS4xLTEuNTYtLjMzLTEuNTMtLjU0LTEuNDctLjczLTEuMzgtLjkyLTEuMjctMS4xLTEuMTMtMS4yMy0uOTYtMS4zNi0uNzgtMS40NS0uNi0xLjUyLS4zOC0xLjU2LS4xNi0xLjU2LjA1LTEuNTQuMjctMS41LjQ4LTEuNC43LTEuMy44OC0xLjE2IDEuMDUtMSAxLjItLjgzIDEuMzMtLjY0IDEuNDMtLjQzIDEuNS0uMjIgMS41NXYxLjU3bC4yMiAxLjU1LjQzIDEuNS42NCAxLjQzLjgzIDEuMzMgMSAxLjIgMS4xNiAxLjA1IDEuMy44OCAxLjQuNyAxLjUuNDggMS41NC4yNyAxLjU2LjA1IDEuNTYtLjE2IDEuNTItLjM4IDEuNDUtLjYgMS4zNi0uNzggMS4yMy0uOTYgMS4xLTEuMTMuOTItMS4yNy43My0xLjM4LjU0LTEuNDcuMzMtMS41My4xLTEuNTYiLz48cGF0aCBjbGFzcz0iQiBGIiBkPSJNNzIuNyAzOS42bC0uMS0xLjk1LS4zLTEuOTMtLjUtMS45LS43LTEuODMtLjktMS43NC0xLjA3LTEuNjQtMS4yMy0xLjUyLTEuMzgtMS4zOEw2NSAyNC40N2wtMS42NC0xLjA3LTEuNzQtLjktMS44My0uNy0xLjktLjUtMS45My0uMy0xLjk1LS4xLTEuOTUuMS0xLjkzLjMtMS45LjUtMS44My43LTEuNzQuOUw0MyAyNC40NyA0MS41IDI1LjcgNDAuMSAyNy4xbC0xLjIzIDEuNTItMS4wNyAxLjY0LS45IDEuNzQtLjcgMS44My0uNSAxLjktLjMgMS45My0uMSAxLjk1LjEgMS45NS4zIDEuOTMuNSAxLjkuNyAxLjgzLjkgMS43NCAxLjA3IDEuNjQgMS4yMyAxLjUyIDEuMzggMS4zOEw0MyA1NC43M2wxLjY0IDEuMDcgMS43NC45IDEuODMuNyAxLjkuNSAxLjkzLjMgMS45NS4xIDEuOTUtLjEgMS45My0uMyAxLjktLjUgMS44My0uNyAxLjc0LS45TDY1IDU0LjczbDEuNTItMS4yMyAxLjM4LTEuMzggMS4yMy0xLjUyIDEuMDctMS42NC45LTEuNzQuNy0xLjgzLjUtMS45LjMtMS45My4xLTEuOTUiLz48cGF0aCBjbGFzcz0iQiBGIiBkPSJNODAuMTggMzkuNmwtLjE0LTIuNzQtLjQzLTIuNy0uNy0yLjY1LS45OC0yLjU2LTEuMjQtMi40NC0xLjUtMi4zLTEuNzItMi4xMy0xLjk0LTEuOTQtMi4xMy0xLjcyLTIuMy0xLjUtMi40NC0xLjI0LTIuNTYtLjk4LTIuNjUtLjctMi43LS40My0yLjc0LS4xNC0yLjc0LjE0LTIuNy40My0yLjY1LjctMi41Ni45OC0yLjQ0IDEuMjQtMi4zIDEuNS0yLjEzIDEuNzItMS45NCAxLjk0LTEuNzIgMi4xMy0xLjUgMi4zLTEuMjQgMi40NC0uOTggMi41Ni0uNyAyLjY1LS40MyAyLjctLjE0IDIuNzQuMTQgMi43NC40MyAyLjcuNyAyLjY1Ljk4IDIuNTYgMS4yNCAyLjQ0IDEuNSAyLjMgMS43MiAyLjEzIDEuOTQgMS45NCAyLjEzIDEuNzIgMi4zIDEuNSAyLjQ0IDEuMjQgMi41Ni45OCAyLjY1LjcgMi43LjQzIDIuNzQuMTQgMi43NC0uMTQgMi43LS40MyAyLjY1LS43IDIuNTYtLjk4IDIuNDQtMS4yNCAyLjMtMS41IDIuMTMtMS43MiAxLjk0LTEuOTRMNzUuMTggNTVsMS41LTIuMyAxLjI0LTIuNDQuOTgtMi41Ni43LTIuNjUuNDMtMi43LjE0LTIuNzQiLz48L2c+PGcgY2xhc3M9IkciIHN0cm9rZS13aWR0aD0iLjQ2IiBzdHJva2U9IiMwMDAiPjx1c2UgY2xhc3M9IkIgQyIgZmlsbD0iIzAwNGNmZiIgeGxpbms6aHJlZj0iI0UiLz48dXNlIGNsYXNzPSJCIEMiIGZpbGw9IiNjZWZmMjkiIHhsaW5rOmhyZWY9IiNGIi8+PHVzZSBjbGFzcz0iQiBDIiBmaWxsPSIjZmY2ODAwIiB4bGluazpocmVmPSIjRyIvPjx1c2UgY2xhc3M9IkIgQyIgZmlsbD0iI2ZmYzQwMCIgeGxpbms6aHJlZj0iI0giLz48dXNlIGNsYXNzPSJCIEQiIGZpbGw9IiMyOWZmY2UiIHhsaW5rOmhyZWY9IiNJIi8+PHVzZSBjbGFzcz0iQiBDIiBmaWxsPSIjN2RmZjdhIiB4bGluazpocmVmPSIjSiIvPjx1c2UgY2xhc3M9IkIgQyIgZmlsbD0iI2ZmNjgwMCIgeGxpbms6aHJlZj0iI0siLz48L2c+PC9nPjxnIGZpbGw9Im5vbmUiPjx1c2Ugc3Ryb2tlPSIjMTE1NTdjIiBzdHJva2Utd2lkdGg9IjIuMSIgc3Ryb2tlLWxpbmVqb2luPSJtaXRlciIgeGxpbms6aHJlZj0iI0QiLz48ZyBjbGFzcz0iRyIgc3Ryb2tlLXdpZHRoPSIuNDYiIHN0cm9rZT0iIzAwMCIgdHJhbnNmb3JtPSJtYXRyaXgoMi4xMDMzIDAgMCAyLjEwMzMgNDMxLjkyODEgMzAuNTExMykiPjx1c2UgY2xhc3M9IkQgRSIgeGxpbms6aHJlZj0iI0UiLz48dXNlIGNsYXNzPSJEIEUiIHhsaW5rOmhyZWY9IiNGIi8+PHVzZSBjbGFzcz0iRCBFIiB4bGluazpocmVmPSIjRyIvPjx1c2UgY2xhc3M9IkQgRSIgeGxpbms6aHJlZj0iI0giLz48dXNlIGNsYXNzPSJDIEUiIHhsaW5rOmhyZWY9IiNJIi8+PHVzZSBjbGFzcz0iRCBFIiB4bGluazpocmVmPSIjSiIvPjx1c2UgY2xhc3M9IkQgRSIgeGxpbms6aHJlZj0iI0siLz48L2c+PC9nPjwvZz48L3N2Zz4=;" parent="WauHK1ZiTlTc2SndrFiC-60" vertex="1">
          <mxGeometry x="229" y="79.49000000000001" width="170.91" height="41.02" as="geometry" />
        </mxCell>
        <mxCell id="WauHK1ZiTlTc2SndrFiC-61" value="" style="group" parent="1" vertex="1" connectable="0">
          <mxGeometry x="740" y="304" width="260" height="137" as="geometry" />
        </mxCell>
        <mxCell id="WauHK1ZiTlTc2SndrFiC-33" value="" style="rounded=1;whiteSpace=wrap;html=1;fillColor=#e1d5e7;fillStyle=solid;strokeWidth=2;strokeColor=#9673a6;dashed=1;" parent="WauHK1ZiTlTc2SndrFiC-61" vertex="1">
          <mxGeometry width="260" height="137" as="geometry" />
        </mxCell>
        <mxCell id="WauHK1ZiTlTc2SndrFiC-7" value="" style="shape=image;verticalLabelPosition=bottom;labelBackgroundColor=default;verticalAlign=top;aspect=fixed;imageAspect=0;image=data:image/png,iVBORw0KGgoAAAANSUhEUgAAAegAAAB5CAYAAADyHbJeAAAABGdBTUEAALGPC/xhBQAAACBjSFJNAAB6JgAAgIQAAPoAAACA6AAAdTAAAOpgAAA6mAAAF3CculE8AAAABmJLR0QA/wD/AP+gvaeTAAAAB3RJTUUH6AcLCykO/Ek1UwAAIZZJREFUeNrtnXl8lcW5+L9zkrAEZAkIiBZxQdQsLrgviKIoJME16HXX3lp7q7b91avW1kpd2mp7tb3+WuuudZeLCwm41AVFrtYarSRRVNwREUgCghCynLl/zFhBc96Zs7/nnOf78XzUvHPOed+ZOfPM88yzgCAIgiAUJiVhvjkl4yMIgiAUAEXAzsAE4EDgIGABcG5Yb7g4bDe0fErVgNK+Hf0H1b+zSuaTIAiCkARVwInAAcBewMBvXH8xzDcfCdPNLKudUNqnb7Q+Gu27rcwrQRAEIUmOAy4FJvUinENPaAT0stoJpf3Y2IDmUJlTgiAIQqETCgEtwlkQBEEQQiagRTgLgiAIQsgEtAhnQRAEQeidrHlxi3BOmgOB0Sn8vC5gHaCB1fb/VwCf278JgiAI+S6gRTinhIuB2gx8z1eC+gOgGWgCFgGvAJ0yDL1yE3BOgffBzcD3ZSoIQg4JaBHOOUcJsLV9HbTJ37/ExBA+DTwEfCxdJQiCkDoyegYtwjmvGAAcCfwO+BB4ATgb6CtdIwiCkEMCWoRzXqOAg4HbgPeBnwKl0i2CIAghF9AinAuK0cDvgXeA06U7BEEQQiqgRTgXLFsDdwEPA0OkOwRBEEIkoJdPqRrQj42PxymcV3Z1dy+TockbjgUagd2lKwRBEPxJmxf3stoJpX3YWI9mYjzCmaiavOWTb30mQ5MSGuNsr6y2WwxsCfRP0X1sDzwPVBPy6jEp4uME+j4ZSjBVe4JYAqzJcB8IghA2Ab18StWAPmycF6dwXkWEw8sampp839A6tWobiqIXKsVhaPqDelNHozcOm9fyhAwtYMqrJcMAYFtgPLALsB+wPzA8gc8aBDwBTMXUYM1nrravTDEa+NTR5v8B9fKTEIQCFtAJa84RDi+b07zIW5pP23VfFYnOA8q+znOld1QRNb2tpvLasoami2V4k+ZL4E37esT+LQLsAxwDnEZ82cwGYM6k98EkPhEEQRBikNIz6AQdwuIWzsunVA2IRCKzgbLeW+iLWmvLj5fhTQtR4GXgEmAsphh6SxzvHw48isRLC4IgZEZAZ0o4A/Qt6TkB4yUcE6XVj2V4004XJovYbpi0jl94vq8K+Ll0nyAIQpoFdCaFM0A0Etndo9keMrwZoweTe7kK+Ifney7BnGsLgiAI6RDQmRbORjvWXR7NpJBD5vkImATM9WhbAlwmXSYIgpAGAZ0N4WzQHl7AaoEMb1ZYD5yAyc3tYgawk3SZIAhCCgV09oQzDN2rZa4KMqUquqIqepUMb9boAI4HljvaFWEKbAiCIAipENDZFM4AaibRaE/kOOCfvVzeQFSfPry+5R8yvFllFfADj3Ynk+GqaoIgCHkpoLMtnL9i2OOLlg5dN3xvUKdquAN4QKEv00WML5vb8oAMbSh4FHdSku8Ae0pXCYIgbE5ciUoSFs5RNTmeDGHemvT8+d3AvfYlhJNrMKUogzgEeFW6ShAEIQEN+oNJY/v10xvnJqQ5z0u9cE6WtmmVlW21lVNlCqSdJwBX8ZMDpZuEOCgBhmISFQ3M4ecYmeT7BwPjgEpMXoh+IX3Ook3Gayipy/EvGjSArqsrWr1h8d0aPSkMmnPSwnl6RRVR/QyaAW215VPK6ltelKmQNnqAx4HvBrTZWbpJ6IXtMNaVva0gGgdsE2PdagXewxQFacIcrfyD8IRblmJy4+9vX/sBS4kvX34VMB04zH5GbwJ5GfAK8HegAWjO4DOOsOO1HyZ//07AGHrPGtiBcSL9FHjLvl61996RI/NzqH3WcruGjQS2sJvGNZhUyR8A7wAvAYuA7pQL6PaOt67HhM7EJ5znhVU48wz/KvigGtqmV0xM5fm48C2ecwjo7TDWnGiM3ffZmEpbsfgA+FvInvlA+8ONORWB/5Gp8S32AE61682YON43zL722eRv6+28uMcKq0wv/NthipTsj8m29831dqnn5xwFXAhM9mg7GpMn/xjgN1bw3QPcZDcxqWaMHa8TrSavPN/XD5MqeCybW9A2WmE2B5P//8OQzc9x9nmPAibY9cmXVkwtgpvxPNJzdmZ7TcWPNPwhLuGcYoewFAvnpzGlFDflfTr67ln2dOMacoc5QG2y45shqoA3HG1GAisCBPwkx8Tf2v64w0ITUBFw/XfARSn6Lp9qVtMJbzWrYrvAX4S7bGairAb+BPwRWJmh56q1v9NYNDo06FH2no9Lwb2sx2TvuyFFz3YQJl3vFNIXhaGBZ+3m4pF4tU/LTODygOs3Y9IUB1GEydnwH3YzkYp19Rm7eQuUk4Edu7q6coI2Tj7xac7hFc7P9CKcAbZX/TpvFeUlbSzxaBN0lniLh/ZUHaLn3cchnMFEHghwEvC21fKq0vg9Q6xA+QC4ivCfgx6OKUJzXIo+r5TeLVSJWDiewxwhHEV6QySVtRo8ZC0BZ5GmEskBgvlM+9332U1JqpSeyXaDdkWQFh6zc1fUlQ+MKn0v/lWHcsis3dtWTZ/QVl15jqyXaWE9sCEJAT0bE1cdxFkhet4zHNcX2B99ITMOeAq4H9g+g987wArqJuCIkPbN6Zh0uWUp/twnkuy332POiCdloU92BG7HmIYPzsD37YWp2neHnavpoBiT7rjBbqD8BXTxenUN5qDfh1WhFc7VVRUu4fz1fk1f31ZbPgYhHaxL4r0b7Q42iKOArULwnH0w5rAgCt1acyzGgSubAnIH4Engt8R3jphuvgvcaedRKlmCcaJLhJ0wTmc/zbAG2xu7AVem8fP7AtdZ4bxXhp7pKIwjbX8vAd02rbISha82+UVEq6PCKJwBSqJFnyt0m2fzUoX6vcjStOBaBF0OPH/x2I2eGoLnPNqxGVxD4TqHFWHOQB/GhAhlGwVcjDknHhCC+5lq53k6fEcS1Z6PsVpreYjm0bw0fe72wIvAT7KwaZtIL0d539oNaVDtSt/ouVPqUHD0kLlNjWFdEbZ4/PWVa6aXV0ejvKg94g61pm51TdXkIQ2LnhGZmlJcC6DLwestu6vdz6F9/C7Lz+kyb9+LMfkXGn0w58x1Cby3A+NkuBhzhrzebnQGYEyD38GYIXfD+CPEyzSrwVQDa7PUPzthzlpd626PFSIvYEKqWm0/jLBC9BBg217e91QC93QaxsSbiLBaijlDfwf4jK+PuQZYTXGkHbedMJbaeDTzuWno/8mYo7R4No4rgTeBdjsfizHHEsOBXRPY9J0CPG0tKL0L6NXVFcei/BJHaMV5ZfXN88O+Mgye07KkfVrlDCL6WZ/JFiX6ew17KuNFKCTPQNy+DKs9PucWh4AeD+yLMcdlg5EYr9YgCtG8XWIXv5o43rMGeMBaGxbi9mEAYxHczQraMzDnlr4cbIX0EZ7fler+uYdgP4w24Fr7G3BZBHfBhCaebgV3J8axKx7OBG4jPiewl4G77WZgSRzv64sJWToMY+7dP+B7P7KCP5WcYPvftUatstr7HEwo2DLHhnQfu/n7rh0HH67DnEmvordO0Ir/9PygB4fVN9+WKyvE0HlNLyj/s4vd26aVHylyNWXs4Lj+1Q7UOeeALxxtsuksdqpdbGPRCLxegOP/lziE80pM+Mlo4FyrUfgKzKjt36usZjYV49Tky4F2A5Xp8MTLMMlYYvFnjPn1Gg/hDMba9J+YGOOf2M1RPD4gR9iNgI9w1pgQqN2tYP1znMIZjPXsf+24HYSJrb7IWku+SarN21PsRjBIOC/ERBuMthu/2bizI3ZaS8eldv27Dj+FbyibhF9uNgDtNRWTHBrKV3zaE+n6Xq6tEkP673JVYJnKTVARdbHI1ZSxi+P6R56f8yXG6zeIfyOGR2QGOF20529xCX4lRTUm3nUH4HqSPwbQmHPXfe24+PqhnGyFW6bYntjx8Ovs/fzQcwP7TTZgclicHMd7dsbP1A7wLsakfhzuPAfx8CnmqGpHjMPlm2kU0GOJbVV92T7fQVY56ErwO9ZhHOxOwi+W+wfAoG8JaG0+xGPq6wu3nPP22lxbKdSsWT096PPwiwectLq6coLI1pQw0XF9cRyf5YqJHoTxEs40EwiO491gd+qFxP5WK3KxFpNI5VzScwZ8NyYu/SXP9leS3pjsTbkuhvb2BSYW+v4MjlcfO0eHeLR9wGrNC9J4P1FgFiZD2blWa302A/2w0m70D8Cc9aeKhzAZ4VwM/GpT9S8BvXbqHlti7P8u6bwgl8s5Dm9oeUUrdbdP255IKLyCcx2F+1x2YRyf1wi85miTDTO3yznsQfzO2fOFgcBfcft8LMOYlhvSfD+fYc44H/IUVHcSfFyRCnbGeP33pnFNI/O+FL/EnOG7+LUVIJlydoxa68q4DHznbIyz3QOkxwfpBs9NzYzNBHRXUfeJPmYNrdRVub5yFHXrKzHekA7Jok/UdXVFCMlqUa4z6Hh34S5T8WFkNvlFH4z5Kpl7zjcux+2k1Wo3b5kK0ezAeMo+7NF2DyDdx3i9eflqq70tzPB4VWJCzlz8FybRSzYcaNMpnLutdltHelPBRoHzPdodCAzaxMSt/81DGXp9WH3zU7m+cgx5vPk9BY+6jQVstabjzUNExibFeR4aVLwL9H2Y8+ggrT2T1o8aek8h+xWLMU4whcJ2HotQN+YooiXD99ZttT8f57FfkPn46GsyYE2I9b0uBa2ezJ7PZ4qvLBb/laGNxxu4i2X0AfaJALQdPmEwxpnCpVLelC8joojc6LXd0RHx5k5uV36io80DxJ8jeA3mbCqIs0hvnuBNcZm3b6GwQvauxh2y8jPSe34ZxEZMaI2rutNWmAIJmWIBxqM70xyK8XgP4gNMXHS+zeNWTAx0pqvh3enRZk+zgPXfeDCusyJFV3FxV95kQBq816LncFcAAoVo0IlRjDHruoTkvQl+vstZbCxkZOxGOBa3ToyTUqGwLe5Up69iPLWzySee2uB5ZCarVCdwDolVbEqWSzzaXEBinuRhZzbxheKlCp+49PFm8dROL1vQ+ulBjyxuzZdRUTOJojzOorSesHL6+C1E3sbNVWxem7c3nsXt8BWL/8VtHs2Es9jJBDsTPUrmyhuGgR86BJrGeOT2hOBe78TEqgYxxkO7TAW/Jb5ohlSxE+6c6A1kx+yez7yN+0x9G6vdaJ/Y5/n51kMK5ZPOs7g4WiLhVvEv0j4OJ79K8ntciXJOwC9kJBlc5u1Ccg7rC/y7o82jGE/8MKDxMymne6P3nhXQ2eAHuBOzXCFLWsrpwe17MzJiBdVOrk+LRvXz+dZDkc7oAjzOP7V294/wL36JX1H4epKPMfwrwUU2+lshnS4qMbGgsfgAU5i9UDgCkwkpiF+H7J7n4/aYPhLol8Z7uIzMpxfFCmZXbvTn8EzuJMTNJ47rpZHWqTsO8igiEV27fv0b+dY7g59saQPe99hoj5O55GQk8JjVil078jWkxvmmFbc3fjq1H1eGrNuJ3wEulznecf113N6r2cDlzzAA40iUDt7BLzY7HewHbO1oc4csbWnDlba4f6SouNQnofwn283/sCM/+0i/67HP3FHmUuxdHsbJZDEmG5QP52Oq3WRicT0AkxAi1RQTHPvcA9xVQPMgAtQ62oS1P2bhzmCWrtrVM8neebzr97oBv5hxIT0COhLpUVFneTaNei9fe0ij3vVoNlzm0rfYEXNu9iHwG/zPeq8htV7Nz2FyAgdxRhqefxowKuD647hNWPnEzrhLPdaH9N7XY4pyBLFPGr734yxqz2AqeAXxAsH5BoTkcKa1jUR6cHooR9Dtebzt90miP1DmEltYLeIK4J9WKF5McIKOb3I/prpLavdYxpQcxJnEV2/WB3EO2xyXo+nbeB0nZY0nHNf3IPWpP1dmUXsusc8UxN8Q0onz+KsYpQe6jgyjSq3L3x5Sa5U79j6fBPRgsy+hD19nSRpkf7Bl9jVsk//eHlN8fCzJxYPehPHuTseZ7B124xBrAR2FSSmZqko4wzA1h2OxnNRX3Qk7Lg1zYcjv3xVu1c9aCZryZLwqcVd9E+ewLFMcVapEOeRTJKq787UDlIp2oJ3lX/vk6OO1YnZffcleCcZuTF7mdHrvfo6J0wyqYnVWCoXmyQRnyrqdxEvT5SquSIfXQn7/izEpH4M249vmkYB2jZcmtSUkhQSIKLQzAblWGc9Hmzm0cj+bJlctCGWYsJdsCeePMGkEMxFa43IWm07qfAnOcCxshej5up3jenPI7z/K5nWHe2NsAY3XcvIzc1huCWhQPvVX8/YMVmvtfDalWCdTJS42YJzBKnGbDlPFk3ZDEIs+mCpByVKOqf0ci+eAJQU23iXANo42ueAw97Hj+nfyaMxcm42lCCHQoP20w23ytQOUimzl3lrrtTJVvAXzTZizukvw8FJMsQbk0lz/PQXf44qrvrUAx30IwU54Gp+899nHtYkYlEdj5nLuXC7LWRgEdI/XznacdiefyFUd2iNLmPpYpkogizE1Ysdg8ixnq79uI9grtorgzF8uijHnz7FoBR4pwPF3HRN1YCpIhR1XrYHSAhozsRqGQUAP3jD8I0wllcDBXD1tlzF52gfjneLZHWdbaHRhilVcZQXeLphz5lVZvq+lGFN3MhpwEEdiShDG4m6CU4/mKy7BtSFHnmNDks+ZT2NWiPM4hBr0/PndCv2hU88sKj4w3x5+9dSKHQhONmGe3SfbWH4SxZi6XsKYbn8KHIYxaR6IySEcNk9Pl4n5FNy1imPhin2+s0DniSvKoTNHnsPlMJtPVkTXb0AjZJ1igKhSzUo73O6jeiJwXz49vC5SE33moVaR5hx8vEaMo5YPPXyddq7dasgr7CvXcknXA8uA0TGuDwNqMHVg46GM4NSIL1O4YSkubatfjjyHa6OxuoDGrL+Ix5AI6EhUL9BKHefYO07VM4momXmU/F/pqS75rGHFsPqmt3Pw6ZZhcgwXGt2YKldBRejPSkBAn+TQOm4t4HXEpXnmymLvMvuuKaAxK0XIOqbcZKTIp+zfmPZ/VOWNmXvl9PFbaB2YDcp0kOJ5JeaeXOMWh+Z/ZICGHYsg8/Y6sptTOdu48jX3JTdCNV1pj/NJg3YJ6JEI4RDQg/uNf8Nr8il9Wt6YDnqKj/PZJWqdf3WwC4D3MXV+Yw4/EM9c3ongVJb3k9mQsrDRjttLOxdCNV1xzh/k0Zi5wqjGIIREg541q0cr9Zi7uT5txbTyUfnw4FqpCzyaRaMUPyrTJGe16CDOxt/px1X3+dYC7+so7hjibXPgOVybiHxKQOMKhRwFeZxBMpcEtBVF93u071es1Hm5/tBtNZXTgD2dQhw1f3jDG5/KNMlJHsZUCwrSivfz/I2cEnC9CXhFupsPHdd3y4FnKHdcz6dojo895v1uMq1DIqDLSnd9WpmiA8Eozl955C5b5eoD67q6ItBXeCoGD8gUyVk6gXscbXxioqc4NKtbpKsBU04yiD1Cfv/bACMcG5DWPBqvNz3aTJBpHRIBrWbN6tHuuroAg4r6FF2bqw/cvuGt73lNPMUa1dHvIZkiOc3NBDv4nYjbDyHIOawDuFe6GTysCAcT7jjiAxzXX8yz8WrGnZjlcJnWIRHQAN1R/d/4ZJDRnLK6pmpyrj3syunjRwNXe+rafyl7ulGqueQ2izEZz2JuNoHjA64PBo4OuD4baJNu9hLQW2OKp4SVIwtMQHfjjtufTOJJfYRUC+gR81qWo7nL431KE703lxzG9EwikWjxXzEJJ1xs7OmM/lGmR17gMkEHmblPIjiG91bp3n/xNiaxTRDHhPTei4CjAlUSdwrZXMQVoTIAqJWpHRIBbf6grsUjsb2GkcURdZeeNKk4Fx60vbHiSoXy1Pr1LVs++dZnMj3ygocwYUCxmATsEONakHn7PY8FrpDQwByPzVAkpNrzaId14MM8HLMGjzZny9QOkYAeMrfpfeA6z/dPaR+46vawV7pqq638PppLfZsXl/TMlKmRN2zAxCnHQtF7TPQ4gr28b0ES2HwTV6jmWOCIEN63qwzp7Dwdr5dwF7g5EthVpnZIBDRAZ2fkavwLdp/WXlNxdVgfsLW2YgZa/8n7DUpdOuiRxa0yNfKKmxzXz+zlt3AmsTeeX6UTFTbnadyezr8I2T3vQrCfwUZMlbJ8pAd3BrwIpiiOEBYBPeqpRV9qpX8cx+f8rLWm4g9h06Tbaiu/rzT3Yc6YfITz34f221nOFfOPRcCrAde3xZi6N/1dBGUaqwfkCOTbdAB3ONocRPB5b6a5nGCz+wO4s27l8+YVYAamep0QBgENMKy+ZbaKwwlGwY/aayru/qRu/6wnxtczibTWVF6J1n/xF86siUQ5Wc2a1SPTIi9xzeVNncUmE5z2UTZxsbkRdwW0GwhHAY3DMKF2MZcS4PoC2Ly+5CEnbsJd7UvIlIAGWL1u3fl2AH05ZcD6ta+2VVdVZOuB1h5bNaL91Yp5Ch2fKU2rH9rzdyE/uZfgfNnHY+pcQ7Bz2FLy06M3VbwPPOhosyPw6yzf5xYe2uODFEYJ0as82pQDf5DpHSIBvd38Dzu0ip7M17WCfTTRXVHRl9qry3+cSQ9vDaq9uvyMzq5oE+6Yxm/e841lDU2ScCK/WUdw+c3+GFPeIODYgHa3Yc7uhNhchsnkFsSPgBOyeI+32I1CLDqAnxXIeM3DL877B8A5Mr1DIqABhtW/2aK0PgaP0KtNGKiVur59i1WvtdZWTEn3Q7RWVxzQXlOxUCt1pwpO19cb9UPXDr9ApkJB4BMTPYPY2cWiuM9YBROC9mfnthjuAiZmSWM80dHmWvIztCoWF+E+mgBzhHGKTPGQCGiAoXNbntNaneY5gJuqtZVK82RbTcWrrdWVdbquPGVnGLqurqitpry2rab8BaVYCOyfwMe83KH6nqTmz++WqVAQvIwpbhGL/Rxa09+Aj6QbvfiFFdRBlGIc7g7J4H1dDvzc0eZV/My++cRLwH97yoy7gAuzcI8zMKF6IqC/pUnPbZqlNd8jMfPeBKX0Q+0b1GdtteU3tVaXH7mirjzuAu7LaieUrqquPLytpvyGtg1vLQM1B9TBCT57Y3FJd83o+sb1CIWEy8Fr+yTeK3zNl5gkF65N/SDgKdKfEKOvtX7M9Ljv04CuAhyzn+NXsasI+B3Gw314Bu5rH0wI34MYB86CIa4z4mFzm29vr61s1VrfT2JemGVodY5SnFO8ge622spGpXWTRr+L5mNdpFrp4UuU0lozQCk9TMEYUONAl8PGvVGUgEoqnkujno1GOo8pe+TttbKOFhx/BX6Du0jGN1lltT3BnxeAS4HfOtr1wZztTwV+iDtlaNwKAnAn4HJejWLMt4sLdLzWY/wvXsI40bk4ETjUCva7UrypiWB8ic638+IrDrZzRQR0bwytb3qsrbZ8Clo9hl9e69jfrfW+GvYFZf6JYiOpNUptLlI3/VcyKJg9tGfDKaphyUaEQmQ18Ajxn6PdQXx+GILhGkwykDM82p6AyTR2HSa8KdkN9FiMSfs0/MItL8SdDS3faQFOtb8RHwvrCIxvx88w4XP3JbHBKrKbqeOJbc4+uJAGI6G8uGX1LS/qInYntyq8dGv41ZC9mmeox0U4FziJ1HAW57DEOccu+D4MBn4FLLOa0mHEV1FpCFCHyTO9BJMRzkc4X0r+xzz7Msf2WzzHmdvb/lsKzAd+aTXg7WP0/yBM6NbRGK//x4CVwN8xDmtjA75na9GgHQx7rPkTPWnSoW0DV/1CmQ6OhPg5lxLRJw2b07LQKz28kO88D7xlNTsfFtj2QmJ0Wo3obkyFMB8GYs6lz8aYXv9ux+AdawVZv8lCPwwYD1QBe+CbnMgQBS4A/iTDtBl3WwF9V5xyogTj9PdNx7+1GBO4whwvJVPGciLB+fVFQANY7+eZq6sr66NK/3+Ciwtkgyhwb3FJ908kv7bQi0Z8rWdbcQ5Lnm7gZOCfmCQl8WzoSzFnnYem+J5aMebvx2V4euU+4GNMvu6tkvysLVJ4XwcVioBOidY7ZG5T49C9mg9Eq+/jro6SIfQChd6zrKH5dBHOQgwB7XPUsQb4H+mu1PwoMWfSR4dgnViIOe8U4RzMi8DewHMhuqc9C6XzU2aWVjOJls1turmzMzLWCuolWVoCFoKeXtbQMnFoQ8sb8vsSYuDrlX0PX5tThdTQAOyEibuNZvi724EfY8ykEtPux6cYX4AZmHPibLES458wVQR0gox6atGXZXObbh76Wd9dUeoUTN7invT/6NQtkSh7l81tPqisoUXCYQQffEzXt0k3pU1Q/ghTJWleBr5vNXAlps73H7OwMcgHZmHO+i8H2jL4ve9jwq22xcSxry6UDk9brmzV2NhFI/cB9609tmpEV5eeAXoqxk0+FecRHwPzldazh5TyhJrV3FlgP5b3gEbHdSGYtx3XXwNel25KKy8D1Riz5bmYUKuhKfz81zAOT3dgjiuE5DdWV2A8tk/H+BXsT+pLDa/AeJPfg4mn14XY2Rmv36zr6opaO97cswi1v44yXsE4jR6HUsMxnpu9acfLQL8LvKu0blGRoheG1C/6QH4rQpL8wmpVsbgAE9sZdoqsdhHEcnLDVN8XUy96MqZGd0Wc69RajNf9fGAu8GYWn6UUGBVwfSPGfJzrbGc3WYdgjg5GJPAZK4BXMElSnrX/nQorx1DHhu8LsucPMZpg57suFbaRbj9m9yGqq0d1dKnOUU8t+lJkiJBGFmNMdr3RCWxDds/cBBNGNQ5TeWoMJk56gBV+7XbT0Y5JUfkO5lxZqo1ll1GbjNkIO2almOyTX9rf1grgc4wl9C1C41wsCEIYOABjNov1eli6SBAEQRAyz00OAX20dJEgCIIgZJZ+GLNoLOG8ClPAQRAEIWtEpAuEAuRoTM7mWNyDOScTBEEQBCGDzCPYvL2HdJEgCIIgZJaRmKT9sYRzs3SRIAhhQEzcQqFxGsEJeqSspCAIgiBkgaYA7bmL4MQSgiAIgiCkgYkEnz1LtXBBEARByAIPOQR0nXSRIAiCIGSWrTGhU0Gxz/2kmwRBCAviJCYUCv8BlARcvx3okG4SBEEQhMwxhODMYT2YijyCIAiCIGSQKxDnMEEQBEEIFcOA1Q4BXS3dJAiCIAiZ5VaHcF6M+GIIgiAIQkY5CIg6BPSJ0k2CIAiCkDmGAe85hPMboj0LgiAIQnz0T0J4lgB/cwhnjSk7KQiCIAhCHJwHtGBM0EVxvG8w8KSHcH4eUNLNgiAIghAfz24iTJcCVwK7BWjVEWAGsMRDOK8DdpQuFgQhzIgGIYSR4cBn9F4WshV4BVgOrMSYs7cGDgW29Pz8C4AbpJsFQRAEIT7O9tCCE309hTiGCYIgCEJCNKRJOC/CpP0UBEEQBCFOtgA2pEE4vweMku4VBEEQhMQ4KQ3CeQHmnFoQBEEQhAQ5GBPD7MoA5vPqAX5L785mgiAIgiAkwA7AZcBrCQjmjZj6zuOlGwVByFUkzErIBcZi8mpPAPYARgJDgTKgA2jDhFw1YhKQPAt8Lt0mCEIu83+c4jqQVjECSwAAACV0RVh0ZGF0ZTpjcmVhdGUAMjAyNC0wNy0xMVQxMTo0MToxNCswMDowMBSqIKkAAAAldEVYdGRhdGU6bW9kaWZ5ADIwMjQtMDctMTFUMTE6NDE6MTQrMDA6MDBl95gVAAAAAElFTkSuQmCC;" parent="WauHK1ZiTlTc2SndrFiC-61" vertex="1">
          <mxGeometry x="59.41999999999996" y="80" width="141.15" height="35" as="geometry" />
        </mxCell>
        <mxCell id="WauHK1ZiTlTc2SndrFiC-35" value="&lt;div style=&quot;font-size: 23px;&quot;&gt;DL modeling&lt;br&gt;&lt;/div&gt;" style="text;html=1;align=center;verticalAlign=middle;resizable=0;points=[];autosize=1;strokeColor=none;fillColor=none;fontSize=23;fontFamily=Lucida Console;fontStyle=0" parent="WauHK1ZiTlTc2SndrFiC-61" vertex="1">
          <mxGeometry y="10" width="180" height="40" as="geometry" />
        </mxCell>
      </root>
    </mxGraphModel>
  </diagram>
</mxfile>
